M48
; DRILL file {KiCad 9.0.0} date 2025-08-13T12:18:56+0300
; FORMAT={-:-/ absolute / metric / decimal}
; #@! TF.CreationDate,2025-08-13T12:18:56+03:00
; #@! TF.GenerationSoftware,Kicad,Pcbnew,9.0.0
; #@! TF.FileFunction,Plated,1,2,PTH
FMAT,2
METRIC
; #@! TA.AperFunction,Plated,PTH,ComponentDrill
T1C0.800
; #@! TA.AperFunction,Plated,PTH,ViaDrill
T2C0.820
; #@! TA.AperFunction,Plated,PTH,ComponentDrill
T3C0.820
; #@! TA.AperFunction,Plated,PTH,ComponentDrill
T4C0.900
%
G90
G05
T1
X122.19Y-86.195
X122.19Y-93.815
X122.5Y-96.92
X122.5Y-107.08
X124.73Y-86.195
X124.73Y-93.815
X127.27Y-86.195
X127.27Y-93.815
X129.81Y-86.195
X129.81Y-93.815
X136.42Y-100.0
X140.0Y-79.67
X140.0Y-89.83
X143.25Y-71.5
X143.25Y-76.5
X146.58Y-100.0
X149.25Y-79.92
X149.25Y-90.08
X149.5Y-71.5
X149.5Y-76.5
X151.5Y-100.0
X151.5Y-105.0
X168.75Y-105.25
X173.5Y-95.5
X173.5Y-97.5
X173.5Y-99.5
X173.5Y-101.5
X173.75Y-105.25
T2
X128.26Y-117.43
X128.3Y-111.9
X167.9Y-95.4
X168.75Y-112.8
X173.8Y-82.65
X173.85Y-116.65
T3
X95.0Y-83.0
X95.0Y-86.5
X95.0Y-94.25
X95.0Y-99.25
X95.0Y-104.25
X95.0Y-111.403
X95.0Y-114.903
X105.25Y-76.403
X105.25Y-79.903
X105.25Y-99.67
X105.25Y-109.83
X105.25Y-116.653
X105.25Y-120.153
X113.403Y-89.25
X113.5Y-110.653
X113.5Y-114.153
X114.5Y-97.0
X115.96Y-78.695
X115.96Y-120.695
X116.903Y-89.25
X118.5Y-78.695
X118.5Y-120.695
X119.5Y-97.0
X121.04Y-78.695
X121.04Y-120.695
X129.17Y-77.0
X131.803Y-112.275
X137.103Y-112.275
X139.33Y-77.0
X142.403Y-112.275
X154.085Y-79.44
X154.085Y-81.98
X154.085Y-84.52
X154.085Y-87.06
X156.78Y-108.94
X156.78Y-111.48
X156.78Y-114.02
X156.78Y-116.56
X156.817Y-95.94
X156.817Y-98.48
X156.817Y-101.02
X156.817Y-103.56
X162.025Y-79.44
X162.025Y-81.98
X162.025Y-84.52
X162.025Y-87.06
X164.72Y-108.94
X164.72Y-111.48
X164.72Y-114.02
X164.72Y-116.56
X164.757Y-95.94
X164.757Y-98.48
X164.757Y-101.02
X164.757Y-103.56
T4
X101.17Y-94.75
X111.33Y-94.75
X112.25Y-102.98
X112.25Y-105.52
M30
