M48
; DRILL file KiCad 10.0.2 date 2026-05-26T13:51:13
; FORMAT={-:-/ absolute / metric / decimal}
; #@! TF.CreationDate,2026-05-26T13:51:13+03:00
; #@! TF.GenerationSoftware,Kicad,Pcbnew,10.0.2
; #@! TF.FileFunction,Plated,1,2,PTH
FMAT,2
METRIC
; #@! TA.AperFunction,Plated,PTH,ViaDrill
T1C0.600
; #@! TA.AperFunction,Plated,PTH,ComponentDrill
T2C0.700
; #@! TA.AperFunction,Plated,PTH,ComponentDrill
T3C0.800
; #@! TA.AperFunction,Plated,PTH,ComponentDrill
T4C0.900
; #@! TA.AperFunction,Plated,PTH,ComponentDrill
T5C1.000
; #@! TA.AperFunction,Plated,PTH,ComponentDrill
T6C1.150
; #@! TA.AperFunction,Plated,PTH,ComponentDrill
T7C1.250
%
G90
G05
T1
X103.325Y-113.325
X126.075Y-91.7
X126.7Y-132.625
X131.625Y-110.125
X137.625Y-135.425
X139.2Y-117.7
X140.3Y-99.4
X141.1Y-89.7
X141.85Y-102.925
X141.925Y-126.5
X141.925Y-130.375
X141.925Y-132.075
X144.025Y-94.375
X147.237Y-134.562
X147.825Y-77.4
X150.125Y-123.125
X154.975Y-132.825
X173.85Y-130.0
X180.553Y-82.477
X181.275Y-130.025
X182.4Y-86.55
X182.45Y-99.95
X185.15Y-93.25
X185.154Y-86.596
X186.6Y-135.3
X187.75Y-100.65
X187.95Y-142.6
X190.65Y-126.925
X197.0Y-142.85
X197.075Y-85.025
X197.075Y-122.775
X199.55Y-112.05
X204.2Y-101.8
X204.234Y-116.716
X205.075Y-119.975
X209.625Y-104.4
X209.7Y-113.3
X222.9Y-122.8
X225.65Y-118.7
T2
X141.765Y-114.8
X141.79Y-109.625
X141.84Y-105.125
X149.385Y-114.8
X149.41Y-109.625
X149.46Y-105.125
T3
X139.425Y-128.35
X140.975Y-134.475
X140.975Y-136.975
X141.925Y-128.35
X152.5Y-77.397
X152.5Y-79.937
X152.5Y-82.477
X152.5Y-85.017
X152.5Y-87.557
X152.5Y-90.097
X152.5Y-92.637
X152.5Y-95.177
X152.5Y-97.717
X152.5Y-100.257
X152.5Y-102.797
X152.5Y-105.337
X152.5Y-107.877
X152.5Y-110.417
X152.5Y-112.957
X152.5Y-115.497
X152.5Y-118.037
X152.5Y-120.577
X152.5Y-123.117
X177.896Y-120.574
X177.896Y-123.114
X177.9Y-77.397
X177.9Y-79.937
X177.9Y-82.477
X177.9Y-85.017
X177.9Y-87.557
X177.9Y-90.097
X177.9Y-92.637
X177.9Y-95.177
X177.9Y-97.717
X177.9Y-100.257
X177.9Y-102.797
X177.9Y-105.337
X177.9Y-107.877
X177.9Y-110.417
X177.9Y-112.957
X177.9Y-115.497
X177.9Y-118.037
X185.0Y-123.57
X185.0Y-133.73
T4
X185.0Y-115.78
X185.0Y-118.32
T5
X106.184Y-81.954
X106.184Y-84.494
X106.184Y-87.034
X106.184Y-89.574
X106.184Y-92.114
X106.184Y-94.654
X106.434Y-125.454
X106.434Y-127.994
X106.434Y-130.534
X106.434Y-133.074
X106.434Y-135.614
X106.434Y-138.154
X111.46Y-147.2
X113.73Y-72.5
X114.0Y-147.2
X116.27Y-72.5
X116.54Y-147.2
X118.81Y-72.5
X119.08Y-147.2
X121.35Y-72.5
X121.62Y-147.2
X123.89Y-72.5
X124.16Y-147.2
X126.43Y-72.5
X126.7Y-147.2
X128.97Y-72.5
X131.444Y-84.074
X131.444Y-86.614
X131.444Y-89.154
X131.444Y-91.694
X131.694Y-127.574
X131.694Y-130.114
X131.694Y-132.654
X131.694Y-135.194
X193.53Y-126.28
X193.53Y-128.82
X193.53Y-131.36
X193.53Y-133.9
X193.556Y-84.056
X193.556Y-86.596
X193.556Y-89.136
X193.556Y-91.676
X194.46Y-146.0
X197.0Y-146.0
X202.28Y-147.05
X203.15Y-72.05
X204.82Y-147.05
X205.69Y-72.05
X207.25Y-101.85
X207.25Y-104.39
X207.25Y-113.31
X207.25Y-115.85
X207.36Y-147.05
X208.23Y-72.05
X209.9Y-147.05
X210.77Y-72.05
X212.44Y-147.05
X213.31Y-72.05
X214.98Y-147.05
X215.85Y-72.05
X217.52Y-147.05
X218.39Y-72.05
X218.79Y-123.32
X218.79Y-125.86
X218.79Y-128.4
X218.79Y-130.94
X218.79Y-133.48
X218.79Y-136.02
X218.816Y-81.096
X218.816Y-83.636
X218.816Y-86.176
X218.816Y-88.716
X218.816Y-91.256
X218.816Y-93.796
X225.65Y-121.235
X225.65Y-123.775
X230.25Y-101.85
X230.25Y-115.85
T6
X137.3Y-98.4
X137.3Y-103.0
X137.3Y-107.6
X137.3Y-112.2
X202.2Y-106.25
X202.2Y-110.85
T7
X97.987Y-106.037
X97.987Y-113.912
X128.787Y-106.037
X128.787Y-113.912
M30
