%TF.GenerationSoftware,KiCad,Pcbnew,10.0.2*%
%TF.CreationDate,2026-05-25T22:57:17+03:00*%
%TF.ProjectId,Dual Force Plate,4475616c-2046-46f7-9263-6520506c6174,1*%
%TF.SameCoordinates,Original*%
%TF.FileFunction,Soldermask,Bot*%
%TF.FilePolarity,Negative*%
%FSLAX46Y46*%
G04 Gerber Fmt 4.6, Leading zero omitted, Abs format (unit mm)*
G04 Created by KiCad (PCBNEW 10.0.2) date 2026-05-25 22:57:17*
%MOMM*%
%LPD*%
G01*
G04 APERTURE LIST*
G04 Aperture macros list*
%AMRoundRect*
0 Rectangle with rounded corners*
0 $1 Rounding radius*
0 $2 $3 $4 $5 $6 $7 $8 $9 X,Y pos of 4 corners*
0 Add a 4 corners polygon primitive as box body*
4,1,4,$2,$3,$4,$5,$6,$7,$8,$9,$2,$3,0*
0 Add four circle primitives for the rounded corners*
1,1,$1+$1,$2,$3*
1,1,$1+$1,$4,$5*
1,1,$1+$1,$6,$7*
1,1,$1+$1,$8,$9*
0 Add four rect primitives between the rounded corners*
20,1,$1+$1,$2,$3,$4,$5,0*
20,1,$1+$1,$4,$5,$6,$7,0*
20,1,$1+$1,$6,$7,$8,$9,0*
20,1,$1+$1,$8,$9,$2,$3,0*%
G04 Aperture macros list end*
%ADD10R,5.000000X3.500000*%
%ADD11C,3.200000*%
%ADD12R,1.800000X1.800000*%
%ADD13C,1.800000*%
%ADD14C,1.500000*%
%ADD15RoundRect,0.250000X0.825000X-0.825000X0.825000X0.825000X-0.825000X0.825000X-0.825000X-0.825000X0*%
%ADD16C,2.150000*%
%ADD17R,2.000000X1.600000*%
%ADD18O,2.000000X1.600000*%
%ADD19C,1.900000*%
%ADD20C,1.600000*%
G04 APERTURE END LIST*
D10*
%TO.C,U1*%
X128787500Y-106037500D03*
X128787500Y-113911670D03*
X97987500Y-106037500D03*
X97987500Y-113911670D03*
%TD*%
D11*
%TO.C,REF\u002A\u002A*%
X98250000Y-144750000D03*
%TD*%
%TO.C,REF\u002A\u002A*%
X228250000Y-144750000D03*
%TD*%
D12*
%TO.C,U3*%
X218815800Y-93795800D03*
D13*
X218815800Y-91255800D03*
X218815800Y-88715800D03*
X218815800Y-86175800D03*
X218815800Y-83635800D03*
X218815800Y-81095800D03*
D12*
X193555800Y-91675800D03*
D13*
X193555800Y-89135800D03*
X193555800Y-86595800D03*
X193555800Y-84055800D03*
%TD*%
D11*
%TO.C,REF\u002A\u002A*%
X228250000Y-74750000D03*
%TD*%
D14*
%TO.C,R2*%
X149410000Y-109625000D03*
X141790000Y-109625000D03*
%TD*%
D12*
%TO.C,D1*%
X185000000Y-115780000D03*
D13*
X185000000Y-118320000D03*
%TD*%
D12*
%TO.C,U6*%
X106434200Y-125454200D03*
D13*
X106434200Y-127994200D03*
X106434200Y-130534200D03*
X106434200Y-133074200D03*
X106434200Y-135614200D03*
X106434200Y-138154200D03*
D12*
X131694200Y-127574200D03*
D13*
X131694200Y-130114200D03*
X131694200Y-132654200D03*
X131694200Y-135194200D03*
%TD*%
D12*
%TO.C,J10*%
X113730000Y-72500000D03*
D13*
X116270000Y-72500000D03*
X118810000Y-72500000D03*
X121350000Y-72500000D03*
X123890000Y-72500000D03*
X126430000Y-72500000D03*
X128970000Y-72500000D03*
%TD*%
D12*
%TO.C,J3*%
X217520000Y-147050000D03*
D13*
X214980000Y-147050000D03*
X212440000Y-147050000D03*
X209900000Y-147050000D03*
X207360000Y-147050000D03*
X204820000Y-147050000D03*
X202280000Y-147050000D03*
%TD*%
D15*
%TO.C,J7*%
X137300000Y-112200000D03*
D16*
X137300000Y-107600000D03*
X137300000Y-103000000D03*
X137300000Y-98400000D03*
%TD*%
D12*
%TO.C,J9*%
X126700000Y-147200000D03*
D13*
X124160000Y-147200000D03*
X121620000Y-147200000D03*
X119080000Y-147200000D03*
X116540000Y-147200000D03*
X114000000Y-147200000D03*
X111460000Y-147200000D03*
%TD*%
D14*
%TO.C,R3*%
X149385000Y-114800000D03*
X141765000Y-114800000D03*
%TD*%
D12*
%TO.C,U4*%
X218790000Y-136020000D03*
D13*
X218790000Y-133480000D03*
X218790000Y-130940000D03*
X218790000Y-128400000D03*
X218790000Y-125860000D03*
X218790000Y-123320000D03*
D12*
X193530000Y-133900000D03*
D13*
X193530000Y-131360000D03*
X193530000Y-128820000D03*
X193530000Y-126280000D03*
%TD*%
D11*
%TO.C,REF\u002A\u002A*%
X98250000Y-74750000D03*
%TD*%
D17*
%TO.C,U2*%
X152500000Y-77396560D03*
D18*
X152500000Y-79936560D03*
X152500000Y-82476560D03*
X152500000Y-85016560D03*
X152500000Y-87556560D03*
X152500000Y-90096560D03*
X152500000Y-92636560D03*
X152500000Y-95176560D03*
X152500000Y-97716560D03*
X152500000Y-100256560D03*
X152500000Y-102796560D03*
X152500000Y-105336560D03*
X152500000Y-107876560D03*
X152500000Y-110416560D03*
X152500000Y-112956560D03*
X152500000Y-115496560D03*
X152500000Y-118036560D03*
X152500000Y-120576560D03*
X152500000Y-123116560D03*
X177896320Y-123113840D03*
X177896320Y-120573840D03*
X177900000Y-118036560D03*
X177900000Y-115496560D03*
X177900000Y-112956560D03*
X177900000Y-110416560D03*
X177900000Y-107876560D03*
X177900000Y-105336560D03*
X177900000Y-102796560D03*
X177900000Y-100256560D03*
X177900000Y-97716560D03*
X177900000Y-95176560D03*
X177900000Y-92636560D03*
X177900000Y-90096560D03*
X177900000Y-87556560D03*
X177900000Y-85016560D03*
X177900000Y-82476560D03*
X177900000Y-79936560D03*
X177900000Y-77396560D03*
%TD*%
D14*
%TO.C,R4*%
X149460000Y-105125000D03*
X141840000Y-105125000D03*
%TD*%
D12*
%TO.C,J4*%
X203150000Y-72050000D03*
D13*
X205690000Y-72050000D03*
X208230000Y-72050000D03*
X210770000Y-72050000D03*
X213310000Y-72050000D03*
X215850000Y-72050000D03*
X218390000Y-72050000D03*
%TD*%
D12*
%TO.C,J6*%
X225650000Y-123775000D03*
D13*
X225650000Y-121235000D03*
%TD*%
D19*
%TO.C,U7*%
X230250000Y-115850000D03*
X230250000Y-101850000D03*
X207250000Y-115850000D03*
X207250000Y-101850000D03*
X207250000Y-113310000D03*
X207250000Y-104390000D03*
%TD*%
D20*
%TO.C,R1*%
X185000000Y-123570000D03*
X185000000Y-133730000D03*
%TD*%
D12*
%TO.C,U5*%
X106184200Y-81954200D03*
D13*
X106184200Y-84494200D03*
X106184200Y-87034200D03*
X106184200Y-89574200D03*
X106184200Y-92114200D03*
X106184200Y-94654200D03*
D12*
X131444200Y-84074200D03*
D13*
X131444200Y-86614200D03*
X131444200Y-89154200D03*
X131444200Y-91694200D03*
%TD*%
D12*
%TO.C,SW1*%
X197000000Y-146000000D03*
D13*
X194460000Y-146000000D03*
%TD*%
D20*
%TO.C,C2*%
X144850000Y-126800000D03*
X144850000Y-129300000D03*
%TD*%
%TO.C,C1*%
X141000000Y-133250000D03*
X141000000Y-135750000D03*
%TD*%
D15*
%TO.C,J8*%
X202200000Y-110850000D03*
D16*
X202200000Y-106250000D03*
%TD*%
M02*
