%TF.GenerationSoftware,KiCad,Pcbnew,9.0.7*%
%TF.CreationDate,2026-02-03T15:10:29+02:00*%
%TF.ProjectId,Breadboard_Power_Supply,42726561-6462-46f6-9172-645f506f7765,2*%
%TF.SameCoordinates,Original*%
%TF.FileFunction,Legend,Bot*%
%TF.FilePolarity,Positive*%
%FSLAX46Y46*%
G04 Gerber Fmt 4.6, Leading zero omitted, Abs format (unit mm)*
G04 Created by KiCad (PCBNEW 9.0.7) date 2026-02-03 15:10:29*
%MOMM*%
%LPD*%
G01*
G04 APERTURE LIST*
%ADD10C,0.200000*%
%ADD11C,0.175000*%
G04 APERTURE END LIST*
D10*
X117983799Y-77699399D02*
G75*
G02*
X110463801Y-77699399I-3759999J0D01*
G01*
X110463801Y-77699399D02*
G75*
G02*
X117983799Y-77699399I3759999J0D01*
G01*
D11*
X109444119Y-80947426D02*
X108444119Y-80947426D01*
X108444119Y-80947426D02*
X109158404Y-81280759D01*
X109158404Y-81280759D02*
X108444119Y-81614092D01*
X108444119Y-81614092D02*
X109444119Y-81614092D01*
X109444119Y-82233140D02*
X109396500Y-82137902D01*
X109396500Y-82137902D02*
X109348880Y-82090283D01*
X109348880Y-82090283D02*
X109253642Y-82042664D01*
X109253642Y-82042664D02*
X108967928Y-82042664D01*
X108967928Y-82042664D02*
X108872690Y-82090283D01*
X108872690Y-82090283D02*
X108825071Y-82137902D01*
X108825071Y-82137902D02*
X108777452Y-82233140D01*
X108777452Y-82233140D02*
X108777452Y-82375997D01*
X108777452Y-82375997D02*
X108825071Y-82471235D01*
X108825071Y-82471235D02*
X108872690Y-82518854D01*
X108872690Y-82518854D02*
X108967928Y-82566473D01*
X108967928Y-82566473D02*
X109253642Y-82566473D01*
X109253642Y-82566473D02*
X109348880Y-82518854D01*
X109348880Y-82518854D02*
X109396500Y-82471235D01*
X109396500Y-82471235D02*
X109444119Y-82375997D01*
X109444119Y-82375997D02*
X109444119Y-82233140D01*
X108444119Y-82899807D02*
X108444119Y-83518854D01*
X108444119Y-83518854D02*
X108825071Y-83185521D01*
X108825071Y-83185521D02*
X108825071Y-83328378D01*
X108825071Y-83328378D02*
X108872690Y-83423616D01*
X108872690Y-83423616D02*
X108920309Y-83471235D01*
X108920309Y-83471235D02*
X109015547Y-83518854D01*
X109015547Y-83518854D02*
X109253642Y-83518854D01*
X109253642Y-83518854D02*
X109348880Y-83471235D01*
X109348880Y-83471235D02*
X109396500Y-83423616D01*
X109396500Y-83423616D02*
X109444119Y-83328378D01*
X109444119Y-83328378D02*
X109444119Y-83042664D01*
X109444119Y-83042664D02*
X109396500Y-82947426D01*
X109396500Y-82947426D02*
X109348880Y-82899807D01*
X109539357Y-83709331D02*
X109539357Y-84471235D01*
X108444119Y-84566474D02*
X108444119Y-85137902D01*
X109444119Y-84852188D02*
X108444119Y-84852188D01*
X109396500Y-85852188D02*
X109444119Y-85756950D01*
X109444119Y-85756950D02*
X109444119Y-85566474D01*
X109444119Y-85566474D02*
X109396500Y-85471236D01*
X109396500Y-85471236D02*
X109301261Y-85423617D01*
X109301261Y-85423617D02*
X108920309Y-85423617D01*
X108920309Y-85423617D02*
X108825071Y-85471236D01*
X108825071Y-85471236D02*
X108777452Y-85566474D01*
X108777452Y-85566474D02*
X108777452Y-85756950D01*
X108777452Y-85756950D02*
X108825071Y-85852188D01*
X108825071Y-85852188D02*
X108920309Y-85899807D01*
X108920309Y-85899807D02*
X109015547Y-85899807D01*
X109015547Y-85899807D02*
X109110785Y-85423617D01*
X109396500Y-86756950D02*
X109444119Y-86661712D01*
X109444119Y-86661712D02*
X109444119Y-86471236D01*
X109444119Y-86471236D02*
X109396500Y-86375998D01*
X109396500Y-86375998D02*
X109348880Y-86328379D01*
X109348880Y-86328379D02*
X109253642Y-86280760D01*
X109253642Y-86280760D02*
X108967928Y-86280760D01*
X108967928Y-86280760D02*
X108872690Y-86328379D01*
X108872690Y-86328379D02*
X108825071Y-86375998D01*
X108825071Y-86375998D02*
X108777452Y-86471236D01*
X108777452Y-86471236D02*
X108777452Y-86661712D01*
X108777452Y-86661712D02*
X108825071Y-86756950D01*
X109444119Y-87185522D02*
X108444119Y-87185522D01*
X109444119Y-87614093D02*
X108920309Y-87614093D01*
X108920309Y-87614093D02*
X108825071Y-87566474D01*
X108825071Y-87566474D02*
X108777452Y-87471236D01*
X108777452Y-87471236D02*
X108777452Y-87328379D01*
X108777452Y-87328379D02*
X108825071Y-87233141D01*
X108825071Y-87233141D02*
X108872690Y-87185522D01*
X112201311Y-77089464D02*
X112201311Y-77156130D01*
X112201311Y-77156130D02*
X112234644Y-77222797D01*
X112234644Y-77222797D02*
X112267978Y-77256130D01*
X112267978Y-77256130D02*
X112334644Y-77289464D01*
X112334644Y-77289464D02*
X112467978Y-77322797D01*
X112467978Y-77322797D02*
X112634644Y-77322797D01*
X112634644Y-77322797D02*
X112767978Y-77289464D01*
X112767978Y-77289464D02*
X112834644Y-77256130D01*
X112834644Y-77256130D02*
X112867978Y-77222797D01*
X112867978Y-77222797D02*
X112901311Y-77156130D01*
X112901311Y-77156130D02*
X112901311Y-77089464D01*
X112901311Y-77089464D02*
X112867978Y-77022797D01*
X112867978Y-77022797D02*
X112834644Y-76989464D01*
X112834644Y-76989464D02*
X112767978Y-76956130D01*
X112767978Y-76956130D02*
X112634644Y-76922797D01*
X112634644Y-76922797D02*
X112467978Y-76922797D01*
X112467978Y-76922797D02*
X112334644Y-76956130D01*
X112334644Y-76956130D02*
X112267978Y-76989464D01*
X112267978Y-76989464D02*
X112234644Y-77022797D01*
X112234644Y-77022797D02*
X112201311Y-77089464D01*
X112834644Y-77622797D02*
X112867978Y-77656131D01*
X112867978Y-77656131D02*
X112901311Y-77622797D01*
X112901311Y-77622797D02*
X112867978Y-77589464D01*
X112867978Y-77589464D02*
X112834644Y-77622797D01*
X112834644Y-77622797D02*
X112901311Y-77622797D01*
X112901311Y-78322797D02*
X112901311Y-77922797D01*
X112901311Y-78122797D02*
X112201311Y-78122797D01*
X112201311Y-78122797D02*
X112301311Y-78056130D01*
X112301311Y-78056130D02*
X112367978Y-77989464D01*
X112367978Y-77989464D02*
X112401311Y-77922797D01*
X112434644Y-78556131D02*
X112901311Y-78722797D01*
X112901311Y-78722797D02*
X112434644Y-78889464D01*
X113661605Y-74556131D02*
X113694939Y-74656131D01*
X113694939Y-74656131D02*
X113728272Y-74689464D01*
X113728272Y-74689464D02*
X113794939Y-74722797D01*
X113794939Y-74722797D02*
X113894939Y-74722797D01*
X113894939Y-74722797D02*
X113961605Y-74689464D01*
X113961605Y-74689464D02*
X113994939Y-74656131D01*
X113994939Y-74656131D02*
X114028272Y-74589464D01*
X114028272Y-74589464D02*
X114028272Y-74322797D01*
X114028272Y-74322797D02*
X113328272Y-74322797D01*
X113328272Y-74322797D02*
X113328272Y-74556131D01*
X113328272Y-74556131D02*
X113361605Y-74622797D01*
X113361605Y-74622797D02*
X113394939Y-74656131D01*
X113394939Y-74656131D02*
X113461605Y-74689464D01*
X113461605Y-74689464D02*
X113528272Y-74689464D01*
X113528272Y-74689464D02*
X113594939Y-74656131D01*
X113594939Y-74656131D02*
X113628272Y-74622797D01*
X113628272Y-74622797D02*
X113661605Y-74556131D01*
X113661605Y-74556131D02*
X113661605Y-74322797D01*
X114028272Y-75022797D02*
X113561605Y-75022797D01*
X113694939Y-75022797D02*
X113628272Y-75056131D01*
X113628272Y-75056131D02*
X113594939Y-75089464D01*
X113594939Y-75089464D02*
X113561605Y-75156131D01*
X113561605Y-75156131D02*
X113561605Y-75222797D01*
X113994939Y-75722797D02*
X114028272Y-75656130D01*
X114028272Y-75656130D02*
X114028272Y-75522797D01*
X114028272Y-75522797D02*
X113994939Y-75456130D01*
X113994939Y-75456130D02*
X113928272Y-75422797D01*
X113928272Y-75422797D02*
X113661605Y-75422797D01*
X113661605Y-75422797D02*
X113594939Y-75456130D01*
X113594939Y-75456130D02*
X113561605Y-75522797D01*
X113561605Y-75522797D02*
X113561605Y-75656130D01*
X113561605Y-75656130D02*
X113594939Y-75722797D01*
X113594939Y-75722797D02*
X113661605Y-75756130D01*
X113661605Y-75756130D02*
X113728272Y-75756130D01*
X113728272Y-75756130D02*
X113794939Y-75422797D01*
X114028272Y-76356130D02*
X113661605Y-76356130D01*
X113661605Y-76356130D02*
X113594939Y-76322797D01*
X113594939Y-76322797D02*
X113561605Y-76256130D01*
X113561605Y-76256130D02*
X113561605Y-76122797D01*
X113561605Y-76122797D02*
X113594939Y-76056130D01*
X113994939Y-76356130D02*
X114028272Y-76289464D01*
X114028272Y-76289464D02*
X114028272Y-76122797D01*
X114028272Y-76122797D02*
X113994939Y-76056130D01*
X113994939Y-76056130D02*
X113928272Y-76022797D01*
X113928272Y-76022797D02*
X113861605Y-76022797D01*
X113861605Y-76022797D02*
X113794939Y-76056130D01*
X113794939Y-76056130D02*
X113761605Y-76122797D01*
X113761605Y-76122797D02*
X113761605Y-76289464D01*
X113761605Y-76289464D02*
X113728272Y-76356130D01*
X114028272Y-76989463D02*
X113328272Y-76989463D01*
X113994939Y-76989463D02*
X114028272Y-76922797D01*
X114028272Y-76922797D02*
X114028272Y-76789463D01*
X114028272Y-76789463D02*
X113994939Y-76722797D01*
X113994939Y-76722797D02*
X113961605Y-76689463D01*
X113961605Y-76689463D02*
X113894939Y-76656130D01*
X113894939Y-76656130D02*
X113694939Y-76656130D01*
X113694939Y-76656130D02*
X113628272Y-76689463D01*
X113628272Y-76689463D02*
X113594939Y-76722797D01*
X113594939Y-76722797D02*
X113561605Y-76789463D01*
X113561605Y-76789463D02*
X113561605Y-76922797D01*
X113561605Y-76922797D02*
X113594939Y-76989463D01*
X114028272Y-77322796D02*
X113328272Y-77322796D01*
X113594939Y-77322796D02*
X113561605Y-77389463D01*
X113561605Y-77389463D02*
X113561605Y-77522796D01*
X113561605Y-77522796D02*
X113594939Y-77589463D01*
X113594939Y-77589463D02*
X113628272Y-77622796D01*
X113628272Y-77622796D02*
X113694939Y-77656130D01*
X113694939Y-77656130D02*
X113894939Y-77656130D01*
X113894939Y-77656130D02*
X113961605Y-77622796D01*
X113961605Y-77622796D02*
X113994939Y-77589463D01*
X113994939Y-77589463D02*
X114028272Y-77522796D01*
X114028272Y-77522796D02*
X114028272Y-77389463D01*
X114028272Y-77389463D02*
X113994939Y-77322796D01*
X114028272Y-78056129D02*
X113994939Y-77989463D01*
X113994939Y-77989463D02*
X113961605Y-77956129D01*
X113961605Y-77956129D02*
X113894939Y-77922796D01*
X113894939Y-77922796D02*
X113694939Y-77922796D01*
X113694939Y-77922796D02*
X113628272Y-77956129D01*
X113628272Y-77956129D02*
X113594939Y-77989463D01*
X113594939Y-77989463D02*
X113561605Y-78056129D01*
X113561605Y-78056129D02*
X113561605Y-78156129D01*
X113561605Y-78156129D02*
X113594939Y-78222796D01*
X113594939Y-78222796D02*
X113628272Y-78256129D01*
X113628272Y-78256129D02*
X113694939Y-78289463D01*
X113694939Y-78289463D02*
X113894939Y-78289463D01*
X113894939Y-78289463D02*
X113961605Y-78256129D01*
X113961605Y-78256129D02*
X113994939Y-78222796D01*
X113994939Y-78222796D02*
X114028272Y-78156129D01*
X114028272Y-78156129D02*
X114028272Y-78056129D01*
X114028272Y-78889462D02*
X113661605Y-78889462D01*
X113661605Y-78889462D02*
X113594939Y-78856129D01*
X113594939Y-78856129D02*
X113561605Y-78789462D01*
X113561605Y-78789462D02*
X113561605Y-78656129D01*
X113561605Y-78656129D02*
X113594939Y-78589462D01*
X113994939Y-78889462D02*
X114028272Y-78822796D01*
X114028272Y-78822796D02*
X114028272Y-78656129D01*
X114028272Y-78656129D02*
X113994939Y-78589462D01*
X113994939Y-78589462D02*
X113928272Y-78556129D01*
X113928272Y-78556129D02*
X113861605Y-78556129D01*
X113861605Y-78556129D02*
X113794939Y-78589462D01*
X113794939Y-78589462D02*
X113761605Y-78656129D01*
X113761605Y-78656129D02*
X113761605Y-78822796D01*
X113761605Y-78822796D02*
X113728272Y-78889462D01*
X114028272Y-79222795D02*
X113561605Y-79222795D01*
X113694939Y-79222795D02*
X113628272Y-79256129D01*
X113628272Y-79256129D02*
X113594939Y-79289462D01*
X113594939Y-79289462D02*
X113561605Y-79356129D01*
X113561605Y-79356129D02*
X113561605Y-79422795D01*
X114028272Y-79956128D02*
X113328272Y-79956128D01*
X113994939Y-79956128D02*
X114028272Y-79889462D01*
X114028272Y-79889462D02*
X114028272Y-79756128D01*
X114028272Y-79756128D02*
X113994939Y-79689462D01*
X113994939Y-79689462D02*
X113961605Y-79656128D01*
X113961605Y-79656128D02*
X113894939Y-79622795D01*
X113894939Y-79622795D02*
X113694939Y-79622795D01*
X113694939Y-79622795D02*
X113628272Y-79656128D01*
X113628272Y-79656128D02*
X113594939Y-79689462D01*
X113594939Y-79689462D02*
X113561605Y-79756128D01*
X113561605Y-79756128D02*
X113561605Y-79889462D01*
X113561605Y-79889462D02*
X113594939Y-79956128D01*
X115155233Y-74322797D02*
X114455233Y-74322797D01*
X114455233Y-74322797D02*
X114455233Y-74589464D01*
X114455233Y-74589464D02*
X114488566Y-74656131D01*
X114488566Y-74656131D02*
X114521900Y-74689464D01*
X114521900Y-74689464D02*
X114588566Y-74722797D01*
X114588566Y-74722797D02*
X114688566Y-74722797D01*
X114688566Y-74722797D02*
X114755233Y-74689464D01*
X114755233Y-74689464D02*
X114788566Y-74656131D01*
X114788566Y-74656131D02*
X114821900Y-74589464D01*
X114821900Y-74589464D02*
X114821900Y-74322797D01*
X115155233Y-75122797D02*
X115121900Y-75056131D01*
X115121900Y-75056131D02*
X115088566Y-75022797D01*
X115088566Y-75022797D02*
X115021900Y-74989464D01*
X115021900Y-74989464D02*
X114821900Y-74989464D01*
X114821900Y-74989464D02*
X114755233Y-75022797D01*
X114755233Y-75022797D02*
X114721900Y-75056131D01*
X114721900Y-75056131D02*
X114688566Y-75122797D01*
X114688566Y-75122797D02*
X114688566Y-75222797D01*
X114688566Y-75222797D02*
X114721900Y-75289464D01*
X114721900Y-75289464D02*
X114755233Y-75322797D01*
X114755233Y-75322797D02*
X114821900Y-75356131D01*
X114821900Y-75356131D02*
X115021900Y-75356131D01*
X115021900Y-75356131D02*
X115088566Y-75322797D01*
X115088566Y-75322797D02*
X115121900Y-75289464D01*
X115121900Y-75289464D02*
X115155233Y-75222797D01*
X115155233Y-75222797D02*
X115155233Y-75122797D01*
X114688566Y-75589464D02*
X115155233Y-75722797D01*
X115155233Y-75722797D02*
X114821900Y-75856130D01*
X114821900Y-75856130D02*
X115155233Y-75989464D01*
X115155233Y-75989464D02*
X114688566Y-76122797D01*
X115121900Y-76656130D02*
X115155233Y-76589463D01*
X115155233Y-76589463D02*
X115155233Y-76456130D01*
X115155233Y-76456130D02*
X115121900Y-76389463D01*
X115121900Y-76389463D02*
X115055233Y-76356130D01*
X115055233Y-76356130D02*
X114788566Y-76356130D01*
X114788566Y-76356130D02*
X114721900Y-76389463D01*
X114721900Y-76389463D02*
X114688566Y-76456130D01*
X114688566Y-76456130D02*
X114688566Y-76589463D01*
X114688566Y-76589463D02*
X114721900Y-76656130D01*
X114721900Y-76656130D02*
X114788566Y-76689463D01*
X114788566Y-76689463D02*
X114855233Y-76689463D01*
X114855233Y-76689463D02*
X114921900Y-76356130D01*
X115155233Y-76989463D02*
X114688566Y-76989463D01*
X114821900Y-76989463D02*
X114755233Y-77022797D01*
X114755233Y-77022797D02*
X114721900Y-77056130D01*
X114721900Y-77056130D02*
X114688566Y-77122797D01*
X114688566Y-77122797D02*
X114688566Y-77189463D01*
X115221900Y-77256130D02*
X115221900Y-77789463D01*
X115121900Y-77922796D02*
X115155233Y-78022796D01*
X115155233Y-78022796D02*
X115155233Y-78189463D01*
X115155233Y-78189463D02*
X115121900Y-78256129D01*
X115121900Y-78256129D02*
X115088566Y-78289463D01*
X115088566Y-78289463D02*
X115021900Y-78322796D01*
X115021900Y-78322796D02*
X114955233Y-78322796D01*
X114955233Y-78322796D02*
X114888566Y-78289463D01*
X114888566Y-78289463D02*
X114855233Y-78256129D01*
X114855233Y-78256129D02*
X114821900Y-78189463D01*
X114821900Y-78189463D02*
X114788566Y-78056129D01*
X114788566Y-78056129D02*
X114755233Y-77989463D01*
X114755233Y-77989463D02*
X114721900Y-77956129D01*
X114721900Y-77956129D02*
X114655233Y-77922796D01*
X114655233Y-77922796D02*
X114588566Y-77922796D01*
X114588566Y-77922796D02*
X114521900Y-77956129D01*
X114521900Y-77956129D02*
X114488566Y-77989463D01*
X114488566Y-77989463D02*
X114455233Y-78056129D01*
X114455233Y-78056129D02*
X114455233Y-78222796D01*
X114455233Y-78222796D02*
X114488566Y-78322796D01*
X114688566Y-78922796D02*
X115155233Y-78922796D01*
X114688566Y-78622796D02*
X115055233Y-78622796D01*
X115055233Y-78622796D02*
X115121900Y-78656130D01*
X115121900Y-78656130D02*
X115155233Y-78722796D01*
X115155233Y-78722796D02*
X115155233Y-78822796D01*
X115155233Y-78822796D02*
X115121900Y-78889463D01*
X115121900Y-78889463D02*
X115088566Y-78922796D01*
X114688566Y-79256129D02*
X115388566Y-79256129D01*
X114721900Y-79256129D02*
X114688566Y-79322796D01*
X114688566Y-79322796D02*
X114688566Y-79456129D01*
X114688566Y-79456129D02*
X114721900Y-79522796D01*
X114721900Y-79522796D02*
X114755233Y-79556129D01*
X114755233Y-79556129D02*
X114821900Y-79589463D01*
X114821900Y-79589463D02*
X115021900Y-79589463D01*
X115021900Y-79589463D02*
X115088566Y-79556129D01*
X115088566Y-79556129D02*
X115121900Y-79522796D01*
X115121900Y-79522796D02*
X115155233Y-79456129D01*
X115155233Y-79456129D02*
X115155233Y-79322796D01*
X115155233Y-79322796D02*
X115121900Y-79256129D01*
X114688566Y-79889462D02*
X115388566Y-79889462D01*
X114721900Y-79889462D02*
X114688566Y-79956129D01*
X114688566Y-79956129D02*
X114688566Y-80089462D01*
X114688566Y-80089462D02*
X114721900Y-80156129D01*
X114721900Y-80156129D02*
X114755233Y-80189462D01*
X114755233Y-80189462D02*
X114821900Y-80222796D01*
X114821900Y-80222796D02*
X115021900Y-80222796D01*
X115021900Y-80222796D02*
X115088566Y-80189462D01*
X115088566Y-80189462D02*
X115121900Y-80156129D01*
X115121900Y-80156129D02*
X115155233Y-80089462D01*
X115155233Y-80089462D02*
X115155233Y-79956129D01*
X115155233Y-79956129D02*
X115121900Y-79889462D01*
X115155233Y-80622795D02*
X115121900Y-80556129D01*
X115121900Y-80556129D02*
X115055233Y-80522795D01*
X115055233Y-80522795D02*
X114455233Y-80522795D01*
X114688566Y-80822796D02*
X115155233Y-80989462D01*
X114688566Y-81156129D02*
X115155233Y-80989462D01*
X115155233Y-80989462D02*
X115321900Y-80922796D01*
X115321900Y-80922796D02*
X115355233Y-80889462D01*
X115355233Y-80889462D02*
X115388566Y-80822796D01*
M02*
