%TF.GenerationSoftware,KiCad,Pcbnew,9.0.7*%
%TF.CreationDate,2026-02-03T15:10:39+02:00*%
%TF.ProjectId,Breadboard_Power_Supply,42726561-6462-46f6-9172-645f506f7765,2*%
%TF.SameCoordinates,Original*%
%TF.FileFunction,Plated,1,2,PTH,Mixed*%
%TF.FilePolarity,Positive*%
%FSLAX46Y46*%
G04 Gerber Fmt 4.6, Leading zero omitted, Abs format (unit mm)*
G04 Created by KiCad (PCBNEW 9.0.7) date 2026-02-03 15:10:39*
%MOMM*%
%LPD*%
G01*
G04 APERTURE LIST*
%TA.AperFunction,ViaDrill*%
%ADD10C,0.300000*%
%TD*%
%TA.AperFunction,ViaDrill*%
%ADD11C,0.500000*%
%TD*%
%TA.AperFunction,ComponentDrill*%
%ADD12C,0.700000*%
%TD*%
%TA.AperFunction,ComponentDrill*%
%ADD13C,0.800000*%
%TD*%
%TA.AperFunction,ComponentDrill*%
%ADD14C,0.900000*%
%TD*%
%TA.AperFunction,ComponentDrill*%
%ADD15C,1.000000*%
%TD*%
G04 aperture for slot hole*
%TA.AperFunction,ComponentDrill*%
%ADD16C,1.000000*%
%TD*%
%TA.AperFunction,ComponentDrill*%
%ADD17C,1.100000*%
%TD*%
%TA.AperFunction,ComponentDrill*%
%ADD18C,1.300000*%
%TD*%
%TA.AperFunction,ComponentDrill*%
%ADD19C,1.400000*%
%TD*%
G04 APERTURE END LIST*
D10*
X122061200Y-97078800D03*
D11*
X119913400Y-92252800D03*
D12*
%TO.C,R1*%
X123890000Y-79250000D03*
%TO.C,R2*%
X123890000Y-91000000D03*
%TO.C,R3*%
X123890000Y-95250000D03*
%TO.C,R1*%
X131510000Y-79250000D03*
%TO.C,R2*%
X131510000Y-91000000D03*
%TO.C,R3*%
X131510000Y-95250000D03*
D13*
%TO.C,C3*%
X108750000Y-101000000D03*
%TO.C,C2*%
X110860200Y-65000000D03*
%TO.C,C3*%
X111250000Y-101000000D03*
%TO.C,C2*%
X113360200Y-65000000D03*
%TO.C,C4*%
X114750000Y-101000000D03*
%TO.C,C1*%
X116580600Y-65000000D03*
%TO.C,C4*%
X117250000Y-101000000D03*
%TO.C,C1*%
X119080600Y-65000000D03*
%TO.C,SW1*%
X125710000Y-69723000D03*
X128250000Y-69723000D03*
X130790000Y-69723000D03*
D14*
%TO.C,D2*%
X130250000Y-82980000D03*
X130250000Y-85520000D03*
D15*
%TO.C,J5*%
X114475000Y-57077500D03*
%TO.C,J7*%
X114475000Y-108200630D03*
D16*
%TO.C,J1*%
X115250000Y-84792500D02*
X115250000Y-82792500D01*
D15*
%TO.C,J5*%
X117015000Y-57077500D03*
%TO.C,J7*%
X117015000Y-108200630D03*
D16*
%TO.C,J1*%
X119250000Y-88492500D02*
X117250000Y-88492500D01*
D15*
%TO.C,J5*%
X119555000Y-57077500D03*
%TO.C,J7*%
X119555000Y-108200630D03*
D16*
%TO.C,J1*%
X121250000Y-84792500D02*
X121250000Y-82792500D01*
D15*
%TO.C,J3*%
X137055200Y-57043400D03*
X137055200Y-59583400D03*
%TO.C,J4*%
X137083800Y-105963800D03*
X137083800Y-108503800D03*
D17*
%TO.C,U1*%
X109960000Y-71750000D03*
%TO.C,U2*%
X109960000Y-96195000D03*
%TO.C,U1*%
X112500000Y-71750000D03*
%TO.C,U2*%
X112500000Y-96195000D03*
%TO.C,U1*%
X115040000Y-71750000D03*
%TO.C,U2*%
X115040000Y-96195000D03*
D18*
%TO.C,J6*%
X125510000Y-60604400D03*
%TO.C,J8*%
X125510000Y-104566500D03*
%TO.C,J6*%
X130510000Y-60604400D03*
%TO.C,J8*%
X130510000Y-104566500D03*
D19*
%TO.C,D1*%
X119430800Y-75031600D03*
X132130800Y-75031600D03*
M02*
