%TF.GenerationSoftware,KiCad,Pcbnew,9.0.7*%
%TF.CreationDate,2026-02-03T15:10:29+02:00*%
%TF.ProjectId,Breadboard_Power_Supply,42726561-6462-46f6-9172-645f506f7765,2*%
%TF.SameCoordinates,Original*%
%TF.FileFunction,Copper,L2,Bot*%
%TF.FilePolarity,Positive*%
%FSLAX46Y46*%
G04 Gerber Fmt 4.6, Leading zero omitted, Abs format (unit mm)*
G04 Created by KiCad (PCBNEW 9.0.7) date 2026-02-03 15:10:29*
%MOMM*%
%LPD*%
G01*
G04 APERTURE LIST*
G04 Aperture macros list*
%AMRoundRect*
0 Rectangle with rounded corners*
0 $1 Rounding radius*
0 $2 $3 $4 $5 $6 $7 $8 $9 X,Y pos of 4 corners*
0 Add a 4 corners polygon primitive as box body*
4,1,4,$2,$3,$4,$5,$6,$7,$8,$9,$2,$3,0*
0 Add four circle primitives for the rounded corners*
1,1,$1+$1,$2,$3*
1,1,$1+$1,$4,$5*
1,1,$1+$1,$6,$7*
1,1,$1+$1,$8,$9*
0 Add four rect primitives between the rounded corners*
20,1,$1+$1,$2,$3,$4,$5,0*
20,1,$1+$1,$4,$5,$6,$7,0*
20,1,$1+$1,$6,$7,$8,$9,0*
20,1,$1+$1,$8,$9,$2,$3,0*%
G04 Aperture macros list end*
%TA.AperFunction,ComponentPad*%
%ADD10C,1.400000*%
%TD*%
%TA.AperFunction,ComponentPad*%
%ADD11RoundRect,0.250001X-1.149999X-1.149999X1.149999X-1.149999X1.149999X1.149999X-1.149999X1.149999X0*%
%TD*%
%TA.AperFunction,ComponentPad*%
%ADD12C,2.800000*%
%TD*%
%TA.AperFunction,ComponentPad*%
%ADD13C,1.600000*%
%TD*%
%TA.AperFunction,ComponentPad*%
%ADD14R,1.700000X1.700000*%
%TD*%
%TA.AperFunction,ComponentPad*%
%ADD15C,1.700000*%
%TD*%
%TA.AperFunction,ComponentPad*%
%ADD16R,1.500000X1.500000*%
%TD*%
%TA.AperFunction,ComponentPad*%
%ADD17R,1.905000X2.000000*%
%TD*%
%TA.AperFunction,ComponentPad*%
%ADD18O,1.905000X2.000000*%
%TD*%
%TA.AperFunction,ComponentPad*%
%ADD19R,3.500000X3.500000*%
%TD*%
%TA.AperFunction,ComponentPad*%
%ADD20RoundRect,0.750000X-0.750000X-1.000000X0.750000X-1.000000X0.750000X1.000000X-0.750000X1.000000X0*%
%TD*%
%TA.AperFunction,ComponentPad*%
%ADD21RoundRect,0.875000X-0.875000X-0.875000X0.875000X-0.875000X0.875000X0.875000X-0.875000X0.875000X0*%
%TD*%
%TA.AperFunction,ComponentPad*%
%ADD22RoundRect,0.250000X-1.050000X-1.050000X1.050000X-1.050000X1.050000X1.050000X-1.050000X1.050000X0*%
%TD*%
%TA.AperFunction,ComponentPad*%
%ADD23C,2.600000*%
%TD*%
%TA.AperFunction,ComponentPad*%
%ADD24R,1.800000X1.800000*%
%TD*%
%TA.AperFunction,ComponentPad*%
%ADD25C,1.800000*%
%TD*%
%TA.AperFunction,ComponentPad*%
%ADD26RoundRect,0.250000X1.050000X1.050000X-1.050000X1.050000X-1.050000X-1.050000X1.050000X-1.050000X0*%
%TD*%
%TA.AperFunction,ViaPad*%
%ADD27C,0.900000*%
%TD*%
%TA.AperFunction,ViaPad*%
%ADD28C,0.600000*%
%TD*%
%TA.AperFunction,Conductor*%
%ADD29C,0.350000*%
%TD*%
%TA.AperFunction,Conductor*%
%ADD30C,0.200000*%
%TD*%
G04 APERTURE END LIST*
D10*
%TO.P,R3,1*%
%TO.N,Net-(U2-ADJ)*%
X123890000Y-95250000D03*
%TO.P,R3,2*%
%TO.N,/3.3V*%
X131510000Y-95250000D03*
%TD*%
D11*
%TO.P,D1,1,K*%
%TO.N,/12V*%
X119430800Y-75031600D03*
D12*
%TO.P,D1,2,A*%
%TO.N,Net-(D1-A)*%
X132130800Y-75031600D03*
%TD*%
D13*
%TO.P,C2,1*%
%TO.N,/5V*%
X113360200Y-65000000D03*
%TO.P,C2,2*%
%TO.N,GND*%
X110860200Y-65000000D03*
%TD*%
%TO.P,C3,1*%
%TO.N,/3.3V*%
X111250000Y-101000000D03*
%TO.P,C3,2*%
%TO.N,GND*%
X108750000Y-101000000D03*
%TD*%
D14*
%TO.P,J7,1,Pin_1*%
%TO.N,/3.3V*%
X114475000Y-108200630D03*
D15*
%TO.P,J7,2,Pin_2*%
%TO.N,/PWR_OUTPUT_BOT*%
X117015000Y-108200630D03*
%TO.P,J7,3,Pin_3*%
%TO.N,/5V*%
X119555000Y-108200630D03*
%TD*%
D14*
%TO.P,J3,1,Pin_1*%
%TO.N,GND*%
X137055200Y-57043400D03*
D15*
%TO.P,J3,2,Pin_2*%
%TO.N,/PWR_OUTPUT_TOP*%
X137055200Y-59583400D03*
%TD*%
D13*
%TO.P,C4,1*%
%TO.N,/12V*%
X114750000Y-101000000D03*
%TO.P,C4,2*%
%TO.N,GND*%
X117250000Y-101000000D03*
%TD*%
D16*
%TO.P,SW1,1,B*%
%TO.N,/PWR_INPUT*%
X128250000Y-69723000D03*
D13*
%TO.P,SW1,2,C*%
%TO.N,unconnected-(SW1-C-Pad2)*%
X125710000Y-69723000D03*
%TO.P,SW1,3,A*%
%TO.N,Net-(D1-A)*%
X130790000Y-69723000D03*
%TD*%
D17*
%TO.P,U1,1,VI*%
%TO.N,/12V*%
X115040000Y-71750000D03*
D18*
%TO.P,U1,2,GND*%
%TO.N,GND*%
X112500000Y-71750000D03*
%TO.P,U1,3,VO*%
%TO.N,/5V*%
X109960000Y-71750000D03*
%TD*%
D19*
%TO.P,J1,1*%
%TO.N,/PWR_INPUT*%
X121250000Y-83792500D03*
D20*
%TO.P,J1,2*%
%TO.N,GND*%
X115250000Y-83792500D03*
D21*
%TO.P,J1,3*%
X118250000Y-88492500D03*
%TD*%
D13*
%TO.P,C1,1*%
%TO.N,/12V*%
X119080600Y-65000000D03*
%TO.P,C1,2*%
%TO.N,GND*%
X116580600Y-65000000D03*
%TD*%
D10*
%TO.P,R2,1*%
%TO.N,GND*%
X123890000Y-91000000D03*
%TO.P,R2,2*%
%TO.N,Net-(U2-ADJ)*%
X131510000Y-91000000D03*
%TD*%
D22*
%TO.P,J8,1,Pin_1*%
%TO.N,/PWR_OUTPUT_BOT*%
X125510000Y-104566500D03*
D23*
%TO.P,J8,2,Pin_2*%
%TO.N,GND*%
X130510000Y-104566500D03*
%TD*%
D14*
%TO.P,J4,1,Pin_1*%
%TO.N,GND*%
X137083800Y-105963800D03*
D15*
%TO.P,J4,2,Pin_2*%
%TO.N,/PWR_OUTPUT_BOT*%
X137083800Y-108503800D03*
%TD*%
D14*
%TO.P,J5,1,Pin_1*%
%TO.N,/3.3V*%
X114475000Y-57077500D03*
D15*
%TO.P,J5,2,Pin_2*%
%TO.N,/PWR_OUTPUT_TOP*%
X117015000Y-57077500D03*
%TO.P,J5,3,Pin_3*%
%TO.N,/5V*%
X119555000Y-57077500D03*
%TD*%
D17*
%TO.P,U2,1,ADJ*%
%TO.N,Net-(U2-ADJ)*%
X109960000Y-96195000D03*
D18*
%TO.P,U2,2,VO*%
%TO.N,/3.3V*%
X112500000Y-96195000D03*
%TO.P,U2,3,VI*%
%TO.N,/12V*%
X115040000Y-96195000D03*
%TD*%
D24*
%TO.P,D2,1,K*%
%TO.N,GND*%
X130250000Y-85520000D03*
D25*
%TO.P,D2,2,A*%
%TO.N,Net-(D2-A)*%
X130250000Y-82980000D03*
%TD*%
D10*
%TO.P,R1,1*%
%TO.N,Net-(D2-A)*%
X123890000Y-79250000D03*
%TO.P,R1,2*%
%TO.N,/12V*%
X131510000Y-79250000D03*
%TD*%
D26*
%TO.P,J6,1,Pin_1*%
%TO.N,/PWR_OUTPUT_TOP*%
X130510000Y-60604400D03*
D23*
%TO.P,J6,2,Pin_2*%
%TO.N,GND*%
X125510000Y-60604400D03*
%TD*%
D27*
%TO.N,/12V*%
X119913400Y-92252800D03*
D28*
%TO.N,Net-(U2-ADJ)*%
X122061200Y-97078800D03*
%TD*%
D29*
%TO.N,/12V*%
X119913400Y-92252800D02*
X115971200Y-96195000D01*
X115971200Y-96195000D02*
X115040000Y-96195000D01*
%TO.N,/3.3V*%
X131510000Y-95250000D02*
X127425630Y-95250000D01*
X127425630Y-95250000D02*
X114475000Y-108200630D01*
%TO.N,/PWR_INPUT*%
X128250000Y-71571800D02*
X128250000Y-69723000D01*
X121250000Y-83792500D02*
X121250000Y-78571800D01*
X121250000Y-78571800D02*
X128250000Y-71571800D01*
D30*
%TO.N,Net-(U2-ADJ)*%
X120613400Y-98526600D02*
X112291600Y-98526600D01*
X112291600Y-98526600D02*
X109960000Y-96195000D01*
X122061200Y-97078800D02*
X120613400Y-98526600D01*
%TD*%
%TA.AperFunction,Conductor*%
%TO.N,GND*%
G36*
X138064703Y-55389901D02*
G01*
X138124502Y-55389900D01*
X138136656Y-55390497D01*
X138145328Y-55391351D01*
X138274463Y-55404069D01*
X138298289Y-55408808D01*
X138424950Y-55447230D01*
X138447402Y-55456529D01*
X138564053Y-55518882D01*
X138564124Y-55518920D01*
X138584335Y-55532425D01*
X138686638Y-55616384D01*
X138703827Y-55633573D01*
X138785758Y-55733409D01*
X138787784Y-55735877D01*
X138801289Y-55756088D01*
X138863600Y-55872671D01*
X138863678Y-55872816D01*
X138872976Y-55895267D01*
X138900246Y-55985169D01*
X138911393Y-56021918D01*
X138916134Y-56045759D01*
X138928903Y-56175435D01*
X138929500Y-56187586D01*
X138929500Y-60327601D01*
X138929265Y-60331193D01*
X138929265Y-60397306D01*
X138928668Y-60409461D01*
X138915164Y-60546556D01*
X138910422Y-60570396D01*
X138872211Y-60696359D01*
X138862909Y-60718815D01*
X138800854Y-60834908D01*
X138787349Y-60855119D01*
X138703844Y-60956868D01*
X138686655Y-60974057D01*
X138584897Y-61057565D01*
X138564688Y-61071067D01*
X138493180Y-61109288D01*
X138448597Y-61133117D01*
X138426139Y-61142418D01*
X138300173Y-61180627D01*
X138276331Y-61185369D01*
X138138887Y-61198902D01*
X138126734Y-61199499D01*
X138075375Y-61199498D01*
X138067286Y-61199498D01*
X138067285Y-61199498D01*
X138058662Y-61199498D01*
X138058634Y-61199500D01*
X135465892Y-61199500D01*
X135400000Y-61199500D01*
X135281989Y-61199500D01*
X135281983Y-61199500D01*
X135281979Y-61199501D01*
X135047989Y-61230306D01*
X134820006Y-61291394D01*
X134601954Y-61381714D01*
X134601943Y-61381719D01*
X134397545Y-61499730D01*
X134210302Y-61643406D01*
X134210295Y-61643412D01*
X134043412Y-61810295D01*
X134043406Y-61810302D01*
X133899730Y-61997545D01*
X133781719Y-62201943D01*
X133781714Y-62201954D01*
X133691394Y-62420006D01*
X133630306Y-62647989D01*
X133599501Y-62881979D01*
X133599500Y-62881995D01*
X133599500Y-73513223D01*
X133579815Y-73580262D01*
X133527011Y-73626017D01*
X133457853Y-73635961D01*
X133394297Y-73606936D01*
X133387819Y-73600904D01*
X133386581Y-73599666D01*
X133386574Y-73599660D01*
X133188926Y-73448000D01*
X132973176Y-73323437D01*
X132973161Y-73323430D01*
X132743007Y-73228098D01*
X132614994Y-73193797D01*
X132502365Y-73163618D01*
X132502364Y-73163617D01*
X132502361Y-73163617D01*
X132255375Y-73131101D01*
X132255370Y-73131100D01*
X132255365Y-73131100D01*
X132006235Y-73131100D01*
X132006229Y-73131100D01*
X132006224Y-73131101D01*
X131759238Y-73163617D01*
X131518592Y-73228098D01*
X131288438Y-73323430D01*
X131288423Y-73323437D01*
X131072673Y-73448000D01*
X130875025Y-73599660D01*
X130875018Y-73599666D01*
X130698866Y-73775818D01*
X130698860Y-73775825D01*
X130547200Y-73973473D01*
X130422637Y-74189223D01*
X130422630Y-74189238D01*
X130327298Y-74419392D01*
X130262817Y-74660038D01*
X130230301Y-74907024D01*
X130230300Y-74907041D01*
X130230300Y-75156158D01*
X130230301Y-75156175D01*
X130262817Y-75403161D01*
X130327298Y-75643807D01*
X130422630Y-75873961D01*
X130422637Y-75873976D01*
X130547200Y-76089726D01*
X130698860Y-76287374D01*
X130698866Y-76287381D01*
X130875018Y-76463533D01*
X130875025Y-76463539D01*
X131072673Y-76615199D01*
X131288423Y-76739762D01*
X131288438Y-76739769D01*
X131387625Y-76780853D01*
X131518593Y-76835102D01*
X131759235Y-76899582D01*
X132006235Y-76932100D01*
X132006242Y-76932100D01*
X132255358Y-76932100D01*
X132255365Y-76932100D01*
X132502365Y-76899582D01*
X132743007Y-76835102D01*
X132973173Y-76739764D01*
X133188927Y-76615199D01*
X133386576Y-76463538D01*
X133387195Y-76462919D01*
X133387819Y-76462296D01*
X133388279Y-76462044D01*
X133389629Y-76460861D01*
X133389893Y-76461163D01*
X133449142Y-76428811D01*
X133518834Y-76433795D01*
X133574767Y-76475667D01*
X133599184Y-76541131D01*
X133599500Y-76549977D01*
X133599500Y-102618004D01*
X133599501Y-102618020D01*
X133630306Y-102852010D01*
X133691394Y-103079993D01*
X133781714Y-103298045D01*
X133781719Y-103298056D01*
X133835502Y-103391209D01*
X133899727Y-103502450D01*
X133899729Y-103502453D01*
X133899730Y-103502454D01*
X134043406Y-103689697D01*
X134043412Y-103689704D01*
X134210295Y-103856587D01*
X134210301Y-103856592D01*
X134397550Y-104000273D01*
X134528918Y-104076118D01*
X134601943Y-104118280D01*
X134601948Y-104118282D01*
X134601951Y-104118284D01*
X134820007Y-104208606D01*
X135047986Y-104269693D01*
X135281989Y-104300500D01*
X135334108Y-104300500D01*
X138048636Y-104300500D01*
X138048664Y-104300501D01*
X138057284Y-104300500D01*
X138057288Y-104300502D01*
X138117092Y-104300500D01*
X138129242Y-104301096D01*
X138266340Y-104314596D01*
X138290181Y-104319338D01*
X138416153Y-104357549D01*
X138438603Y-104366846D01*
X138554715Y-104428907D01*
X138574917Y-104442406D01*
X138676681Y-104525919D01*
X138693865Y-104543101D01*
X138777383Y-104644866D01*
X138790883Y-104665069D01*
X138852945Y-104781177D01*
X138862242Y-104803623D01*
X138882896Y-104871706D01*
X138900457Y-104929597D01*
X138905199Y-104953437D01*
X138918670Y-105090202D01*
X138919267Y-105102357D01*
X138919267Y-105168840D01*
X138919500Y-105172393D01*
X138919500Y-109343907D01*
X138918903Y-109356061D01*
X138905527Y-109491868D01*
X138900785Y-109515709D01*
X138862947Y-109640444D01*
X138853644Y-109662903D01*
X138792202Y-109777852D01*
X138778697Y-109798063D01*
X138696008Y-109898820D01*
X138678820Y-109916008D01*
X138578063Y-109998697D01*
X138557852Y-110012202D01*
X138442903Y-110073644D01*
X138420444Y-110082947D01*
X138295709Y-110120785D01*
X138271868Y-110125527D01*
X138136061Y-110138903D01*
X138123907Y-110139500D01*
X108403693Y-110139500D01*
X108391539Y-110138903D01*
X108254249Y-110125381D01*
X108230407Y-110120638D01*
X108104246Y-110082367D01*
X108081791Y-110073066D01*
X108010076Y-110034734D01*
X107965526Y-110010921D01*
X107945316Y-109997417D01*
X107843406Y-109913783D01*
X107826216Y-109896593D01*
X107742582Y-109794683D01*
X107729078Y-109774473D01*
X107666931Y-109658204D01*
X107657632Y-109635753D01*
X107619361Y-109509592D01*
X107614619Y-109485755D01*
X107603554Y-109373416D01*
X107601097Y-109348460D01*
X107600500Y-109336307D01*
X107600500Y-109141500D01*
X108598500Y-109141500D01*
X109350500Y-109141500D01*
X110348500Y-109141500D01*
X111850500Y-109141500D01*
X111850500Y-108137900D01*
X110348500Y-108137900D01*
X110348500Y-109141500D01*
X109350500Y-109141500D01*
X109350500Y-108137900D01*
X108598500Y-108137900D01*
X108598500Y-109141500D01*
X107600500Y-109141500D01*
X107600500Y-107302765D01*
X113124500Y-107302765D01*
X113124500Y-109098500D01*
X113124501Y-109098506D01*
X113130908Y-109158113D01*
X113181202Y-109292958D01*
X113181206Y-109292965D01*
X113267452Y-109408174D01*
X113267455Y-109408177D01*
X113382664Y-109494423D01*
X113382671Y-109494427D01*
X113517517Y-109544721D01*
X113517516Y-109544721D01*
X113524444Y-109545465D01*
X113577127Y-109551130D01*
X115372872Y-109551129D01*
X115432483Y-109544721D01*
X115567331Y-109494426D01*
X115682546Y-109408176D01*
X115768796Y-109292961D01*
X115817810Y-109161546D01*
X115859681Y-109105614D01*
X115925145Y-109081196D01*
X115993418Y-109096047D01*
X116021673Y-109117199D01*
X116135213Y-109230739D01*
X116307179Y-109355678D01*
X116307181Y-109355679D01*
X116307184Y-109355681D01*
X116496588Y-109452187D01*
X116698757Y-109517876D01*
X116908713Y-109551130D01*
X116908714Y-109551130D01*
X117121286Y-109551130D01*
X117121287Y-109551130D01*
X117331243Y-109517876D01*
X117533412Y-109452187D01*
X117722816Y-109355681D01*
X117809138Y-109292965D01*
X117894786Y-109230739D01*
X117894788Y-109230736D01*
X117894792Y-109230734D01*
X118045104Y-109080422D01*
X118045106Y-109080418D01*
X118045109Y-109080416D01*
X118170048Y-108908450D01*
X118170047Y-108908450D01*
X118170051Y-108908446D01*
X118174514Y-108899684D01*
X118222488Y-108848889D01*
X118290308Y-108832093D01*
X118356444Y-108854629D01*
X118395486Y-108899686D01*
X118399951Y-108908450D01*
X118524890Y-109080416D01*
X118675213Y-109230739D01*
X118847179Y-109355678D01*
X118847181Y-109355679D01*
X118847184Y-109355681D01*
X119036588Y-109452187D01*
X119238757Y-109517876D01*
X119448713Y-109551130D01*
X119448714Y-109551130D01*
X119661286Y-109551130D01*
X119661287Y-109551130D01*
X119871243Y-109517876D01*
X120073412Y-109452187D01*
X120262816Y-109355681D01*
X120349138Y-109292965D01*
X120434786Y-109230739D01*
X120434788Y-109230736D01*
X120434792Y-109230734D01*
X120524026Y-109141500D01*
X122848500Y-109141500D01*
X124350500Y-109141500D01*
X125348500Y-109141500D01*
X126850500Y-109141500D01*
X127848500Y-109141500D01*
X129350500Y-109141500D01*
X130348500Y-109141500D01*
X131850500Y-109141500D01*
X132848500Y-109141500D01*
X134350500Y-109141500D01*
X134350500Y-108397513D01*
X135733300Y-108397513D01*
X135733300Y-108610087D01*
X135766554Y-108820043D01*
X135795279Y-108908450D01*
X135832244Y-109022214D01*
X135928751Y-109211620D01*
X136053690Y-109383586D01*
X136204013Y-109533909D01*
X136375979Y-109658848D01*
X136375981Y-109658849D01*
X136375984Y-109658851D01*
X136565388Y-109755357D01*
X136767557Y-109821046D01*
X136977513Y-109854300D01*
X136977514Y-109854300D01*
X137190086Y-109854300D01*
X137190087Y-109854300D01*
X137400043Y-109821046D01*
X137602212Y-109755357D01*
X137791616Y-109658851D01*
X137823408Y-109635753D01*
X137963586Y-109533909D01*
X137963588Y-109533906D01*
X137963592Y-109533904D01*
X138113904Y-109383592D01*
X138113906Y-109383588D01*
X138113909Y-109383586D01*
X138238848Y-109211620D01*
X138238847Y-109211620D01*
X138238851Y-109211616D01*
X138335357Y-109022212D01*
X138401046Y-108820043D01*
X138434300Y-108610087D01*
X138434300Y-108397513D01*
X138401046Y-108187557D01*
X138335357Y-107985388D01*
X138238851Y-107795984D01*
X138238849Y-107795981D01*
X138238848Y-107795979D01*
X138113909Y-107624013D01*
X137999981Y-107510085D01*
X137966496Y-107448762D01*
X137971480Y-107379070D01*
X138013352Y-107323137D01*
X138044329Y-107306222D01*
X138175886Y-107257154D01*
X138175893Y-107257150D01*
X138290987Y-107170990D01*
X138290990Y-107170987D01*
X138377150Y-107055893D01*
X138377154Y-107055886D01*
X138427396Y-106921179D01*
X138427398Y-106921172D01*
X138433799Y-106861644D01*
X138433800Y-106861627D01*
X138433800Y-106213800D01*
X137516812Y-106213800D01*
X137549725Y-106156793D01*
X137583800Y-106029626D01*
X137583800Y-105897974D01*
X137549725Y-105770807D01*
X137516812Y-105713800D01*
X138433800Y-105713800D01*
X138433800Y-105065972D01*
X138433799Y-105065955D01*
X138427398Y-105006427D01*
X138427396Y-105006420D01*
X138377154Y-104871713D01*
X138377150Y-104871706D01*
X138290990Y-104756612D01*
X138290987Y-104756609D01*
X138175893Y-104670449D01*
X138175886Y-104670445D01*
X138041179Y-104620203D01*
X138041172Y-104620201D01*
X137981644Y-104613800D01*
X137333800Y-104613800D01*
X137333800Y-105530788D01*
X137276793Y-105497875D01*
X137149626Y-105463800D01*
X137017974Y-105463800D01*
X136890807Y-105497875D01*
X136833800Y-105530788D01*
X136833800Y-104613800D01*
X136185955Y-104613800D01*
X136126427Y-104620201D01*
X136126420Y-104620203D01*
X135991713Y-104670445D01*
X135991706Y-104670449D01*
X135876612Y-104756609D01*
X135876609Y-104756612D01*
X135790449Y-104871706D01*
X135790445Y-104871713D01*
X135740203Y-105006420D01*
X135740201Y-105006427D01*
X135733800Y-105065955D01*
X135733800Y-105713800D01*
X136650788Y-105713800D01*
X136617875Y-105770807D01*
X136583800Y-105897974D01*
X136583800Y-106029626D01*
X136617875Y-106156793D01*
X136650788Y-106213800D01*
X135733800Y-106213800D01*
X135733800Y-106861644D01*
X135740201Y-106921172D01*
X135740203Y-106921179D01*
X135790445Y-107055886D01*
X135790449Y-107055893D01*
X135876609Y-107170987D01*
X135876612Y-107170990D01*
X135991706Y-107257150D01*
X135991713Y-107257154D01*
X136123270Y-107306222D01*
X136179204Y-107348093D01*
X136203621Y-107413558D01*
X136188769Y-107481831D01*
X136167619Y-107510085D01*
X136053689Y-107624015D01*
X135928751Y-107795979D01*
X135832244Y-107985385D01*
X135766553Y-108187560D01*
X135747649Y-108306916D01*
X135733300Y-108397513D01*
X134350500Y-108397513D01*
X134350500Y-108137900D01*
X132848500Y-108137900D01*
X132848500Y-109141500D01*
X131850500Y-109141500D01*
X131850500Y-108137900D01*
X130348500Y-108137900D01*
X130348500Y-109141500D01*
X129350500Y-109141500D01*
X129350500Y-108137900D01*
X127848500Y-108137900D01*
X127848500Y-109141500D01*
X126850500Y-109141500D01*
X126850500Y-108137900D01*
X125348500Y-108137900D01*
X125348500Y-109141500D01*
X124350500Y-109141500D01*
X124350500Y-108137900D01*
X122848500Y-108137900D01*
X122848500Y-109141500D01*
X120524026Y-109141500D01*
X120585104Y-109080422D01*
X120585106Y-109080418D01*
X120585109Y-109080416D01*
X120710048Y-108908450D01*
X120710047Y-108908450D01*
X120710051Y-108908446D01*
X120806557Y-108719042D01*
X120872246Y-108516873D01*
X120905500Y-108306917D01*
X120905500Y-108094343D01*
X120872246Y-107884387D01*
X120806557Y-107682218D01*
X120710051Y-107492814D01*
X120710049Y-107492811D01*
X120710048Y-107492809D01*
X120585109Y-107320843D01*
X120434786Y-107170520D01*
X120262820Y-107045581D01*
X120073414Y-106949074D01*
X120073413Y-106949073D01*
X120073412Y-106949073D01*
X119871243Y-106883384D01*
X119871241Y-106883383D01*
X119871240Y-106883383D01*
X119709957Y-106857838D01*
X119661287Y-106850130D01*
X119448713Y-106850130D01*
X119400042Y-106857838D01*
X119238760Y-106883383D01*
X119164724Y-106907439D01*
X119122437Y-106921179D01*
X119036585Y-106949074D01*
X118847179Y-107045581D01*
X118675213Y-107170520D01*
X118524890Y-107320843D01*
X118399949Y-107492812D01*
X118395484Y-107501576D01*
X118347509Y-107552372D01*
X118279688Y-107569166D01*
X118213553Y-107546628D01*
X118174516Y-107501576D01*
X118170050Y-107492812D01*
X118045109Y-107320843D01*
X117894786Y-107170520D01*
X117722820Y-107045581D01*
X117533414Y-106949074D01*
X117533413Y-106949073D01*
X117533412Y-106949073D01*
X117331243Y-106883384D01*
X117331241Y-106883383D01*
X117331240Y-106883383D01*
X117169957Y-106857838D01*
X117121287Y-106850130D01*
X117080162Y-106850130D01*
X117013123Y-106830445D01*
X116967368Y-106777641D01*
X116957424Y-106708483D01*
X116986449Y-106644927D01*
X116992481Y-106638449D01*
X117641835Y-105989095D01*
X120348500Y-105989095D01*
X120400441Y-106005972D01*
X120405037Y-106007566D01*
X120432647Y-106017751D01*
X120437175Y-106019523D01*
X120473392Y-106034521D01*
X120477861Y-106036476D01*
X120504636Y-106048819D01*
X120509019Y-106050944D01*
X120733361Y-106165252D01*
X120737654Y-106167547D01*
X120763350Y-106181937D01*
X120767550Y-106184399D01*
X120800973Y-106204880D01*
X120805073Y-106207504D01*
X120829568Y-106223870D01*
X120833565Y-106226656D01*
X121037269Y-106374655D01*
X121041157Y-106377598D01*
X121064316Y-106395857D01*
X121068081Y-106398947D01*
X121097888Y-106424408D01*
X121101527Y-106427642D01*
X121123132Y-106447616D01*
X121126636Y-106450986D01*
X121304644Y-106628994D01*
X121308014Y-106632498D01*
X121327988Y-106654103D01*
X121331222Y-106657742D01*
X121356683Y-106687549D01*
X121359773Y-106691314D01*
X121378032Y-106714473D01*
X121380975Y-106718361D01*
X121528974Y-106922065D01*
X121531760Y-106926062D01*
X121548126Y-106950557D01*
X121550750Y-106954657D01*
X121571231Y-106988080D01*
X121573693Y-106992280D01*
X121588083Y-107017976D01*
X121590378Y-107022269D01*
X121650314Y-107139900D01*
X121850500Y-107139900D01*
X121850500Y-106800752D01*
X127848500Y-106800752D01*
X127848500Y-107139900D01*
X129350500Y-107139900D01*
X129350500Y-107114752D01*
X129315169Y-107100118D01*
X129311447Y-107098505D01*
X129289091Y-107088376D01*
X129285422Y-107086640D01*
X129256124Y-107072192D01*
X129252517Y-107070340D01*
X129230864Y-107058767D01*
X129227313Y-107056794D01*
X128994683Y-106922483D01*
X128991202Y-106920396D01*
X128970366Y-106907439D01*
X128966960Y-106905243D01*
X128939801Y-106887097D01*
X128936463Y-106884787D01*
X128916504Y-106870485D01*
X128913243Y-106868067D01*
X128645645Y-106662731D01*
X128611774Y-106622808D01*
X128556709Y-106519789D01*
X128453692Y-106464726D01*
X128413768Y-106430854D01*
X128217083Y-106174530D01*
X128183023Y-106277318D01*
X128180556Y-106284096D01*
X128164446Y-106324647D01*
X128161591Y-106331266D01*
X128137044Y-106383912D01*
X128133806Y-106390360D01*
X128113088Y-106428785D01*
X128109481Y-106435032D01*
X127986879Y-106633803D01*
X127982913Y-106639833D01*
X127957872Y-106675593D01*
X127953566Y-106681377D01*
X127917536Y-106726944D01*
X127912898Y-106732471D01*
X127883887Y-106765069D01*
X127878939Y-106770313D01*
X127848500Y-106800752D01*
X121850500Y-106800752D01*
X121850500Y-105637900D01*
X120348500Y-105637900D01*
X120348500Y-105989095D01*
X117641835Y-105989095D01*
X118991030Y-104639900D01*
X120402413Y-104639900D01*
X121850500Y-104639900D01*
X121850500Y-103466483D01*
X123709500Y-103466483D01*
X123709500Y-105666501D01*
X123709501Y-105666518D01*
X123720000Y-105769296D01*
X123720001Y-105769299D01*
X123738122Y-105823983D01*
X123775186Y-105935834D01*
X123867288Y-106085156D01*
X123991344Y-106209212D01*
X124140666Y-106301314D01*
X124307203Y-106356499D01*
X124409991Y-106367000D01*
X126610008Y-106366999D01*
X126712797Y-106356499D01*
X126879334Y-106301314D01*
X127028656Y-106209212D01*
X127152712Y-106085156D01*
X127244814Y-105935834D01*
X127299999Y-105769297D01*
X127310500Y-105666509D01*
X127310499Y-104448514D01*
X128710000Y-104448514D01*
X128710000Y-104684485D01*
X128740799Y-104918414D01*
X128801870Y-105146337D01*
X128892160Y-105364319D01*
X128892165Y-105364328D01*
X129010144Y-105568671D01*
X129010145Y-105568672D01*
X129072721Y-105650223D01*
X129908958Y-104813987D01*
X129933978Y-104874390D01*
X130005112Y-104980851D01*
X130095649Y-105071388D01*
X130202110Y-105142522D01*
X130262511Y-105167541D01*
X129426275Y-106003777D01*
X129507827Y-106066354D01*
X129507828Y-106066355D01*
X129712171Y-106184334D01*
X129712180Y-106184339D01*
X129930163Y-106274629D01*
X129930161Y-106274629D01*
X130158085Y-106335700D01*
X130392014Y-106366499D01*
X130392029Y-106366500D01*
X130627971Y-106366500D01*
X130627985Y-106366499D01*
X130861914Y-106335700D01*
X131089837Y-106274629D01*
X131307819Y-106184339D01*
X131307828Y-106184334D01*
X131436747Y-106109902D01*
X132848500Y-106109902D01*
X132848500Y-107139900D01*
X134350500Y-107139900D01*
X134350500Y-105637900D01*
X133094744Y-105637900D01*
X133043618Y-105761331D01*
X133042005Y-105765053D01*
X133031876Y-105787409D01*
X133030140Y-105791078D01*
X133015692Y-105820376D01*
X133013840Y-105823983D01*
X133002267Y-105845636D01*
X133000294Y-105849187D01*
X132865989Y-106081806D01*
X132863907Y-106085280D01*
X132850965Y-106106095D01*
X132848769Y-106109500D01*
X132848500Y-106109902D01*
X131436747Y-106109902D01*
X131512181Y-106066350D01*
X131593723Y-106003779D01*
X131593723Y-106003776D01*
X130757487Y-105167541D01*
X130817890Y-105142522D01*
X130924351Y-105071388D01*
X131014888Y-104980851D01*
X131086022Y-104874390D01*
X131111041Y-104813987D01*
X131947276Y-105650223D01*
X131947279Y-105650223D01*
X132009850Y-105568681D01*
X132127834Y-105364328D01*
X132127839Y-105364319D01*
X132218129Y-105146337D01*
X132279200Y-104918414D01*
X132309999Y-104684485D01*
X132310000Y-104684471D01*
X132310000Y-104448528D01*
X132309999Y-104448514D01*
X132279200Y-104214585D01*
X132218129Y-103986662D01*
X132127839Y-103768680D01*
X132127834Y-103768671D01*
X132009855Y-103564328D01*
X132009854Y-103564327D01*
X131947277Y-103482775D01*
X131111041Y-104319011D01*
X131086022Y-104258610D01*
X131014888Y-104152149D01*
X130924351Y-104061612D01*
X130817890Y-103990478D01*
X130757488Y-103965458D01*
X131593723Y-103129221D01*
X131512172Y-103066645D01*
X131512171Y-103066644D01*
X131307828Y-102948665D01*
X131307819Y-102948660D01*
X131089836Y-102858370D01*
X131089838Y-102858370D01*
X130861914Y-102797299D01*
X130627985Y-102766500D01*
X130392014Y-102766500D01*
X130158085Y-102797299D01*
X129930162Y-102858370D01*
X129712180Y-102948660D01*
X129712171Y-102948665D01*
X129507828Y-103066644D01*
X129507818Y-103066650D01*
X129426275Y-103129220D01*
X129426275Y-103129221D01*
X130262512Y-103965458D01*
X130202110Y-103990478D01*
X130095649Y-104061612D01*
X130005112Y-104152149D01*
X129933978Y-104258610D01*
X129908958Y-104319012D01*
X129072721Y-103482775D01*
X129072720Y-103482775D01*
X129010150Y-103564318D01*
X129010144Y-103564328D01*
X128892165Y-103768671D01*
X128892160Y-103768680D01*
X128801870Y-103986662D01*
X128740799Y-104214585D01*
X128710000Y-104448514D01*
X127310499Y-104448514D01*
X127310499Y-103466492D01*
X127299999Y-103363703D01*
X127244814Y-103197166D01*
X127152712Y-103047844D01*
X127028656Y-102923788D01*
X126879334Y-102831686D01*
X126712797Y-102776501D01*
X126712795Y-102776500D01*
X126610010Y-102766000D01*
X124409998Y-102766000D01*
X124409981Y-102766001D01*
X124307203Y-102776500D01*
X124307200Y-102776501D01*
X124140668Y-102831685D01*
X124140663Y-102831687D01*
X123991342Y-102923789D01*
X123867289Y-103047842D01*
X123775187Y-103197163D01*
X123775185Y-103197168D01*
X123763029Y-103233853D01*
X123720001Y-103363703D01*
X123720001Y-103363704D01*
X123720000Y-103363704D01*
X123709500Y-103466483D01*
X121850500Y-103466483D01*
X121850500Y-103191813D01*
X120402413Y-104639900D01*
X118991030Y-104639900D01*
X121491031Y-102139900D01*
X122902413Y-102139900D01*
X123373666Y-102139900D01*
X127848500Y-102139900D01*
X129116993Y-102139900D01*
X129227313Y-102076206D01*
X129230864Y-102074233D01*
X129252517Y-102062660D01*
X129256124Y-102060808D01*
X129285422Y-102046360D01*
X129289091Y-102044624D01*
X129311447Y-102034495D01*
X129315168Y-102032882D01*
X129350500Y-102018246D01*
X129350500Y-101769323D01*
X130348500Y-101769323D01*
X130371634Y-101768566D01*
X130375691Y-101768500D01*
X130644309Y-101768500D01*
X130648366Y-101768566D01*
X130672897Y-101769369D01*
X130676948Y-101769568D01*
X130709544Y-101771704D01*
X130713594Y-101772036D01*
X130738025Y-101774443D01*
X130742053Y-101774907D01*
X131008378Y-101809970D01*
X131012393Y-101810566D01*
X131036612Y-101814565D01*
X131040600Y-101815290D01*
X131072637Y-101821662D01*
X131076605Y-101822519D01*
X131100507Y-101828092D01*
X131104444Y-101829078D01*
X131363902Y-101898600D01*
X131367801Y-101899714D01*
X131391274Y-101906834D01*
X131395135Y-101908074D01*
X131426065Y-101918572D01*
X131429887Y-101919940D01*
X131452874Y-101928591D01*
X131456650Y-101930083D01*
X131704831Y-102032882D01*
X131708553Y-102034495D01*
X131730909Y-102044624D01*
X131734578Y-102046360D01*
X131763876Y-102060808D01*
X131767483Y-102062660D01*
X131789136Y-102074233D01*
X131792687Y-102076206D01*
X131850500Y-102109584D01*
X131850500Y-100637900D01*
X130348500Y-100637900D01*
X130348500Y-101769323D01*
X129350500Y-101769323D01*
X129350500Y-100637900D01*
X127848500Y-100637900D01*
X127848500Y-102139900D01*
X123373666Y-102139900D01*
X123395123Y-102122934D01*
X123400907Y-102118628D01*
X123436667Y-102093587D01*
X123442697Y-102089621D01*
X123641468Y-101967019D01*
X123647715Y-101963412D01*
X123686140Y-101942694D01*
X123692587Y-101939456D01*
X123745232Y-101914909D01*
X123751854Y-101912053D01*
X123792404Y-101895944D01*
X123799180Y-101893478D01*
X124019137Y-101820591D01*
X124025614Y-101818639D01*
X124065116Y-101807901D01*
X124071691Y-101806305D01*
X124124945Y-101794907D01*
X124131589Y-101793673D01*
X124171994Y-101787304D01*
X124178701Y-101786434D01*
X124321213Y-101771876D01*
X124324361Y-101771595D01*
X124343405Y-101770139D01*
X124346551Y-101769938D01*
X124350500Y-101769736D01*
X124350500Y-101768000D01*
X125348500Y-101768000D01*
X126622704Y-101768000D01*
X126625856Y-101768040D01*
X126644927Y-101768525D01*
X126648082Y-101768645D01*
X126673452Y-101769937D01*
X126676602Y-101770138D01*
X126695651Y-101771595D01*
X126698796Y-101771876D01*
X126841319Y-101786436D01*
X126848028Y-101787307D01*
X126850500Y-101787696D01*
X126850500Y-100637900D01*
X125348500Y-100637900D01*
X125348500Y-101768000D01*
X124350500Y-101768000D01*
X124350500Y-100691813D01*
X122902413Y-102139900D01*
X121491031Y-102139900D01*
X122258190Y-101372741D01*
X123991031Y-99639900D01*
X125402414Y-99639900D01*
X126850500Y-99639900D01*
X127848500Y-99639900D01*
X129350500Y-99639900D01*
X130348500Y-99639900D01*
X131850500Y-99639900D01*
X131850500Y-98137900D01*
X130348500Y-98137900D01*
X130348500Y-99639900D01*
X129350500Y-99639900D01*
X129350500Y-98137900D01*
X127848500Y-98137900D01*
X127848500Y-99639900D01*
X126850500Y-99639900D01*
X126850500Y-98191814D01*
X125402414Y-99639900D01*
X123991031Y-99639900D01*
X127669112Y-95961819D01*
X127730435Y-95928334D01*
X127756793Y-95925500D01*
X130453699Y-95925500D01*
X130520738Y-95945185D01*
X130554015Y-95976612D01*
X130594310Y-96032073D01*
X130727927Y-96165690D01*
X130880801Y-96276760D01*
X130960347Y-96317290D01*
X131049163Y-96362545D01*
X131049165Y-96362545D01*
X131049168Y-96362547D01*
X131145497Y-96393846D01*
X131228881Y-96420940D01*
X131415514Y-96450500D01*
X131415519Y-96450500D01*
X131604486Y-96450500D01*
X131791118Y-96420940D01*
X131970832Y-96362547D01*
X132139199Y-96276760D01*
X132292073Y-96165690D01*
X132425690Y-96032073D01*
X132536760Y-95879199D01*
X132622547Y-95710832D01*
X132680940Y-95531118D01*
X132695450Y-95439507D01*
X132710500Y-95344486D01*
X132710500Y-95155513D01*
X132680940Y-94968881D01*
X132638236Y-94837454D01*
X132622547Y-94789168D01*
X132622545Y-94789165D01*
X132622545Y-94789163D01*
X132574311Y-94694500D01*
X132536760Y-94620801D01*
X132425690Y-94467927D01*
X132292073Y-94334310D01*
X132139199Y-94223240D01*
X132062940Y-94184384D01*
X131970836Y-94137454D01*
X131791118Y-94079059D01*
X131604486Y-94049500D01*
X131604481Y-94049500D01*
X131415519Y-94049500D01*
X131415514Y-94049500D01*
X131228881Y-94079059D01*
X131049163Y-94137454D01*
X130880800Y-94223240D01*
X130793579Y-94286610D01*
X130727927Y-94334310D01*
X130727925Y-94334312D01*
X130727924Y-94334312D01*
X130594312Y-94467924D01*
X130594312Y-94467925D01*
X130594310Y-94467927D01*
X130554017Y-94523386D01*
X130498687Y-94566051D01*
X130453699Y-94574500D01*
X127359094Y-94574500D01*
X127228601Y-94600456D01*
X127228597Y-94600458D01*
X127228595Y-94600458D01*
X127228594Y-94600459D01*
X127185130Y-94618462D01*
X127141664Y-94636466D01*
X127141663Y-94636465D01*
X127105664Y-94651378D01*
X126995021Y-94725306D01*
X114906516Y-106813811D01*
X114845193Y-106847296D01*
X114818835Y-106850130D01*
X113577129Y-106850130D01*
X113577123Y-106850131D01*
X113517516Y-106856538D01*
X113382671Y-106906832D01*
X113382664Y-106906836D01*
X113267455Y-106993082D01*
X113267452Y-106993085D01*
X113181206Y-107108294D01*
X113181202Y-107108301D01*
X113130908Y-107243147D01*
X113124501Y-107302746D01*
X113124500Y-107302765D01*
X107600500Y-107302765D01*
X107600500Y-107139900D01*
X108598500Y-107139900D01*
X109350500Y-107139900D01*
X110348500Y-107139900D01*
X111850500Y-107139900D01*
X111850500Y-105637900D01*
X110348500Y-105637900D01*
X110348500Y-107139900D01*
X109350500Y-107139900D01*
X109350500Y-105637900D01*
X108598500Y-105637900D01*
X108598500Y-107139900D01*
X107600500Y-107139900D01*
X107600500Y-103296933D01*
X108598500Y-103296933D01*
X108598500Y-104639900D01*
X109350500Y-104639900D01*
X110348500Y-104639900D01*
X111850500Y-104639900D01*
X112848500Y-104639900D01*
X114350500Y-104639900D01*
X114350500Y-103263875D01*
X114269999Y-103251125D01*
X114265211Y-103250270D01*
X114236348Y-103244530D01*
X114231597Y-103243488D01*
X114193478Y-103234340D01*
X114188759Y-103233109D01*
X114160380Y-103225106D01*
X114155717Y-103223692D01*
X114151498Y-103222321D01*
X115348500Y-103222321D01*
X115348500Y-104639900D01*
X115669042Y-104639900D01*
X116850500Y-103458442D01*
X116850500Y-103263369D01*
X116770115Y-103250638D01*
X116765326Y-103249783D01*
X116736464Y-103244043D01*
X116731714Y-103243001D01*
X116693595Y-103233853D01*
X116688876Y-103232622D01*
X116660497Y-103224619D01*
X116655834Y-103223205D01*
X116423942Y-103147857D01*
X116419348Y-103146264D01*
X116396673Y-103137900D01*
X115604774Y-103137900D01*
X115580844Y-103146727D01*
X115576250Y-103148320D01*
X115348500Y-103222321D01*
X114151498Y-103222321D01*
X113923750Y-103148320D01*
X113919156Y-103146727D01*
X113895226Y-103137900D01*
X112848500Y-103137900D01*
X112848500Y-104639900D01*
X111850500Y-104639900D01*
X111850500Y-103221671D01*
X111844283Y-103223692D01*
X111839620Y-103225106D01*
X111811241Y-103233109D01*
X111806522Y-103234340D01*
X111768403Y-103243488D01*
X111763652Y-103244530D01*
X111734789Y-103250270D01*
X111730001Y-103251125D01*
X111489125Y-103289277D01*
X111484301Y-103289945D01*
X111455067Y-103293405D01*
X111450230Y-103293881D01*
X111411151Y-103296959D01*
X111406286Y-103297246D01*
X111376834Y-103298404D01*
X111371962Y-103298500D01*
X111128038Y-103298500D01*
X111123166Y-103298404D01*
X111093714Y-103297246D01*
X111088849Y-103296959D01*
X111049770Y-103293881D01*
X111044933Y-103293405D01*
X111015699Y-103289945D01*
X111010875Y-103289277D01*
X110769999Y-103251125D01*
X110765211Y-103250270D01*
X110736348Y-103244530D01*
X110731597Y-103243488D01*
X110693478Y-103234340D01*
X110688759Y-103233109D01*
X110660380Y-103225106D01*
X110655717Y-103223692D01*
X110423750Y-103148320D01*
X110419156Y-103146727D01*
X110395226Y-103137900D01*
X110348500Y-103137900D01*
X110348500Y-104639900D01*
X109350500Y-104639900D01*
X109350500Y-103221146D01*
X109344166Y-103223205D01*
X109339503Y-103224619D01*
X109311124Y-103232622D01*
X109306405Y-103233853D01*
X109268286Y-103243001D01*
X109263536Y-103244043D01*
X109234674Y-103249783D01*
X109229885Y-103250638D01*
X108989067Y-103288781D01*
X108984237Y-103289449D01*
X108954964Y-103292912D01*
X108950120Y-103293389D01*
X108911040Y-103296463D01*
X108906181Y-103296750D01*
X108876767Y-103297905D01*
X108871902Y-103298000D01*
X108628098Y-103298000D01*
X108623233Y-103297905D01*
X108598500Y-103296933D01*
X107600500Y-103296933D01*
X107600500Y-101847309D01*
X107620185Y-101780270D01*
X107636819Y-101759628D01*
X108350000Y-101046447D01*
X108350000Y-101052661D01*
X108377259Y-101154394D01*
X108429920Y-101245606D01*
X108504394Y-101320080D01*
X108595606Y-101372741D01*
X108697339Y-101400000D01*
X108703553Y-101400000D01*
X108024076Y-102079474D01*
X108068650Y-102111859D01*
X108250968Y-102204755D01*
X108445582Y-102267990D01*
X108647683Y-102300000D01*
X108852317Y-102300000D01*
X109054417Y-102267990D01*
X109249031Y-102204755D01*
X109431349Y-102111859D01*
X109475921Y-102079474D01*
X108796447Y-101400000D01*
X108802661Y-101400000D01*
X108904394Y-101372741D01*
X108995606Y-101320080D01*
X109070080Y-101245606D01*
X109122741Y-101154394D01*
X109150000Y-101052661D01*
X109150000Y-101046447D01*
X109829474Y-101725921D01*
X109861859Y-101681349D01*
X109889233Y-101627624D01*
X109937207Y-101576827D01*
X110005028Y-101560031D01*
X110071163Y-101582567D01*
X110110203Y-101627621D01*
X110137713Y-101681611D01*
X110258028Y-101847213D01*
X110402786Y-101991971D01*
X110542651Y-102093587D01*
X110568390Y-102112287D01*
X110684607Y-102171503D01*
X110750776Y-102205218D01*
X110750778Y-102205218D01*
X110750781Y-102205220D01*
X110855137Y-102239127D01*
X110945465Y-102268477D01*
X111046557Y-102284488D01*
X111147648Y-102300500D01*
X111147649Y-102300500D01*
X111352351Y-102300500D01*
X111352352Y-102300500D01*
X111554534Y-102268477D01*
X111749219Y-102205220D01*
X111931610Y-102112287D01*
X112024741Y-102044624D01*
X112097213Y-101991971D01*
X112097215Y-101991968D01*
X112097219Y-101991966D01*
X112241966Y-101847219D01*
X112241968Y-101847215D01*
X112241971Y-101847213D01*
X112299492Y-101768040D01*
X112362287Y-101681610D01*
X112455220Y-101499219D01*
X112518477Y-101304534D01*
X112550500Y-101102352D01*
X112550500Y-100897648D01*
X113449500Y-100897648D01*
X113449500Y-101102351D01*
X113481522Y-101304534D01*
X113544781Y-101499223D01*
X113584323Y-101576827D01*
X113637585Y-101681359D01*
X113637715Y-101681613D01*
X113758028Y-101847213D01*
X113902786Y-101991971D01*
X114042651Y-102093587D01*
X114068390Y-102112287D01*
X114184607Y-102171503D01*
X114250776Y-102205218D01*
X114250778Y-102205218D01*
X114250781Y-102205220D01*
X114355137Y-102239127D01*
X114445465Y-102268477D01*
X114546557Y-102284488D01*
X114647648Y-102300500D01*
X114647649Y-102300500D01*
X114852351Y-102300500D01*
X114852352Y-102300500D01*
X115054534Y-102268477D01*
X115249219Y-102205220D01*
X115431610Y-102112287D01*
X115524741Y-102044624D01*
X115597213Y-101991971D01*
X115597215Y-101991968D01*
X115597219Y-101991966D01*
X115741966Y-101847219D01*
X115741968Y-101847215D01*
X115741971Y-101847213D01*
X115862286Y-101681611D01*
X115862415Y-101681359D01*
X115889795Y-101627621D01*
X115937769Y-101576826D01*
X116005589Y-101560030D01*
X116071725Y-101582567D01*
X116110765Y-101627621D01*
X116138141Y-101681350D01*
X116138147Y-101681359D01*
X116170523Y-101725921D01*
X116170524Y-101725922D01*
X116850000Y-101046446D01*
X116850000Y-101052661D01*
X116877259Y-101154394D01*
X116929920Y-101245606D01*
X117004394Y-101320080D01*
X117095606Y-101372741D01*
X117197339Y-101400000D01*
X117203553Y-101400000D01*
X116524076Y-102079474D01*
X116568650Y-102111859D01*
X116750968Y-102204755D01*
X116945582Y-102267990D01*
X117147683Y-102300000D01*
X117352317Y-102300000D01*
X117554417Y-102267990D01*
X117749031Y-102204755D01*
X117931349Y-102111859D01*
X117975921Y-102079474D01*
X117296447Y-101400000D01*
X117302661Y-101400000D01*
X117404394Y-101372741D01*
X117495606Y-101320080D01*
X117570080Y-101245606D01*
X117622741Y-101154394D01*
X117650000Y-101052661D01*
X117650000Y-101046448D01*
X118329474Y-101725922D01*
X118329474Y-101725921D01*
X118361859Y-101681349D01*
X118454755Y-101499031D01*
X118517990Y-101304417D01*
X118550000Y-101102317D01*
X118550000Y-100897682D01*
X118517990Y-100695582D01*
X118454755Y-100500968D01*
X118361859Y-100318650D01*
X118329474Y-100274077D01*
X118329474Y-100274076D01*
X117650000Y-100953551D01*
X117650000Y-100947339D01*
X117622741Y-100845606D01*
X117570080Y-100754394D01*
X117495606Y-100679920D01*
X117404394Y-100627259D01*
X117302661Y-100600000D01*
X117296446Y-100600000D01*
X117975922Y-99920524D01*
X117975921Y-99920523D01*
X117931359Y-99888147D01*
X117931350Y-99888141D01*
X117749031Y-99795244D01*
X117554417Y-99732009D01*
X117352317Y-99700000D01*
X117147683Y-99700000D01*
X116945582Y-99732009D01*
X116750968Y-99795244D01*
X116568644Y-99888143D01*
X116524077Y-99920523D01*
X116524077Y-99920524D01*
X117203554Y-100600000D01*
X117197339Y-100600000D01*
X117095606Y-100627259D01*
X117004394Y-100679920D01*
X116929920Y-100754394D01*
X116877259Y-100845606D01*
X116850000Y-100947339D01*
X116850000Y-100953553D01*
X116170524Y-100274077D01*
X116170523Y-100274077D01*
X116138143Y-100318644D01*
X116110765Y-100372378D01*
X116062790Y-100423174D01*
X115994969Y-100439969D01*
X115928834Y-100417431D01*
X115889795Y-100372378D01*
X115862284Y-100318385D01*
X115741971Y-100152786D01*
X115597213Y-100008028D01*
X115431613Y-99887715D01*
X115431612Y-99887714D01*
X115431610Y-99887713D01*
X115374653Y-99858691D01*
X115249223Y-99794781D01*
X115054534Y-99731522D01*
X114879995Y-99703878D01*
X114852352Y-99699500D01*
X114647648Y-99699500D01*
X114623329Y-99703351D01*
X114445465Y-99731522D01*
X114250776Y-99794781D01*
X114068386Y-99887715D01*
X113902786Y-100008028D01*
X113758028Y-100152786D01*
X113637715Y-100318386D01*
X113544781Y-100500776D01*
X113481522Y-100695465D01*
X113449500Y-100897648D01*
X112550500Y-100897648D01*
X112542257Y-100845606D01*
X112518477Y-100695465D01*
X112487458Y-100600000D01*
X112455220Y-100500781D01*
X112455218Y-100500778D01*
X112455218Y-100500776D01*
X112412750Y-100417429D01*
X112362287Y-100318390D01*
X112330092Y-100274077D01*
X112241971Y-100152786D01*
X112097213Y-100008028D01*
X111931613Y-99887715D01*
X111931612Y-99887714D01*
X111931610Y-99887713D01*
X111874653Y-99858691D01*
X111749223Y-99794781D01*
X111554534Y-99731522D01*
X111379995Y-99703878D01*
X111352352Y-99699500D01*
X111147648Y-99699500D01*
X111123329Y-99703351D01*
X110945465Y-99731522D01*
X110750776Y-99794781D01*
X110568386Y-99887715D01*
X110402786Y-100008028D01*
X110258028Y-100152786D01*
X110137714Y-100318386D01*
X110110203Y-100372379D01*
X110062227Y-100423174D01*
X109994406Y-100439968D01*
X109928272Y-100417429D01*
X109889234Y-100372376D01*
X109861861Y-100318652D01*
X109829474Y-100274077D01*
X109829474Y-100274076D01*
X109150000Y-100953551D01*
X109150000Y-100947339D01*
X109122741Y-100845606D01*
X109070080Y-100754394D01*
X108995606Y-100679920D01*
X108904394Y-100627259D01*
X108802661Y-100600000D01*
X108796446Y-100600000D01*
X109475922Y-99920524D01*
X109475921Y-99920523D01*
X109431359Y-99888147D01*
X109431350Y-99888141D01*
X109249031Y-99795244D01*
X109054417Y-99732009D01*
X108852317Y-99700000D01*
X108647683Y-99700000D01*
X108445582Y-99732009D01*
X108250968Y-99795244D01*
X108068644Y-99888143D01*
X108024077Y-99920523D01*
X108024077Y-99920524D01*
X108703554Y-100600000D01*
X108697339Y-100600000D01*
X108595606Y-100627259D01*
X108504394Y-100679920D01*
X108429920Y-100754394D01*
X108377259Y-100845606D01*
X108350000Y-100947339D01*
X108350000Y-100953553D01*
X107636819Y-100240372D01*
X107603334Y-100179049D01*
X107600500Y-100152691D01*
X107600500Y-95147135D01*
X108507000Y-95147135D01*
X108507000Y-97242870D01*
X108507001Y-97242876D01*
X108513408Y-97302483D01*
X108563702Y-97437328D01*
X108563706Y-97437335D01*
X108649952Y-97552544D01*
X108649955Y-97552547D01*
X108765164Y-97638793D01*
X108765171Y-97638797D01*
X108900017Y-97689091D01*
X108900016Y-97689091D01*
X108906944Y-97689835D01*
X108959627Y-97695500D01*
X110559902Y-97695499D01*
X110626941Y-97715184D01*
X110647583Y-97731818D01*
X111806739Y-98890974D01*
X111806749Y-98890985D01*
X111811079Y-98895315D01*
X111811080Y-98895316D01*
X111922884Y-99007120D01*
X111922886Y-99007121D01*
X111922890Y-99007124D01*
X112059809Y-99086173D01*
X112059816Y-99086177D01*
X112171619Y-99116134D01*
X112212542Y-99127100D01*
X112212543Y-99127100D01*
X120526731Y-99127100D01*
X120526747Y-99127101D01*
X120534343Y-99127101D01*
X120692454Y-99127101D01*
X120692457Y-99127101D01*
X120845185Y-99086177D01*
X120895304Y-99057239D01*
X120982116Y-99007120D01*
X121093920Y-98895316D01*
X121093920Y-98895314D01*
X121104128Y-98885107D01*
X121104129Y-98885104D01*
X122075862Y-97913372D01*
X122137183Y-97879889D01*
X122139350Y-97879438D01*
X122197285Y-97867913D01*
X122294697Y-97848537D01*
X122440379Y-97788194D01*
X122571489Y-97700589D01*
X122682989Y-97589089D01*
X122770594Y-97457979D01*
X122830937Y-97312297D01*
X122861700Y-97157642D01*
X122861700Y-96999958D01*
X122861700Y-96999955D01*
X122861699Y-96999953D01*
X122830937Y-96845303D01*
X122812279Y-96800258D01*
X122770597Y-96699627D01*
X122770590Y-96699614D01*
X122682989Y-96568511D01*
X122682986Y-96568507D01*
X122571492Y-96457013D01*
X122571488Y-96457010D01*
X122440385Y-96369409D01*
X122440372Y-96369402D01*
X122294701Y-96309064D01*
X122294689Y-96309061D01*
X122140045Y-96278300D01*
X122140042Y-96278300D01*
X121982358Y-96278300D01*
X121982355Y-96278300D01*
X121827710Y-96309061D01*
X121827698Y-96309064D01*
X121682027Y-96369402D01*
X121682014Y-96369409D01*
X121550911Y-96457010D01*
X121550907Y-96457013D01*
X121439413Y-96568507D01*
X121439410Y-96568511D01*
X121351809Y-96699614D01*
X121351802Y-96699627D01*
X121291464Y-96845298D01*
X121291461Y-96845308D01*
X121260561Y-97000650D01*
X121228176Y-97062561D01*
X121226625Y-97064139D01*
X120400984Y-97889781D01*
X120339661Y-97923266D01*
X120313303Y-97926100D01*
X115273969Y-97926100D01*
X115206930Y-97906415D01*
X115161175Y-97853611D01*
X115151231Y-97784453D01*
X115180256Y-97720897D01*
X115239034Y-97683123D01*
X115254571Y-97679627D01*
X115380245Y-97659722D01*
X115380248Y-97659721D01*
X115380249Y-97659721D01*
X115597755Y-97589049D01*
X115597755Y-97589048D01*
X115597758Y-97589048D01*
X115801538Y-97485217D01*
X115986566Y-97350786D01*
X116148286Y-97189066D01*
X116282717Y-97004038D01*
X116386548Y-96800258D01*
X116408780Y-96731832D01*
X116437856Y-96684383D01*
X117848500Y-96684383D01*
X117848500Y-96928100D01*
X119350500Y-96928100D01*
X119350500Y-95637900D01*
X118894984Y-95637900D01*
X117848500Y-96684383D01*
X116437856Y-96684383D01*
X116439027Y-96682472D01*
X117965987Y-95155513D01*
X122689500Y-95155513D01*
X122689500Y-95344486D01*
X122719059Y-95531118D01*
X122777454Y-95710836D01*
X122863240Y-95879199D01*
X122974310Y-96032073D01*
X123107927Y-96165690D01*
X123260801Y-96276760D01*
X123340347Y-96317290D01*
X123429163Y-96362545D01*
X123429165Y-96362545D01*
X123429168Y-96362547D01*
X123525497Y-96393846D01*
X123608881Y-96420940D01*
X123795514Y-96450500D01*
X123795519Y-96450500D01*
X123984486Y-96450500D01*
X124171118Y-96420940D01*
X124350832Y-96362547D01*
X124519199Y-96276760D01*
X124672073Y-96165690D01*
X124805690Y-96032073D01*
X124916760Y-95879199D01*
X125002547Y-95710832D01*
X125060940Y-95531118D01*
X125075450Y-95439507D01*
X125090500Y-95344486D01*
X125090500Y-95155513D01*
X125060940Y-94968881D01*
X125018236Y-94837454D01*
X125002547Y-94789168D01*
X125002545Y-94789165D01*
X125002545Y-94789163D01*
X124954311Y-94694500D01*
X124916760Y-94620801D01*
X124805690Y-94467927D01*
X124672073Y-94334310D01*
X124519199Y-94223240D01*
X124442940Y-94184384D01*
X124350836Y-94137454D01*
X124171118Y-94079059D01*
X123984486Y-94049500D01*
X123984481Y-94049500D01*
X123795519Y-94049500D01*
X123795514Y-94049500D01*
X123608881Y-94079059D01*
X123429163Y-94137454D01*
X123260800Y-94223240D01*
X123173579Y-94286610D01*
X123107927Y-94334310D01*
X123107925Y-94334312D01*
X123107924Y-94334312D01*
X122974312Y-94467924D01*
X122974312Y-94467925D01*
X122974310Y-94467927D01*
X122926610Y-94533579D01*
X122863240Y-94620800D01*
X122777454Y-94789163D01*
X122719059Y-94968881D01*
X122689500Y-95155513D01*
X117965987Y-95155513D01*
X118937116Y-94184384D01*
X120348500Y-94184384D01*
X120348500Y-94639900D01*
X121776593Y-94639900D01*
X121834353Y-94462136D01*
X121835947Y-94457541D01*
X121846131Y-94429933D01*
X121847903Y-94425403D01*
X121850500Y-94419131D01*
X121850500Y-93600387D01*
X125348500Y-93600387D01*
X125360398Y-93611386D01*
X125363907Y-93614760D01*
X125525240Y-93776093D01*
X125528614Y-93779602D01*
X125548607Y-93801230D01*
X125551842Y-93804870D01*
X125577300Y-93834677D01*
X125580388Y-93838440D01*
X125598625Y-93861573D01*
X125601565Y-93865456D01*
X125735680Y-94050047D01*
X125738466Y-94054045D01*
X125754834Y-94078543D01*
X125757458Y-94082642D01*
X125777940Y-94116066D01*
X125780401Y-94120264D01*
X125794792Y-94145960D01*
X125797088Y-94150257D01*
X125900676Y-94353562D01*
X125902801Y-94357944D01*
X125915144Y-94384719D01*
X125917099Y-94389187D01*
X125917877Y-94391066D01*
X126306659Y-94002285D01*
X126311068Y-93998087D01*
X126338355Y-93973356D01*
X126342962Y-93969382D01*
X126380845Y-93938292D01*
X126385646Y-93934546D01*
X126415222Y-93912612D01*
X126420196Y-93909108D01*
X126571576Y-93807960D01*
X126576716Y-93804705D01*
X126608293Y-93785778D01*
X126613589Y-93782778D01*
X126656802Y-93759680D01*
X126662236Y-93756945D01*
X126695517Y-93741203D01*
X126701079Y-93738737D01*
X126759735Y-93714438D01*
X126759742Y-93714435D01*
X126850500Y-93676843D01*
X126850500Y-93576500D01*
X127848500Y-93576500D01*
X129350500Y-93576500D01*
X129350500Y-93137900D01*
X127848500Y-93137900D01*
X127848500Y-93576500D01*
X126850500Y-93576500D01*
X126850500Y-93137900D01*
X125348500Y-93137900D01*
X125348500Y-93600387D01*
X121850500Y-93600387D01*
X121850500Y-93137900D01*
X121654205Y-93137900D01*
X121650173Y-93146426D01*
X121647437Y-93151861D01*
X121624336Y-93195082D01*
X121621336Y-93200378D01*
X121602401Y-93231970D01*
X121599144Y-93237114D01*
X121467896Y-93433540D01*
X121464393Y-93438514D01*
X121442460Y-93468088D01*
X121438714Y-93472888D01*
X121407625Y-93510770D01*
X121403651Y-93515377D01*
X121378920Y-93542664D01*
X121374722Y-93547073D01*
X121207673Y-93714122D01*
X121203264Y-93718320D01*
X121175977Y-93743051D01*
X121171370Y-93747025D01*
X121133488Y-93778114D01*
X121128688Y-93781860D01*
X121099114Y-93803793D01*
X121094140Y-93807296D01*
X120897714Y-93938544D01*
X120892570Y-93941801D01*
X120860978Y-93960736D01*
X120855682Y-93963736D01*
X120812461Y-93986837D01*
X120807026Y-93989573D01*
X120773746Y-94005313D01*
X120768183Y-94007779D01*
X120549935Y-94098180D01*
X120544259Y-94100370D01*
X120509597Y-94112773D01*
X120503818Y-94114682D01*
X120456922Y-94128909D01*
X120451052Y-94130533D01*
X120415324Y-94139482D01*
X120409386Y-94140816D01*
X120387768Y-94145115D01*
X120348500Y-94184384D01*
X118937116Y-94184384D01*
X119881882Y-93239619D01*
X119943205Y-93206134D01*
X119969563Y-93203300D01*
X120007017Y-93203300D01*
X120007018Y-93203299D01*
X120190651Y-93166773D01*
X120363631Y-93095122D01*
X120519308Y-92991102D01*
X120651702Y-92858708D01*
X120755722Y-92703031D01*
X120827373Y-92530051D01*
X120863900Y-92346416D01*
X120863900Y-92159184D01*
X120833804Y-92007882D01*
X123235669Y-92007882D01*
X123235670Y-92007883D01*
X123261059Y-92026329D01*
X123429362Y-92112085D01*
X123608997Y-92170451D01*
X123795553Y-92200000D01*
X123984447Y-92200000D01*
X124171002Y-92170451D01*
X124265030Y-92139900D01*
X125773696Y-92139900D01*
X126850500Y-92139900D01*
X127848500Y-92139900D01*
X129350500Y-92139900D01*
X129350500Y-91419259D01*
X129320719Y-91231235D01*
X129320051Y-91226405D01*
X129316588Y-91197133D01*
X129316111Y-91192289D01*
X129313037Y-91153209D01*
X129312750Y-91148350D01*
X129311595Y-91118936D01*
X129311500Y-91114071D01*
X129311500Y-90905513D01*
X130309500Y-90905513D01*
X130309500Y-91094486D01*
X130339059Y-91281118D01*
X130397454Y-91460836D01*
X130483104Y-91628933D01*
X130483240Y-91629199D01*
X130594310Y-91782073D01*
X130727927Y-91915690D01*
X130880801Y-92026760D01*
X130960347Y-92067290D01*
X131049163Y-92112545D01*
X131049165Y-92112545D01*
X131049168Y-92112547D01*
X131114242Y-92133691D01*
X131228881Y-92170940D01*
X131415514Y-92200500D01*
X131415519Y-92200500D01*
X131604486Y-92200500D01*
X131791118Y-92170940D01*
X131827314Y-92159179D01*
X131970832Y-92112547D01*
X132139199Y-92026760D01*
X132292073Y-91915690D01*
X132425690Y-91782073D01*
X132536760Y-91629199D01*
X132622547Y-91460832D01*
X132680940Y-91281118D01*
X132688841Y-91231235D01*
X132710500Y-91094486D01*
X132710500Y-90905513D01*
X132680940Y-90718881D01*
X132622545Y-90539163D01*
X132577290Y-90450347D01*
X132536760Y-90370801D01*
X132425690Y-90217927D01*
X132292073Y-90084310D01*
X132139199Y-89973240D01*
X131970836Y-89887454D01*
X131791118Y-89829059D01*
X131604486Y-89799500D01*
X131604481Y-89799500D01*
X131415519Y-89799500D01*
X131415514Y-89799500D01*
X131228881Y-89829059D01*
X131049163Y-89887454D01*
X130880800Y-89973240D01*
X130793579Y-90036610D01*
X130727927Y-90084310D01*
X130727925Y-90084312D01*
X130727924Y-90084312D01*
X130594312Y-90217924D01*
X130594312Y-90217925D01*
X130594310Y-90217927D01*
X130546610Y-90283579D01*
X130483240Y-90370800D01*
X130397454Y-90539163D01*
X130339059Y-90718881D01*
X130309500Y-90905513D01*
X129311500Y-90905513D01*
X129311500Y-90885929D01*
X129311595Y-90881064D01*
X129312750Y-90851650D01*
X129313037Y-90846791D01*
X129316111Y-90807711D01*
X129316588Y-90802867D01*
X129320051Y-90773595D01*
X129320719Y-90768765D01*
X129341446Y-90637900D01*
X127848500Y-90637900D01*
X127848500Y-92139900D01*
X126850500Y-92139900D01*
X126850500Y-90637900D01*
X126058047Y-90637900D01*
X126078781Y-90768802D01*
X126079449Y-90773633D01*
X126082912Y-90802905D01*
X126083389Y-90807750D01*
X126086463Y-90846831D01*
X126086750Y-90851689D01*
X126087905Y-90881103D01*
X126088000Y-90885968D01*
X126088000Y-91114032D01*
X126087905Y-91118897D01*
X126086750Y-91148311D01*
X126086463Y-91153169D01*
X126083389Y-91192250D01*
X126082912Y-91197095D01*
X126079449Y-91226367D01*
X126078781Y-91231198D01*
X126043099Y-91456475D01*
X126042244Y-91461264D01*
X126036502Y-91490135D01*
X126035460Y-91494886D01*
X126026312Y-91533001D01*
X126025081Y-91537718D01*
X126017081Y-91566086D01*
X126015667Y-91570748D01*
X125945181Y-91787683D01*
X125943585Y-91792284D01*
X125933386Y-91819929D01*
X125931611Y-91824465D01*
X125916609Y-91860681D01*
X125914659Y-91865139D01*
X125902330Y-91891883D01*
X125900205Y-91896265D01*
X125796656Y-92099489D01*
X125794359Y-92103786D01*
X125779962Y-92129492D01*
X125777501Y-92133691D01*
X125773696Y-92139900D01*
X124265030Y-92139900D01*
X124350637Y-92112085D01*
X124518937Y-92026331D01*
X124544328Y-92007883D01*
X124544328Y-92007882D01*
X123890001Y-91353554D01*
X123890000Y-91353554D01*
X123235669Y-92007882D01*
X120833804Y-92007882D01*
X120827373Y-91975549D01*
X120755722Y-91802569D01*
X120755721Y-91802568D01*
X120755718Y-91802562D01*
X120651702Y-91646892D01*
X120651699Y-91646888D01*
X120519311Y-91514500D01*
X120519307Y-91514497D01*
X120363637Y-91410481D01*
X120363628Y-91410476D01*
X120190651Y-91338827D01*
X120190643Y-91338825D01*
X120007020Y-91302300D01*
X120007016Y-91302300D01*
X119819784Y-91302300D01*
X119819779Y-91302300D01*
X119636156Y-91338825D01*
X119636148Y-91338827D01*
X119463171Y-91410476D01*
X119463162Y-91410481D01*
X119307492Y-91514497D01*
X119307488Y-91514500D01*
X119175100Y-91646888D01*
X119175097Y-91646892D01*
X119071081Y-91802562D01*
X119071076Y-91802571D01*
X118999427Y-91975548D01*
X118999425Y-91975556D01*
X118962900Y-92159179D01*
X118962900Y-92196636D01*
X118943215Y-92263675D01*
X118926581Y-92284317D01*
X116166806Y-95044092D01*
X116105483Y-95077577D01*
X116035791Y-95072593D01*
X115991444Y-95044092D01*
X115986568Y-95039216D01*
X115986566Y-95039214D01*
X115801538Y-94904783D01*
X115597755Y-94800950D01*
X115380248Y-94730278D01*
X115194812Y-94700908D01*
X115154354Y-94694500D01*
X114925646Y-94694500D01*
X114885188Y-94700908D01*
X114699753Y-94730278D01*
X114699750Y-94730278D01*
X114482244Y-94800950D01*
X114278461Y-94904783D01*
X114212550Y-94952671D01*
X114093434Y-95039214D01*
X114093432Y-95039216D01*
X114093431Y-95039216D01*
X113931715Y-95200932D01*
X113870318Y-95285438D01*
X113814987Y-95328103D01*
X113745374Y-95334082D01*
X113683579Y-95301476D01*
X113669682Y-95285438D01*
X113658773Y-95270423D01*
X113608286Y-95200934D01*
X113446566Y-95039214D01*
X113261538Y-94904783D01*
X113057755Y-94800950D01*
X112840248Y-94730278D01*
X112654812Y-94700908D01*
X112614354Y-94694500D01*
X112385646Y-94694500D01*
X112345188Y-94700908D01*
X112159753Y-94730278D01*
X112159750Y-94730278D01*
X111942244Y-94800950D01*
X111738461Y-94904783D01*
X111555759Y-95037525D01*
X111489952Y-95061005D01*
X111421898Y-95045180D01*
X111373203Y-94995074D01*
X111366690Y-94980538D01*
X111362342Y-94968881D01*
X111356296Y-94952669D01*
X111356293Y-94952664D01*
X111270047Y-94837455D01*
X111270044Y-94837452D01*
X111154835Y-94751206D01*
X111154828Y-94751202D01*
X111019982Y-94700908D01*
X111019983Y-94700908D01*
X110960383Y-94694501D01*
X110960381Y-94694500D01*
X110960373Y-94694500D01*
X110960364Y-94694500D01*
X108959629Y-94694500D01*
X108959623Y-94694501D01*
X108900016Y-94700908D01*
X108765171Y-94751202D01*
X108765164Y-94751206D01*
X108649955Y-94837452D01*
X108649952Y-94837455D01*
X108563706Y-94952664D01*
X108563702Y-94952671D01*
X108513408Y-95087517D01*
X108507001Y-95147116D01*
X108507000Y-95147135D01*
X107600500Y-95147135D01*
X107600500Y-93696500D01*
X110348500Y-93696500D01*
X110973748Y-93696500D01*
X110977072Y-93696545D01*
X110997174Y-93697084D01*
X111000494Y-93697217D01*
X111027180Y-93698649D01*
X111030489Y-93698871D01*
X111050482Y-93700481D01*
X111053785Y-93700792D01*
X111157675Y-93711962D01*
X111165343Y-93713029D01*
X111211529Y-93720936D01*
X111219119Y-93722481D01*
X111279830Y-93736826D01*
X111287309Y-93738842D01*
X111332172Y-93752450D01*
X111339512Y-93754929D01*
X111537002Y-93828587D01*
X111545182Y-93831975D01*
X111593919Y-93854233D01*
X111601833Y-93858195D01*
X111606738Y-93860873D01*
X111610595Y-93859451D01*
X111615198Y-93857855D01*
X111850500Y-93781401D01*
X111850500Y-93721145D01*
X112848500Y-93721145D01*
X113015712Y-93747630D01*
X113020500Y-93748485D01*
X113049363Y-93754225D01*
X113054114Y-93755267D01*
X113092232Y-93764415D01*
X113096949Y-93765645D01*
X113125326Y-93773647D01*
X113129990Y-93775062D01*
X113384802Y-93857855D01*
X113389405Y-93859451D01*
X113417049Y-93869650D01*
X113421583Y-93871425D01*
X113457799Y-93886427D01*
X113462260Y-93888378D01*
X113489002Y-93900707D01*
X113493381Y-93902831D01*
X113732083Y-94024456D01*
X113736376Y-94026751D01*
X113762072Y-94041141D01*
X113766273Y-94043603D01*
X113770000Y-94045886D01*
X113773727Y-94043603D01*
X113777928Y-94041141D01*
X113803624Y-94026751D01*
X113807917Y-94024456D01*
X114046619Y-93902831D01*
X114050998Y-93900707D01*
X114077740Y-93888378D01*
X114082201Y-93886427D01*
X114118417Y-93871425D01*
X114122951Y-93869650D01*
X114150595Y-93859451D01*
X114155198Y-93857855D01*
X114350500Y-93794397D01*
X114350500Y-93714810D01*
X115348500Y-93714810D01*
X115555712Y-93747630D01*
X115560500Y-93748485D01*
X115589363Y-93754225D01*
X115594114Y-93755267D01*
X115632232Y-93764415D01*
X115636949Y-93765645D01*
X115665326Y-93773647D01*
X115669990Y-93775062D01*
X115924802Y-93857855D01*
X115929405Y-93859451D01*
X115937189Y-93862323D01*
X116661613Y-93137900D01*
X115348500Y-93137900D01*
X115348500Y-93714810D01*
X114350500Y-93714810D01*
X114350500Y-93137900D01*
X112848500Y-93137900D01*
X112848500Y-93721145D01*
X111850500Y-93721145D01*
X111850500Y-93137900D01*
X110348500Y-93137900D01*
X110348500Y-93696500D01*
X107600500Y-93696500D01*
X107600500Y-92139900D01*
X108598500Y-92139900D01*
X109350500Y-92139900D01*
X110348500Y-92139900D01*
X111850500Y-92139900D01*
X112848500Y-92139900D01*
X114350500Y-92139900D01*
X115348500Y-92139900D01*
X116850500Y-92139900D01*
X116850500Y-91683032D01*
X116788707Y-91671082D01*
X116783564Y-91669974D01*
X116752593Y-91662609D01*
X116747498Y-91661282D01*
X116706722Y-91649736D01*
X116701688Y-91648195D01*
X116671434Y-91638223D01*
X116666469Y-91636469D01*
X116407828Y-91538862D01*
X116402945Y-91536900D01*
X116373652Y-91524401D01*
X116368853Y-91522231D01*
X116330614Y-91503958D01*
X116325914Y-91501588D01*
X116297792Y-91486652D01*
X116293198Y-91484086D01*
X116054781Y-91344178D01*
X116050297Y-91341417D01*
X116023545Y-91324151D01*
X116019187Y-91321206D01*
X115984586Y-91296735D01*
X115980352Y-91293603D01*
X115955153Y-91274125D01*
X115951058Y-91270819D01*
X115739710Y-91092627D01*
X115735757Y-91089148D01*
X115712303Y-91067605D01*
X115708504Y-91063963D01*
X115678537Y-91033996D01*
X115674895Y-91030197D01*
X115653352Y-91006743D01*
X115649873Y-91002790D01*
X115567890Y-90905552D01*
X122690000Y-90905552D01*
X122690000Y-91094447D01*
X122719548Y-91281002D01*
X122777914Y-91460637D01*
X122863666Y-91628933D01*
X122882116Y-91654328D01*
X123536446Y-91000000D01*
X123536446Y-90999999D01*
X123490369Y-90953922D01*
X123540000Y-90953922D01*
X123540000Y-91046078D01*
X123563852Y-91135095D01*
X123609930Y-91214905D01*
X123675095Y-91280070D01*
X123754905Y-91326148D01*
X123843922Y-91350000D01*
X123936078Y-91350000D01*
X124025095Y-91326148D01*
X124104905Y-91280070D01*
X124170070Y-91214905D01*
X124216148Y-91135095D01*
X124240000Y-91046078D01*
X124240000Y-90999999D01*
X124243554Y-90999999D01*
X124243554Y-91000000D01*
X124897882Y-91654328D01*
X124897883Y-91654328D01*
X124916331Y-91628937D01*
X125002085Y-91460637D01*
X125060451Y-91281002D01*
X125090000Y-91094447D01*
X125090000Y-90905552D01*
X125060451Y-90718997D01*
X125002085Y-90539362D01*
X124916329Y-90371059D01*
X124897883Y-90345670D01*
X124897882Y-90345669D01*
X124243554Y-90999999D01*
X124240000Y-90999999D01*
X124240000Y-90953922D01*
X124216148Y-90864905D01*
X124170070Y-90785095D01*
X124104905Y-90719930D01*
X124025095Y-90673852D01*
X123936078Y-90650000D01*
X123843922Y-90650000D01*
X123754905Y-90673852D01*
X123675095Y-90719930D01*
X123609930Y-90785095D01*
X123563852Y-90864905D01*
X123540000Y-90953922D01*
X123490369Y-90953922D01*
X122882116Y-90345669D01*
X122882116Y-90345670D01*
X122863669Y-90371060D01*
X122777914Y-90539362D01*
X122719548Y-90718997D01*
X122690000Y-90905552D01*
X115567890Y-90905552D01*
X115471681Y-90791442D01*
X115468375Y-90787347D01*
X115448897Y-90762148D01*
X115445765Y-90757914D01*
X115421294Y-90723313D01*
X115418349Y-90718955D01*
X115401083Y-90692203D01*
X115398322Y-90687719D01*
X115369087Y-90637900D01*
X115348500Y-90637900D01*
X115348500Y-92139900D01*
X114350500Y-92139900D01*
X114350500Y-90637900D01*
X112848500Y-90637900D01*
X112848500Y-92139900D01*
X111850500Y-92139900D01*
X111850500Y-90637900D01*
X110348500Y-90637900D01*
X110348500Y-92139900D01*
X109350500Y-92139900D01*
X109350500Y-90637900D01*
X108598500Y-90637900D01*
X108598500Y-92139900D01*
X107600500Y-92139900D01*
X107600500Y-89639900D01*
X108598500Y-89639900D01*
X109350500Y-89639900D01*
X110348500Y-89639900D01*
X111850500Y-89639900D01*
X112848500Y-89639900D01*
X114350500Y-89639900D01*
X114350500Y-88137900D01*
X112848500Y-88137900D01*
X112848500Y-89639900D01*
X111850500Y-89639900D01*
X111850500Y-88137900D01*
X110348500Y-88137900D01*
X110348500Y-89639900D01*
X109350500Y-89639900D01*
X109350500Y-88137900D01*
X108598500Y-88137900D01*
X108598500Y-89639900D01*
X107600500Y-89639900D01*
X107600500Y-87523921D01*
X116000000Y-87523921D01*
X116000000Y-88242500D01*
X116816988Y-88242500D01*
X116784075Y-88299507D01*
X116750000Y-88426674D01*
X116750000Y-88558326D01*
X116784075Y-88685493D01*
X116816988Y-88742500D01*
X116000001Y-88742500D01*
X116000001Y-89461088D01*
X116002794Y-89513691D01*
X116047237Y-89743487D01*
X116129879Y-89962475D01*
X116248339Y-90164341D01*
X116248344Y-90164348D01*
X116399211Y-90343286D01*
X116399213Y-90343288D01*
X116578151Y-90494155D01*
X116578158Y-90494160D01*
X116780024Y-90612620D01*
X116999012Y-90695262D01*
X117228809Y-90739705D01*
X117281382Y-90742498D01*
X117281421Y-90742499D01*
X117999999Y-90742499D01*
X118000000Y-90742498D01*
X118000000Y-88992500D01*
X118500000Y-88992500D01*
X118500000Y-90742499D01*
X119218576Y-90742499D01*
X119218588Y-90742498D01*
X119271191Y-90739705D01*
X119500987Y-90695262D01*
X119719975Y-90612620D01*
X119921841Y-90494160D01*
X119921848Y-90494155D01*
X120100786Y-90343288D01*
X120100788Y-90343286D01*
X120251655Y-90164348D01*
X120251660Y-90164341D01*
X120352726Y-89992116D01*
X123235669Y-89992116D01*
X123890000Y-90646446D01*
X123890001Y-90646446D01*
X124544328Y-89992116D01*
X124518933Y-89973666D01*
X124350637Y-89887914D01*
X124171002Y-89829548D01*
X123984447Y-89800000D01*
X123795553Y-89800000D01*
X123608997Y-89829548D01*
X123429362Y-89887914D01*
X123261060Y-89973669D01*
X123235670Y-89992116D01*
X123235669Y-89992116D01*
X120352726Y-89992116D01*
X120370120Y-89962475D01*
X120452762Y-89743487D01*
X120472796Y-89639900D01*
X121487205Y-89639900D01*
X121850500Y-89639900D01*
X121850500Y-89359919D01*
X125348500Y-89359919D01*
X125413683Y-89476311D01*
X125535232Y-89544382D01*
X125574962Y-89579686D01*
X125618709Y-89639900D01*
X126850500Y-89639900D01*
X127848500Y-89639900D01*
X129350500Y-89639900D01*
X129350500Y-89128952D01*
X130348500Y-89128952D01*
X130376066Y-89112060D01*
X130380264Y-89109599D01*
X130405960Y-89095208D01*
X130410257Y-89092912D01*
X130613562Y-88989324D01*
X130617944Y-88987199D01*
X130644719Y-88974856D01*
X130649187Y-88972901D01*
X130685403Y-88957903D01*
X130689933Y-88956131D01*
X130717541Y-88945947D01*
X130722136Y-88944353D01*
X130939132Y-88873845D01*
X130943796Y-88872430D01*
X130972176Y-88864427D01*
X130976894Y-88863197D01*
X131015013Y-88854049D01*
X131019763Y-88853007D01*
X131048625Y-88847267D01*
X131053414Y-88846412D01*
X131278765Y-88810719D01*
X131283595Y-88810051D01*
X131312867Y-88806588D01*
X131317711Y-88806111D01*
X131356791Y-88803037D01*
X131361650Y-88802750D01*
X131391064Y-88801595D01*
X131395929Y-88801500D01*
X131624071Y-88801500D01*
X131628936Y-88801595D01*
X131658350Y-88802750D01*
X131663209Y-88803037D01*
X131702289Y-88806111D01*
X131707133Y-88806588D01*
X131736405Y-88810051D01*
X131741235Y-88810719D01*
X131850500Y-88828025D01*
X131850500Y-88137900D01*
X130348500Y-88137900D01*
X130348500Y-89128952D01*
X129350500Y-89128952D01*
X129350500Y-88137900D01*
X127848500Y-88137900D01*
X127848500Y-89639900D01*
X126850500Y-89639900D01*
X126850500Y-88137900D01*
X125348500Y-88137900D01*
X125348500Y-89359919D01*
X121850500Y-89359919D01*
X121850500Y-89063797D01*
X122848500Y-89063797D01*
X122993734Y-88989796D01*
X122998112Y-88987673D01*
X123024856Y-88975343D01*
X123029319Y-88973390D01*
X123065536Y-88958388D01*
X123070071Y-88956614D01*
X123097716Y-88946415D01*
X123102317Y-88944819D01*
X123319252Y-88874333D01*
X123323914Y-88872919D01*
X123352282Y-88864919D01*
X123356999Y-88863688D01*
X123395114Y-88854540D01*
X123399865Y-88853498D01*
X123428736Y-88847756D01*
X123433525Y-88846901D01*
X123658802Y-88811219D01*
X123663633Y-88810551D01*
X123692905Y-88807088D01*
X123697750Y-88806611D01*
X123736831Y-88803537D01*
X123741689Y-88803250D01*
X123771103Y-88802095D01*
X123775968Y-88802000D01*
X124004032Y-88802000D01*
X124008897Y-88802095D01*
X124038311Y-88803250D01*
X124043169Y-88803537D01*
X124082250Y-88806611D01*
X124087095Y-88807088D01*
X124116367Y-88810551D01*
X124121198Y-88811219D01*
X124346475Y-88846901D01*
X124350500Y-88847619D01*
X124350500Y-88137900D01*
X122848500Y-88137900D01*
X122848500Y-89063797D01*
X121850500Y-89063797D01*
X121850500Y-88137900D01*
X121497999Y-88137900D01*
X121497999Y-88443046D01*
X121488559Y-88490501D01*
X121487731Y-88492498D01*
X121488561Y-88494500D01*
X121498000Y-88541954D01*
X121498000Y-89472650D01*
X121497957Y-89475927D01*
X121497344Y-89499115D01*
X121497212Y-89502417D01*
X121492888Y-89583804D01*
X121492588Y-89588065D01*
X121490330Y-89613795D01*
X121489884Y-89618039D01*
X121487205Y-89639900D01*
X120472796Y-89639900D01*
X120497205Y-89513691D01*
X120497205Y-89513690D01*
X120499998Y-89461117D01*
X120500000Y-89461078D01*
X120500000Y-88742500D01*
X119683012Y-88742500D01*
X119715925Y-88685493D01*
X119750000Y-88558326D01*
X119750000Y-88426674D01*
X119715925Y-88299507D01*
X119683012Y-88242500D01*
X120499999Y-88242500D01*
X120499999Y-87523923D01*
X120499998Y-87523911D01*
X120497205Y-87471308D01*
X120452762Y-87241512D01*
X120377092Y-87040999D01*
X122848500Y-87040999D01*
X122848500Y-87139900D01*
X124350500Y-87139900D01*
X125348500Y-87139900D01*
X126850500Y-87139900D01*
X126850500Y-85637900D01*
X125348500Y-85637900D01*
X125348500Y-87139900D01*
X124350500Y-87139900D01*
X124350500Y-86202607D01*
X124340767Y-86223919D01*
X124336805Y-86231833D01*
X124302628Y-86294423D01*
X124298110Y-86302037D01*
X124269146Y-86347104D01*
X124264098Y-86354374D01*
X124135114Y-86526673D01*
X124129561Y-86533564D01*
X124094481Y-86574049D01*
X124088449Y-86580528D01*
X124038028Y-86630949D01*
X124031549Y-86636981D01*
X123991064Y-86672061D01*
X123984173Y-86677614D01*
X123811874Y-86806598D01*
X123804604Y-86811646D01*
X123759537Y-86840610D01*
X123751923Y-86845128D01*
X123689333Y-86879305D01*
X123681419Y-86883267D01*
X123632682Y-86905525D01*
X123624502Y-86908913D01*
X123427018Y-86982569D01*
X123419679Y-86985048D01*
X123374828Y-86998653D01*
X123367352Y-87000668D01*
X123306637Y-87015016D01*
X123299045Y-87016561D01*
X123252840Y-87024472D01*
X123245167Y-87025541D01*
X123141244Y-87036712D01*
X123137939Y-87037022D01*
X123117899Y-87038635D01*
X123114578Y-87038858D01*
X123087895Y-87040286D01*
X123084582Y-87040419D01*
X123064534Y-87040955D01*
X123061220Y-87040999D01*
X122848500Y-87040999D01*
X120377092Y-87040999D01*
X120370120Y-87022524D01*
X120251660Y-86820658D01*
X120251655Y-86820651D01*
X120100788Y-86641713D01*
X120100786Y-86641711D01*
X119921848Y-86490844D01*
X119921841Y-86490839D01*
X119719975Y-86372379D01*
X119500984Y-86289736D01*
X119495840Y-86288741D01*
X119433760Y-86256680D01*
X119398869Y-86196146D01*
X119402244Y-86126358D01*
X119442814Y-86069473D01*
X119507697Y-86043552D01*
X119519374Y-86042999D01*
X123047872Y-86042999D01*
X123107483Y-86036591D01*
X123242331Y-85986296D01*
X123357546Y-85900046D01*
X123443796Y-85784831D01*
X123494091Y-85649983D01*
X123500500Y-85590373D01*
X123500500Y-84639900D01*
X125348500Y-84639900D01*
X126850500Y-84639900D01*
X126850500Y-83137900D01*
X125348500Y-83137900D01*
X125348500Y-84639900D01*
X123500500Y-84639900D01*
X123500499Y-82869778D01*
X128849500Y-82869778D01*
X128849500Y-83090222D01*
X128866742Y-83199086D01*
X128883985Y-83307952D01*
X128952103Y-83517603D01*
X128952104Y-83517606D01*
X129052187Y-83714025D01*
X129181752Y-83892358D01*
X129181756Y-83892363D01*
X129232316Y-83942923D01*
X129265801Y-84004246D01*
X129260817Y-84073938D01*
X129218945Y-84129871D01*
X129187969Y-84146785D01*
X129107918Y-84176643D01*
X129107906Y-84176649D01*
X128992812Y-84262809D01*
X128992809Y-84262812D01*
X128906649Y-84377906D01*
X128906645Y-84377913D01*
X128856403Y-84512620D01*
X128856401Y-84512627D01*
X128850000Y-84572155D01*
X128850000Y-85270000D01*
X129874722Y-85270000D01*
X129830667Y-85346306D01*
X129800000Y-85460756D01*
X129800000Y-85579244D01*
X129830667Y-85693694D01*
X129874722Y-85770000D01*
X128850000Y-85770000D01*
X128850000Y-86467844D01*
X128856401Y-86527372D01*
X128856403Y-86527379D01*
X128906645Y-86662086D01*
X128906649Y-86662093D01*
X128992809Y-86777187D01*
X128992812Y-86777190D01*
X129107906Y-86863350D01*
X129107913Y-86863354D01*
X129242620Y-86913596D01*
X129242627Y-86913598D01*
X129302155Y-86919999D01*
X129302172Y-86920000D01*
X130000000Y-86920000D01*
X130000000Y-85895277D01*
X130076306Y-85939333D01*
X130190756Y-85970000D01*
X130309244Y-85970000D01*
X130423694Y-85939333D01*
X130500000Y-85895277D01*
X130500000Y-86920000D01*
X131197828Y-86920000D01*
X131197844Y-86919999D01*
X131257372Y-86913598D01*
X131257379Y-86913596D01*
X131392086Y-86863354D01*
X131392093Y-86863350D01*
X131507187Y-86777190D01*
X131507190Y-86777187D01*
X131593350Y-86662093D01*
X131593354Y-86662086D01*
X131643596Y-86527379D01*
X131643598Y-86527372D01*
X131649999Y-86467844D01*
X131650000Y-86467827D01*
X131650000Y-85770000D01*
X130625278Y-85770000D01*
X130669333Y-85693694D01*
X130700000Y-85579244D01*
X130700000Y-85460756D01*
X130669333Y-85346306D01*
X130625278Y-85270000D01*
X131650000Y-85270000D01*
X131650000Y-84572172D01*
X131649999Y-84572155D01*
X131643598Y-84512627D01*
X131643596Y-84512620D01*
X131593354Y-84377913D01*
X131593350Y-84377906D01*
X131507190Y-84262812D01*
X131507187Y-84262809D01*
X131392093Y-84176649D01*
X131392087Y-84176646D01*
X131312030Y-84146786D01*
X131256097Y-84104914D01*
X131231680Y-84039450D01*
X131246532Y-83971177D01*
X131267681Y-83942925D01*
X131318242Y-83892365D01*
X131447815Y-83714022D01*
X131547895Y-83517606D01*
X131616015Y-83307951D01*
X131650500Y-83090222D01*
X131650500Y-82869778D01*
X131616015Y-82652049D01*
X131547895Y-82442394D01*
X131547895Y-82442393D01*
X131513237Y-82374375D01*
X131447815Y-82245978D01*
X131394880Y-82173119D01*
X131318247Y-82067641D01*
X131318243Y-82067636D01*
X131162363Y-81911756D01*
X131162358Y-81911752D01*
X130984025Y-81782187D01*
X130984024Y-81782186D01*
X130984022Y-81782185D01*
X130921096Y-81750122D01*
X130787606Y-81682104D01*
X130787603Y-81682103D01*
X130577952Y-81613985D01*
X130469086Y-81596742D01*
X130360222Y-81579500D01*
X130139778Y-81579500D01*
X130067201Y-81590995D01*
X129922047Y-81613985D01*
X129712396Y-81682103D01*
X129712393Y-81682104D01*
X129515974Y-81782187D01*
X129337641Y-81911752D01*
X129337636Y-81911756D01*
X129181756Y-82067636D01*
X129181752Y-82067641D01*
X129052187Y-82245974D01*
X128952104Y-82442393D01*
X128952103Y-82442396D01*
X128883985Y-82652047D01*
X128871905Y-82728317D01*
X128849500Y-82869778D01*
X123500499Y-82869778D01*
X123500499Y-81994628D01*
X123494091Y-81935017D01*
X123485415Y-81911756D01*
X123443797Y-81800171D01*
X123443793Y-81800164D01*
X123357547Y-81684955D01*
X123357544Y-81684952D01*
X123242335Y-81598706D01*
X123242328Y-81598702D01*
X123107482Y-81548408D01*
X123107483Y-81548408D01*
X123047883Y-81542001D01*
X123047881Y-81542000D01*
X123047873Y-81542000D01*
X123047865Y-81542000D01*
X122049500Y-81542000D01*
X121982461Y-81522315D01*
X121936706Y-81469511D01*
X121925500Y-81418000D01*
X121925500Y-80899612D01*
X125348500Y-80899612D01*
X125348500Y-82139900D01*
X126850500Y-82139900D01*
X127848500Y-82139900D01*
X128001032Y-82139900D01*
X128009005Y-82115360D01*
X128010600Y-82110759D01*
X128020794Y-82083127D01*
X128022568Y-82078596D01*
X128037569Y-82042378D01*
X128039522Y-82037913D01*
X128051858Y-82011155D01*
X128053982Y-82006775D01*
X128171859Y-81775431D01*
X128174153Y-81771140D01*
X128188542Y-81745445D01*
X128191006Y-81741241D01*
X128211487Y-81707819D01*
X128214112Y-81703718D01*
X128230479Y-81679223D01*
X128233262Y-81675229D01*
X128385886Y-81465157D01*
X128388831Y-81461267D01*
X128407090Y-81438109D01*
X128410179Y-81434346D01*
X128435640Y-81404539D01*
X128438874Y-81400900D01*
X128458848Y-81379295D01*
X128462218Y-81375791D01*
X128645791Y-81192218D01*
X128649295Y-81188848D01*
X128670900Y-81168874D01*
X128674539Y-81165640D01*
X128704346Y-81140179D01*
X128708109Y-81137090D01*
X128731267Y-81118831D01*
X128735157Y-81115886D01*
X128945229Y-80963262D01*
X128949223Y-80960479D01*
X128973718Y-80944112D01*
X128977819Y-80941487D01*
X129011241Y-80921006D01*
X129015445Y-80918542D01*
X129041140Y-80904153D01*
X129045431Y-80901859D01*
X129276775Y-80783982D01*
X129281155Y-80781858D01*
X129307913Y-80769522D01*
X129312378Y-80767569D01*
X129348596Y-80752568D01*
X129350500Y-80751822D01*
X129350500Y-80637900D01*
X127848500Y-80637900D01*
X127848500Y-82139900D01*
X126850500Y-82139900D01*
X126850500Y-80637900D01*
X125599024Y-80637900D01*
X125598625Y-80638427D01*
X125580388Y-80661560D01*
X125577300Y-80665323D01*
X125551842Y-80695130D01*
X125548607Y-80698770D01*
X125528614Y-80720398D01*
X125525240Y-80723907D01*
X125363907Y-80885240D01*
X125360398Y-80888614D01*
X125348500Y-80899612D01*
X121925500Y-80899612D01*
X121925500Y-79155513D01*
X122689500Y-79155513D01*
X122689500Y-79344486D01*
X122719059Y-79531118D01*
X122777454Y-79710836D01*
X122863240Y-79879199D01*
X122974310Y-80032073D01*
X123107927Y-80165690D01*
X123260801Y-80276760D01*
X123340347Y-80317290D01*
X123429163Y-80362545D01*
X123429165Y-80362545D01*
X123429168Y-80362547D01*
X123525497Y-80393846D01*
X123608881Y-80420940D01*
X123795514Y-80450500D01*
X123795519Y-80450500D01*
X123984486Y-80450500D01*
X124171118Y-80420940D01*
X124350832Y-80362547D01*
X124519199Y-80276760D01*
X124672073Y-80165690D01*
X124805690Y-80032073D01*
X124916760Y-79879199D01*
X125002547Y-79710832D01*
X125060940Y-79531118D01*
X125081199Y-79403209D01*
X125090500Y-79344486D01*
X125090500Y-79155513D01*
X125060940Y-78968881D01*
X125011032Y-78815282D01*
X125002547Y-78789168D01*
X125002545Y-78789165D01*
X125002545Y-78789163D01*
X124916759Y-78620800D01*
X124805690Y-78467927D01*
X124672073Y-78334310D01*
X124519199Y-78223240D01*
X124351711Y-78137900D01*
X125790278Y-78137900D01*
X125794792Y-78145960D01*
X125797088Y-78150257D01*
X125900676Y-78353562D01*
X125902801Y-78357944D01*
X125915144Y-78384719D01*
X125917099Y-78389187D01*
X125932097Y-78425403D01*
X125933869Y-78429933D01*
X125944053Y-78457541D01*
X125945647Y-78462136D01*
X126016155Y-78679132D01*
X126017570Y-78683796D01*
X126025573Y-78712176D01*
X126026803Y-78716894D01*
X126035951Y-78755013D01*
X126036993Y-78759763D01*
X126042733Y-78788625D01*
X126043588Y-78793414D01*
X126079281Y-79018765D01*
X126079949Y-79023595D01*
X126083412Y-79052867D01*
X126083889Y-79057711D01*
X126086963Y-79096791D01*
X126087250Y-79101650D01*
X126088405Y-79131064D01*
X126088500Y-79135929D01*
X126088500Y-79364071D01*
X126088405Y-79368936D01*
X126087250Y-79398350D01*
X126086963Y-79403209D01*
X126083889Y-79442289D01*
X126083412Y-79447133D01*
X126079949Y-79476405D01*
X126079281Y-79481235D01*
X126054150Y-79639900D01*
X126850500Y-79639900D01*
X127848500Y-79639900D01*
X129345850Y-79639900D01*
X129320719Y-79481235D01*
X129320051Y-79476405D01*
X129316588Y-79447133D01*
X129316111Y-79442289D01*
X129313037Y-79403209D01*
X129312750Y-79398350D01*
X129311595Y-79368936D01*
X129311500Y-79364071D01*
X129311500Y-79155513D01*
X130309500Y-79155513D01*
X130309500Y-79344486D01*
X130339059Y-79531118D01*
X130397454Y-79710836D01*
X130483240Y-79879199D01*
X130594310Y-80032073D01*
X130727927Y-80165690D01*
X130880801Y-80276760D01*
X130960347Y-80317290D01*
X131049163Y-80362545D01*
X131049165Y-80362545D01*
X131049168Y-80362547D01*
X131145497Y-80393846D01*
X131228881Y-80420940D01*
X131415514Y-80450500D01*
X131415519Y-80450500D01*
X131604486Y-80450500D01*
X131791118Y-80420940D01*
X131970832Y-80362547D01*
X132139199Y-80276760D01*
X132292073Y-80165690D01*
X132425690Y-80032073D01*
X132536760Y-79879199D01*
X132622547Y-79710832D01*
X132680940Y-79531118D01*
X132701199Y-79403209D01*
X132710500Y-79344486D01*
X132710500Y-79155513D01*
X132680940Y-78968881D01*
X132631032Y-78815282D01*
X132622547Y-78789168D01*
X132622545Y-78789165D01*
X132622545Y-78789163D01*
X132536759Y-78620800D01*
X132425690Y-78467927D01*
X132292073Y-78334310D01*
X132139199Y-78223240D01*
X131970836Y-78137454D01*
X131791118Y-78079059D01*
X131604486Y-78049500D01*
X131604481Y-78049500D01*
X131415519Y-78049500D01*
X131415514Y-78049500D01*
X131228881Y-78079059D01*
X131049163Y-78137454D01*
X130880800Y-78223240D01*
X130793579Y-78286610D01*
X130727927Y-78334310D01*
X130727925Y-78334312D01*
X130727924Y-78334312D01*
X130594312Y-78467924D01*
X130594312Y-78467925D01*
X130594310Y-78467927D01*
X130546610Y-78533579D01*
X130483240Y-78620800D01*
X130397454Y-78789163D01*
X130339059Y-78968881D01*
X130309500Y-79155513D01*
X129311500Y-79155513D01*
X129311500Y-79135929D01*
X129311595Y-79131064D01*
X129312750Y-79101650D01*
X129313037Y-79096791D01*
X129316111Y-79057711D01*
X129316588Y-79052867D01*
X129320051Y-79023595D01*
X129320719Y-79018765D01*
X129350500Y-78830739D01*
X129350500Y-78137900D01*
X127848500Y-78137900D01*
X127848500Y-79639900D01*
X126850500Y-79639900D01*
X126850500Y-78137900D01*
X125790278Y-78137900D01*
X124351711Y-78137900D01*
X124350836Y-78137454D01*
X124171118Y-78079059D01*
X123984486Y-78049500D01*
X123984481Y-78049500D01*
X123795519Y-78049500D01*
X123795514Y-78049500D01*
X123608881Y-78079059D01*
X123429163Y-78137454D01*
X123260800Y-78223240D01*
X123173579Y-78286610D01*
X123107927Y-78334310D01*
X123107925Y-78334312D01*
X123107924Y-78334312D01*
X122974312Y-78467924D01*
X122974312Y-78467925D01*
X122974310Y-78467927D01*
X122926610Y-78533579D01*
X122863240Y-78620800D01*
X122777454Y-78789163D01*
X122719059Y-78968881D01*
X122689500Y-79155513D01*
X121925500Y-79155513D01*
X121925500Y-78902963D01*
X121945185Y-78835924D01*
X121961819Y-78815282D01*
X123937117Y-76839984D01*
X125348500Y-76839984D01*
X125348500Y-77139900D01*
X126850500Y-77139900D01*
X127848500Y-77139900D01*
X129350500Y-77139900D01*
X129350500Y-75854323D01*
X129294597Y-75645693D01*
X129293611Y-75641756D01*
X129292712Y-75637900D01*
X127848500Y-75637900D01*
X127848500Y-77139900D01*
X126850500Y-77139900D01*
X126850500Y-75637900D01*
X126550585Y-75637900D01*
X125348500Y-76839984D01*
X123937117Y-76839984D01*
X126437116Y-74339985D01*
X127848500Y-74339985D01*
X127848500Y-74639900D01*
X129258857Y-74639900D01*
X129275489Y-74513575D01*
X129276083Y-74509566D01*
X129280081Y-74485345D01*
X129280809Y-74481347D01*
X129287182Y-74449310D01*
X129288038Y-74445346D01*
X129293611Y-74421444D01*
X129294597Y-74417507D01*
X129350500Y-74208875D01*
X129350500Y-73137900D01*
X129050586Y-73137900D01*
X127848500Y-74339985D01*
X126437116Y-74339985D01*
X128774692Y-72002409D01*
X128774695Y-72002406D01*
X128848620Y-71891769D01*
X128899541Y-71768836D01*
X128925500Y-71638331D01*
X128925500Y-71505269D01*
X128925500Y-71097499D01*
X128945185Y-71030460D01*
X128997989Y-70984705D01*
X129044611Y-70974562D01*
X129044576Y-70973900D01*
X129044571Y-70973854D01*
X129044573Y-70973853D01*
X129044564Y-70973676D01*
X129047857Y-70973499D01*
X129047872Y-70973499D01*
X129107483Y-70967091D01*
X129242331Y-70916796D01*
X129357546Y-70830546D01*
X129443796Y-70715331D01*
X129494091Y-70580483D01*
X129499823Y-70527162D01*
X129526560Y-70462615D01*
X129583952Y-70422767D01*
X129653777Y-70420273D01*
X129713866Y-70455925D01*
X129723430Y-70467536D01*
X129798028Y-70570212D01*
X129798032Y-70570217D01*
X129942786Y-70714971D01*
X130097749Y-70827556D01*
X130108390Y-70835287D01*
X130195061Y-70879448D01*
X130290776Y-70928218D01*
X130290778Y-70928218D01*
X130290781Y-70928220D01*
X130348177Y-70946869D01*
X130485465Y-70991477D01*
X130586557Y-71007488D01*
X130687648Y-71023500D01*
X130687649Y-71023500D01*
X130892351Y-71023500D01*
X130892352Y-71023500D01*
X131094534Y-70991477D01*
X131289219Y-70928220D01*
X131471610Y-70835287D01*
X131564590Y-70767732D01*
X131637213Y-70714971D01*
X131637215Y-70714968D01*
X131637219Y-70714966D01*
X131781966Y-70570219D01*
X131781968Y-70570215D01*
X131781971Y-70570213D01*
X131861891Y-70460211D01*
X131902287Y-70404610D01*
X131995220Y-70222219D01*
X132058477Y-70027534D01*
X132090500Y-69825352D01*
X132090500Y-69620648D01*
X132081187Y-69561849D01*
X132058477Y-69418465D01*
X132023211Y-69309929D01*
X131995220Y-69223781D01*
X131995218Y-69223778D01*
X131995218Y-69223776D01*
X131946782Y-69128717D01*
X131902287Y-69041390D01*
X131868221Y-68994502D01*
X131781971Y-68875786D01*
X131637213Y-68731028D01*
X131471613Y-68610715D01*
X131471612Y-68610714D01*
X131471610Y-68610713D01*
X131393365Y-68570845D01*
X131289223Y-68517781D01*
X131094534Y-68454522D01*
X130919995Y-68426878D01*
X130892352Y-68422500D01*
X130687648Y-68422500D01*
X130663329Y-68426351D01*
X130485465Y-68454522D01*
X130290776Y-68517781D01*
X130108386Y-68610715D01*
X129942786Y-68731028D01*
X129798032Y-68875782D01*
X129798028Y-68875787D01*
X129723430Y-68978463D01*
X129668100Y-69021129D01*
X129598487Y-69027108D01*
X129536692Y-68994502D01*
X129502334Y-68933664D01*
X129499822Y-68918831D01*
X129494091Y-68865516D01*
X129443797Y-68730671D01*
X129443793Y-68730664D01*
X129357547Y-68615455D01*
X129357544Y-68615452D01*
X129242335Y-68529206D01*
X129242328Y-68529202D01*
X129107482Y-68478908D01*
X129107483Y-68478908D01*
X129047883Y-68472501D01*
X129047881Y-68472500D01*
X129047873Y-68472500D01*
X129047864Y-68472500D01*
X127452129Y-68472500D01*
X127452123Y-68472501D01*
X127392516Y-68478908D01*
X127257671Y-68529202D01*
X127257664Y-68529206D01*
X127142455Y-68615452D01*
X127142452Y-68615455D01*
X127056206Y-68730664D01*
X127056202Y-68730671D01*
X127005908Y-68865516D01*
X127000176Y-68918834D01*
X126973438Y-68983385D01*
X126916045Y-69023233D01*
X126846220Y-69025726D01*
X126786131Y-68990073D01*
X126776569Y-68978463D01*
X126701971Y-68875786D01*
X126557213Y-68731028D01*
X126391613Y-68610715D01*
X126391612Y-68610714D01*
X126391610Y-68610713D01*
X126313365Y-68570845D01*
X126209223Y-68517781D01*
X126014534Y-68454522D01*
X125839995Y-68426878D01*
X125812352Y-68422500D01*
X125607648Y-68422500D01*
X125583329Y-68426351D01*
X125405465Y-68454522D01*
X125210776Y-68517781D01*
X125028386Y-68610715D01*
X124862786Y-68731028D01*
X124718028Y-68875786D01*
X124597715Y-69041386D01*
X124504781Y-69223776D01*
X124441522Y-69418465D01*
X124409500Y-69620648D01*
X124409500Y-69825351D01*
X124441522Y-70027534D01*
X124504781Y-70222223D01*
X124568691Y-70347653D01*
X124591519Y-70392454D01*
X124597715Y-70404613D01*
X124718028Y-70570213D01*
X124862786Y-70714971D01*
X125017749Y-70827556D01*
X125028390Y-70835287D01*
X125115061Y-70879448D01*
X125210776Y-70928218D01*
X125210778Y-70928218D01*
X125210781Y-70928220D01*
X125268177Y-70946869D01*
X125405465Y-70991477D01*
X125506557Y-71007488D01*
X125607648Y-71023500D01*
X125607649Y-71023500D01*
X125812351Y-71023500D01*
X125812352Y-71023500D01*
X126014534Y-70991477D01*
X126209219Y-70928220D01*
X126391610Y-70835287D01*
X126484590Y-70767732D01*
X126557213Y-70714971D01*
X126557215Y-70714968D01*
X126557219Y-70714966D01*
X126701966Y-70570219D01*
X126776568Y-70467536D01*
X126831898Y-70424870D01*
X126901511Y-70418891D01*
X126963306Y-70451496D01*
X126997664Y-70512334D01*
X127000177Y-70527166D01*
X127005909Y-70580483D01*
X127056202Y-70715328D01*
X127056206Y-70715335D01*
X127142452Y-70830544D01*
X127142455Y-70830547D01*
X127257664Y-70916793D01*
X127257671Y-70916797D01*
X127392516Y-70967091D01*
X127452113Y-70973499D01*
X127452122Y-70973499D01*
X127452127Y-70973500D01*
X127452131Y-70973499D01*
X127455434Y-70973677D01*
X127455424Y-70973855D01*
X127455431Y-70973856D01*
X127455417Y-70973977D01*
X127455366Y-70974946D01*
X127517478Y-70993144D01*
X127563264Y-71045921D01*
X127574500Y-71097499D01*
X127574500Y-71240636D01*
X127554815Y-71307675D01*
X127538181Y-71328317D01*
X120725307Y-78141190D01*
X120725304Y-78141194D01*
X120651383Y-78251824D01*
X120651378Y-78251834D01*
X120600459Y-78374762D01*
X120600459Y-78374764D01*
X120581928Y-78467927D01*
X120581928Y-78467928D01*
X120574500Y-78505267D01*
X120574500Y-81418000D01*
X120554815Y-81485039D01*
X120502011Y-81530794D01*
X120450500Y-81542000D01*
X119452129Y-81542000D01*
X119452123Y-81542001D01*
X119392516Y-81548408D01*
X119257671Y-81598702D01*
X119257664Y-81598706D01*
X119142455Y-81684952D01*
X119142452Y-81684955D01*
X119056206Y-81800164D01*
X119056202Y-81800171D01*
X119005908Y-81935017D01*
X118999501Y-81994616D01*
X118999501Y-81994623D01*
X118999500Y-81994635D01*
X118999500Y-85590370D01*
X118999501Y-85590376D01*
X119005908Y-85649983D01*
X119056202Y-85784828D01*
X119056206Y-85784835D01*
X119142452Y-85900044D01*
X119142455Y-85900047D01*
X119257664Y-85986293D01*
X119257673Y-85986298D01*
X119306506Y-86004511D01*
X119362440Y-86046381D01*
X119386858Y-86111845D01*
X119372007Y-86180118D01*
X119322603Y-86229524D01*
X119256598Y-86244518D01*
X119218625Y-86242501D01*
X119218579Y-86242500D01*
X118500000Y-86242500D01*
X118500000Y-87992500D01*
X118000000Y-87992500D01*
X118000000Y-86242500D01*
X117281423Y-86242500D01*
X117281411Y-86242501D01*
X117228808Y-86245294D01*
X116999012Y-86289737D01*
X116780024Y-86372379D01*
X116578158Y-86490839D01*
X116578151Y-86490844D01*
X116399213Y-86641711D01*
X116399211Y-86641713D01*
X116248344Y-86820651D01*
X116248339Y-86820658D01*
X116129879Y-87022524D01*
X116047237Y-87241512D01*
X116002794Y-87471308D01*
X116002794Y-87471309D01*
X116000001Y-87523882D01*
X116000000Y-87523921D01*
X107600500Y-87523921D01*
X107600500Y-87139900D01*
X108598500Y-87139900D01*
X109350500Y-87139900D01*
X110348500Y-87139900D01*
X111850500Y-87139900D01*
X112848500Y-87139900D01*
X114350500Y-87139900D01*
X114350500Y-87036872D01*
X114204428Y-87025376D01*
X114199237Y-87024857D01*
X114167912Y-87021060D01*
X114162751Y-87020324D01*
X114121305Y-87013522D01*
X114116174Y-87012569D01*
X114085269Y-87006151D01*
X114080184Y-87004983D01*
X113819906Y-86939399D01*
X113814541Y-86937918D01*
X113782286Y-86928232D01*
X113776992Y-86926512D01*
X113734702Y-86911713D01*
X113729494Y-86909758D01*
X113698258Y-86897228D01*
X113693142Y-86895041D01*
X113447494Y-86783462D01*
X113442478Y-86781047D01*
X113412483Y-86765763D01*
X113407587Y-86763128D01*
X113368621Y-86741019D01*
X113363842Y-86738164D01*
X113335337Y-86720253D01*
X113330693Y-86717187D01*
X113108901Y-86563530D01*
X113104397Y-86560258D01*
X113077595Y-86539850D01*
X113073241Y-86536377D01*
X113038850Y-86507662D01*
X113034661Y-86504003D01*
X113009827Y-86481302D01*
X113005809Y-86477459D01*
X112848500Y-86320150D01*
X112848500Y-87139900D01*
X111850500Y-87139900D01*
X111850500Y-85637900D01*
X110348500Y-85637900D01*
X110348500Y-87139900D01*
X109350500Y-87139900D01*
X109350500Y-85637900D01*
X108598500Y-85637900D01*
X108598500Y-87139900D01*
X107600500Y-87139900D01*
X107600500Y-84639900D01*
X108598500Y-84639900D01*
X109350500Y-84639900D01*
X110348500Y-84639900D01*
X111850500Y-84639900D01*
X111850500Y-83137900D01*
X110348500Y-83137900D01*
X110348500Y-84639900D01*
X109350500Y-84639900D01*
X109350500Y-83137900D01*
X108598500Y-83137900D01*
X108598500Y-84639900D01*
X107600500Y-84639900D01*
X107600500Y-82728303D01*
X113250000Y-82728303D01*
X113250000Y-83542500D01*
X114750000Y-83542500D01*
X114750000Y-84042500D01*
X113250001Y-84042500D01*
X113250001Y-84856697D01*
X113260400Y-84988832D01*
X113315377Y-85207019D01*
X113408428Y-85411874D01*
X113408431Y-85411880D01*
X113536559Y-85596823D01*
X113536569Y-85596835D01*
X113695664Y-85755930D01*
X113695676Y-85755940D01*
X113880619Y-85884068D01*
X113880625Y-85884071D01*
X114085480Y-85977122D01*
X114303667Y-86032099D01*
X114435810Y-86042499D01*
X114999999Y-86042499D01*
X115000000Y-86042498D01*
X115000000Y-85225512D01*
X115057007Y-85258425D01*
X115184174Y-85292500D01*
X115315826Y-85292500D01*
X115442993Y-85258425D01*
X115500000Y-85225512D01*
X115500000Y-86042499D01*
X116064182Y-86042499D01*
X116064197Y-86042498D01*
X116196332Y-86032099D01*
X116414519Y-85977122D01*
X116619374Y-85884071D01*
X116619380Y-85884068D01*
X116804323Y-85755940D01*
X116804335Y-85755930D01*
X116963430Y-85596835D01*
X116963440Y-85596823D01*
X117091568Y-85411880D01*
X117091571Y-85411874D01*
X117184622Y-85207019D01*
X117239599Y-84988832D01*
X117249999Y-84856696D01*
X117250000Y-84856684D01*
X117250000Y-84042500D01*
X115750000Y-84042500D01*
X115750000Y-83542500D01*
X117249999Y-83542500D01*
X117249999Y-82728317D01*
X117249998Y-82728302D01*
X117239599Y-82596167D01*
X117184622Y-82377980D01*
X117091571Y-82173125D01*
X117091568Y-82173119D01*
X116963440Y-81988176D01*
X116963430Y-81988164D01*
X116804335Y-81829069D01*
X116804323Y-81829059D01*
X116619380Y-81700931D01*
X116619374Y-81700928D01*
X116414519Y-81607877D01*
X116196332Y-81552900D01*
X116064196Y-81542500D01*
X115500000Y-81542500D01*
X115500000Y-82359488D01*
X115442993Y-82326575D01*
X115315826Y-82292500D01*
X115184174Y-82292500D01*
X115057007Y-82326575D01*
X115000000Y-82359488D01*
X115000000Y-81542500D01*
X114435817Y-81542500D01*
X114435802Y-81542501D01*
X114303667Y-81552900D01*
X114085480Y-81607877D01*
X113880625Y-81700928D01*
X113880619Y-81700931D01*
X113695676Y-81829059D01*
X113695664Y-81829069D01*
X113536569Y-81988164D01*
X113536559Y-81988176D01*
X113408431Y-82173119D01*
X113408428Y-82173125D01*
X113315377Y-82377980D01*
X113260400Y-82596167D01*
X113250000Y-82728303D01*
X107600500Y-82728303D01*
X107600500Y-82139900D01*
X108598500Y-82139900D01*
X109350500Y-82139900D01*
X110348500Y-82139900D01*
X111850500Y-82139900D01*
X111850500Y-81513220D01*
X117848500Y-81513220D01*
X117924688Y-81623193D01*
X117927753Y-81627837D01*
X117945664Y-81656342D01*
X117948519Y-81661121D01*
X117970628Y-81700087D01*
X117973263Y-81704983D01*
X117988547Y-81734978D01*
X117990962Y-81739994D01*
X118016971Y-81797255D01*
X118018029Y-81789657D01*
X118025936Y-81743471D01*
X118027481Y-81735881D01*
X118041826Y-81675170D01*
X118043842Y-81667691D01*
X118057450Y-81622828D01*
X118059929Y-81615488D01*
X118133587Y-81417998D01*
X118136975Y-81409818D01*
X118159233Y-81361081D01*
X118163195Y-81353167D01*
X118197372Y-81290577D01*
X118201890Y-81282963D01*
X118230854Y-81237896D01*
X118235902Y-81230626D01*
X118364886Y-81058327D01*
X118370439Y-81051436D01*
X118405519Y-81010951D01*
X118411551Y-81004472D01*
X118461972Y-80954051D01*
X118468451Y-80948019D01*
X118508936Y-80912939D01*
X118515827Y-80907386D01*
X118688126Y-80778402D01*
X118695396Y-80773354D01*
X118740463Y-80744390D01*
X118748077Y-80739872D01*
X118810667Y-80705695D01*
X118818581Y-80701733D01*
X118867318Y-80679475D01*
X118875498Y-80676087D01*
X118977884Y-80637900D01*
X117848500Y-80637900D01*
X117848500Y-81513220D01*
X111850500Y-81513220D01*
X111850500Y-80637900D01*
X110348500Y-80637900D01*
X110348500Y-82139900D01*
X109350500Y-82139900D01*
X109350500Y-80637900D01*
X108598500Y-80637900D01*
X108598500Y-82139900D01*
X107600500Y-82139900D01*
X107600500Y-79639900D01*
X108598500Y-79639900D01*
X109350500Y-79639900D01*
X110348500Y-79639900D01*
X111850500Y-79639900D01*
X112848500Y-79639900D01*
X114350500Y-79639900D01*
X115348500Y-79639900D01*
X116850500Y-79639900D01*
X117848500Y-79639900D01*
X119350500Y-79639900D01*
X119350500Y-78137900D01*
X117848500Y-78137900D01*
X117848500Y-79639900D01*
X116850500Y-79639900D01*
X116850500Y-78137900D01*
X115348500Y-78137900D01*
X115348500Y-79639900D01*
X114350500Y-79639900D01*
X114350500Y-78137900D01*
X112848500Y-78137900D01*
X112848500Y-79639900D01*
X111850500Y-79639900D01*
X111850500Y-78137900D01*
X110348500Y-78137900D01*
X110348500Y-79639900D01*
X109350500Y-79639900D01*
X109350500Y-78137900D01*
X108598500Y-78137900D01*
X108598500Y-79639900D01*
X107600500Y-79639900D01*
X107600500Y-77139900D01*
X108598500Y-77139900D01*
X109350500Y-77139900D01*
X110348500Y-77139900D01*
X111850500Y-77139900D01*
X112848500Y-77139900D01*
X114350500Y-77139900D01*
X115348500Y-77139900D01*
X116817530Y-77139900D01*
X116731325Y-77000141D01*
X116727718Y-76993894D01*
X116707004Y-76955477D01*
X116703767Y-76949033D01*
X116679217Y-76896387D01*
X116676360Y-76889762D01*
X116660246Y-76849200D01*
X116657779Y-76842423D01*
X116584895Y-76622474D01*
X116582944Y-76616000D01*
X116572213Y-76576527D01*
X116570618Y-76569959D01*
X116559216Y-76516708D01*
X116557981Y-76510057D01*
X116551607Y-76469628D01*
X116550736Y-76462919D01*
X116536176Y-76320394D01*
X116535895Y-76317249D01*
X116534438Y-76298201D01*
X116534237Y-76295051D01*
X116532945Y-76269681D01*
X116532825Y-76266526D01*
X116532340Y-76247455D01*
X116532300Y-76244303D01*
X116532300Y-75637900D01*
X115348500Y-75637900D01*
X115348500Y-77139900D01*
X114350500Y-77139900D01*
X114350500Y-75637900D01*
X112848500Y-75637900D01*
X112848500Y-77139900D01*
X111850500Y-77139900D01*
X111850500Y-75637900D01*
X110348500Y-75637900D01*
X110348500Y-77139900D01*
X109350500Y-77139900D01*
X109350500Y-75637900D01*
X108598500Y-75637900D01*
X108598500Y-77139900D01*
X107600500Y-77139900D01*
X107600500Y-74217518D01*
X110348500Y-74217518D01*
X110348500Y-74639900D01*
X111850500Y-74639900D01*
X111850500Y-74223348D01*
X112848500Y-74223348D01*
X112848500Y-74639900D01*
X114350500Y-74639900D01*
X114350500Y-74248499D01*
X115348500Y-74248499D01*
X115348500Y-74639900D01*
X116532300Y-74639900D01*
X116532300Y-74148004D01*
X116419518Y-74190069D01*
X116412179Y-74192548D01*
X116367328Y-74206153D01*
X116359852Y-74208168D01*
X116299137Y-74222516D01*
X116291545Y-74224061D01*
X116245340Y-74231972D01*
X116237667Y-74233041D01*
X116133744Y-74244212D01*
X116130439Y-74244522D01*
X116110399Y-74246135D01*
X116107078Y-74246358D01*
X116080395Y-74247786D01*
X116077082Y-74247919D01*
X116057034Y-74248455D01*
X116053720Y-74248499D01*
X115348500Y-74248499D01*
X114350500Y-74248499D01*
X114026252Y-74248500D01*
X114022928Y-74248455D01*
X114002826Y-74247916D01*
X113999506Y-74247783D01*
X113972820Y-74246351D01*
X113969511Y-74246129D01*
X113949518Y-74244519D01*
X113946215Y-74244208D01*
X113842325Y-74233038D01*
X113834657Y-74231971D01*
X113788471Y-74224064D01*
X113780881Y-74222519D01*
X113720170Y-74208174D01*
X113712691Y-74206158D01*
X113667828Y-74192550D01*
X113660488Y-74190071D01*
X113462998Y-74116413D01*
X113454818Y-74113025D01*
X113406081Y-74090767D01*
X113398167Y-74086805D01*
X113392674Y-74083805D01*
X113389191Y-74085091D01*
X113384597Y-74086684D01*
X113129877Y-74169449D01*
X113125214Y-74170863D01*
X113096835Y-74178866D01*
X113092116Y-74180097D01*
X113053997Y-74189245D01*
X113049247Y-74190287D01*
X113020385Y-74196027D01*
X113015596Y-74196882D01*
X112848500Y-74223348D01*
X111850500Y-74223348D01*
X111850500Y-74163072D01*
X111615403Y-74086684D01*
X111610809Y-74085091D01*
X111583200Y-74074907D01*
X111578669Y-74073134D01*
X111542453Y-74058136D01*
X111537985Y-74056181D01*
X111511210Y-74043838D01*
X111506827Y-74041713D01*
X111268180Y-73920117D01*
X111263886Y-73917822D01*
X111238189Y-73903431D01*
X111233991Y-73900970D01*
X111230480Y-73898818D01*
X111226273Y-73901397D01*
X111222072Y-73903859D01*
X111196376Y-73918249D01*
X111192083Y-73920544D01*
X110953381Y-74042169D01*
X110949002Y-74044293D01*
X110922260Y-74056622D01*
X110917799Y-74058573D01*
X110881583Y-74073575D01*
X110877049Y-74075350D01*
X110849405Y-74085549D01*
X110844802Y-74087145D01*
X110589990Y-74169938D01*
X110585326Y-74171353D01*
X110556949Y-74179355D01*
X110552232Y-74180585D01*
X110514114Y-74189733D01*
X110509363Y-74190775D01*
X110480500Y-74196515D01*
X110475712Y-74197370D01*
X110348500Y-74217518D01*
X107600500Y-74217518D01*
X107600500Y-73831584D01*
X117530300Y-73831584D01*
X117530300Y-76231615D01*
X117540800Y-76334395D01*
X117540801Y-76334396D01*
X117595986Y-76500935D01*
X117595987Y-76500937D01*
X117688086Y-76650251D01*
X117688089Y-76650255D01*
X117812144Y-76774310D01*
X117812148Y-76774313D01*
X117961462Y-76866412D01*
X117961464Y-76866413D01*
X117961466Y-76866414D01*
X118128003Y-76921599D01*
X118230792Y-76932100D01*
X118230797Y-76932100D01*
X120630803Y-76932100D01*
X120630808Y-76932100D01*
X120733597Y-76921599D01*
X120900134Y-76866414D01*
X121049455Y-76774311D01*
X121173511Y-76650255D01*
X121265614Y-76500934D01*
X121320799Y-76334397D01*
X121331300Y-76231608D01*
X121331300Y-74606614D01*
X122848500Y-74606614D01*
X124317214Y-73137900D01*
X122848500Y-73137900D01*
X122848500Y-74606614D01*
X121331300Y-74606614D01*
X121331300Y-73831592D01*
X121320799Y-73728803D01*
X121265614Y-73562266D01*
X121195133Y-73448000D01*
X121173513Y-73412948D01*
X121173510Y-73412944D01*
X121049455Y-73288889D01*
X121049451Y-73288886D01*
X120900137Y-73196787D01*
X120900135Y-73196786D01*
X120800037Y-73163617D01*
X120733597Y-73141601D01*
X120733595Y-73141600D01*
X120630815Y-73131100D01*
X120630808Y-73131100D01*
X118230792Y-73131100D01*
X118230784Y-73131100D01*
X118128004Y-73141600D01*
X118128003Y-73141601D01*
X117961464Y-73196786D01*
X117961462Y-73196787D01*
X117812148Y-73288886D01*
X117812144Y-73288889D01*
X117688089Y-73412944D01*
X117688086Y-73412948D01*
X117595987Y-73562262D01*
X117595986Y-73562264D01*
X117540801Y-73728803D01*
X117540800Y-73728804D01*
X117530300Y-73831584D01*
X107600500Y-73831584D01*
X107600500Y-71588146D01*
X108507000Y-71588146D01*
X108507000Y-71911853D01*
X108542778Y-72137746D01*
X108542778Y-72137749D01*
X108613450Y-72355255D01*
X108613452Y-72355258D01*
X108717283Y-72559038D01*
X108851714Y-72744066D01*
X109013434Y-72905786D01*
X109198462Y-73040217D01*
X109401327Y-73143582D01*
X109402244Y-73144049D01*
X109619751Y-73214721D01*
X109619752Y-73214721D01*
X109619755Y-73214722D01*
X109845646Y-73250500D01*
X109845647Y-73250500D01*
X110074353Y-73250500D01*
X110074354Y-73250500D01*
X110300245Y-73214722D01*
X110300248Y-73214721D01*
X110300249Y-73214721D01*
X110517755Y-73144049D01*
X110517755Y-73144048D01*
X110517758Y-73144048D01*
X110721538Y-73040217D01*
X110906566Y-72905786D01*
X111068286Y-72744066D01*
X111129992Y-72659134D01*
X111185319Y-72616470D01*
X111254932Y-72610491D01*
X111316727Y-72643096D01*
X111330626Y-72659135D01*
X111392097Y-72743741D01*
X111392097Y-72743742D01*
X111553757Y-72905402D01*
X111738723Y-73039788D01*
X111942429Y-73143582D01*
X112159871Y-73214234D01*
X112250000Y-73228509D01*
X112250000Y-72240747D01*
X112287708Y-72262518D01*
X112427591Y-72300000D01*
X112572409Y-72300000D01*
X112712292Y-72262518D01*
X112750000Y-72240747D01*
X112750000Y-73228508D01*
X112840128Y-73214234D01*
X113057570Y-73143582D01*
X113261276Y-73039788D01*
X113444059Y-72906988D01*
X113509865Y-72883508D01*
X113577919Y-72899333D01*
X113626614Y-72949439D01*
X113633127Y-72963974D01*
X113643701Y-72992326D01*
X113643706Y-72992335D01*
X113729952Y-73107544D01*
X113729955Y-73107547D01*
X113845164Y-73193793D01*
X113845171Y-73193797D01*
X113980017Y-73244091D01*
X113980016Y-73244091D01*
X113986944Y-73244835D01*
X114039627Y-73250500D01*
X116040372Y-73250499D01*
X116099983Y-73244091D01*
X116234831Y-73193796D01*
X116350046Y-73107546D01*
X116436296Y-72992331D01*
X116486591Y-72857483D01*
X116493000Y-72797873D01*
X116493000Y-72139900D01*
X117848500Y-72139900D01*
X118113383Y-72139900D01*
X118142006Y-72136976D01*
X118145151Y-72136695D01*
X118164199Y-72135238D01*
X118167349Y-72135037D01*
X118192719Y-72133745D01*
X118195874Y-72133625D01*
X118214945Y-72133140D01*
X118218097Y-72133100D01*
X119350500Y-72133100D01*
X120348500Y-72133100D01*
X120643503Y-72133100D01*
X120646655Y-72133140D01*
X120665726Y-72133625D01*
X120668881Y-72133745D01*
X120694251Y-72135037D01*
X120697401Y-72135238D01*
X120716449Y-72136695D01*
X120719594Y-72136976D01*
X120748217Y-72139900D01*
X121850500Y-72139900D01*
X122848500Y-72139900D01*
X124350500Y-72139900D01*
X124350500Y-71576368D01*
X124260304Y-71510838D01*
X124256416Y-71507894D01*
X124233257Y-71489635D01*
X124229492Y-71486545D01*
X124199685Y-71461084D01*
X124196046Y-71457850D01*
X124174441Y-71437876D01*
X124170937Y-71434506D01*
X123998494Y-71262063D01*
X123995124Y-71258559D01*
X123975150Y-71236954D01*
X123971916Y-71233315D01*
X123946455Y-71203508D01*
X123943365Y-71199743D01*
X123925106Y-71176584D01*
X123922163Y-71172696D01*
X123778790Y-70975358D01*
X123776005Y-70971363D01*
X123759639Y-70946869D01*
X123757014Y-70942767D01*
X123736533Y-70909344D01*
X123734071Y-70905144D01*
X123719681Y-70879448D01*
X123717386Y-70875155D01*
X123606651Y-70657827D01*
X123604525Y-70653443D01*
X123597360Y-70637900D01*
X122848500Y-70637900D01*
X122848500Y-72139900D01*
X121850500Y-72139900D01*
X121850500Y-70637900D01*
X120348500Y-70637900D01*
X120348500Y-72133100D01*
X119350500Y-72133100D01*
X119350500Y-70637900D01*
X117848500Y-70637900D01*
X117848500Y-72139900D01*
X116493000Y-72139900D01*
X116492999Y-70702128D01*
X116486591Y-70642517D01*
X116476841Y-70616377D01*
X116436297Y-70507671D01*
X116436293Y-70507664D01*
X116350047Y-70392455D01*
X116350044Y-70392452D01*
X116234835Y-70306206D01*
X116234828Y-70306202D01*
X116099982Y-70255908D01*
X116099983Y-70255908D01*
X116040383Y-70249501D01*
X116040381Y-70249500D01*
X116040373Y-70249500D01*
X116040364Y-70249500D01*
X114039629Y-70249500D01*
X114039623Y-70249501D01*
X113980016Y-70255908D01*
X113845171Y-70306202D01*
X113845164Y-70306206D01*
X113729955Y-70392452D01*
X113729952Y-70392455D01*
X113643706Y-70507664D01*
X113643702Y-70507671D01*
X113633127Y-70536026D01*
X113591256Y-70591960D01*
X113525791Y-70616377D01*
X113457518Y-70601525D01*
X113444060Y-70593011D01*
X113261279Y-70460213D01*
X113057568Y-70356417D01*
X112840124Y-70285765D01*
X112750000Y-70271490D01*
X112750000Y-71259252D01*
X112712292Y-71237482D01*
X112572409Y-71200000D01*
X112427591Y-71200000D01*
X112287708Y-71237482D01*
X112250000Y-71259252D01*
X112250000Y-70271490D01*
X112249999Y-70271490D01*
X112159875Y-70285765D01*
X111942431Y-70356417D01*
X111738723Y-70460211D01*
X111553757Y-70594597D01*
X111392097Y-70756257D01*
X111330627Y-70840864D01*
X111275297Y-70883529D01*
X111205684Y-70889508D01*
X111143889Y-70856902D01*
X111129991Y-70840864D01*
X111125937Y-70835284D01*
X111068286Y-70755934D01*
X110906566Y-70594214D01*
X110721538Y-70459783D01*
X110705274Y-70451496D01*
X110517755Y-70355950D01*
X110300248Y-70285278D01*
X110114812Y-70255908D01*
X110074354Y-70249500D01*
X109845646Y-70249500D01*
X109805188Y-70255908D01*
X109619753Y-70285278D01*
X109619750Y-70285278D01*
X109402244Y-70355950D01*
X109198461Y-70459783D01*
X109132550Y-70507671D01*
X109013434Y-70594214D01*
X109013432Y-70594216D01*
X109013431Y-70594216D01*
X108851716Y-70755931D01*
X108851716Y-70755932D01*
X108851714Y-70755934D01*
X108797507Y-70830544D01*
X108717283Y-70940961D01*
X108613450Y-71144744D01*
X108542778Y-71362250D01*
X108542778Y-71362253D01*
X108507000Y-71588146D01*
X107600500Y-71588146D01*
X107600500Y-69639900D01*
X108598500Y-69639900D01*
X108629091Y-69639900D01*
X117848500Y-69639900D01*
X119350500Y-69639900D01*
X120348500Y-69639900D01*
X121850500Y-69639900D01*
X122848500Y-69639900D01*
X123411500Y-69639900D01*
X123411500Y-69601038D01*
X123411596Y-69596166D01*
X123412754Y-69566714D01*
X123413041Y-69561849D01*
X123416119Y-69522770D01*
X123416595Y-69517933D01*
X123420055Y-69488699D01*
X123420723Y-69483875D01*
X123458875Y-69242999D01*
X123459730Y-69238211D01*
X123465470Y-69209348D01*
X123466512Y-69204597D01*
X123475660Y-69166478D01*
X123476891Y-69161759D01*
X123484894Y-69133380D01*
X123486308Y-69128717D01*
X123561680Y-68896750D01*
X123563273Y-68892156D01*
X123573457Y-68864547D01*
X123575230Y-68860016D01*
X123590228Y-68823800D01*
X123592182Y-68819333D01*
X123604525Y-68792557D01*
X123606651Y-68788173D01*
X123717386Y-68570845D01*
X123719681Y-68566552D01*
X123734071Y-68540856D01*
X123736533Y-68536656D01*
X123757014Y-68503233D01*
X123759639Y-68499131D01*
X123776005Y-68474637D01*
X123778790Y-68470642D01*
X123922163Y-68273304D01*
X123925106Y-68269416D01*
X123943365Y-68246257D01*
X123946455Y-68242492D01*
X123971916Y-68212685D01*
X123975150Y-68209046D01*
X123995124Y-68187441D01*
X123998494Y-68183937D01*
X124044531Y-68137900D01*
X122848500Y-68137900D01*
X122848500Y-69639900D01*
X121850500Y-69639900D01*
X121850500Y-68137900D01*
X120348500Y-68137900D01*
X120348500Y-69639900D01*
X119350500Y-69639900D01*
X119350500Y-68137900D01*
X117848500Y-68137900D01*
X117848500Y-69639900D01*
X108629091Y-69639900D01*
X108631705Y-69638078D01*
X108656202Y-69621710D01*
X108660303Y-69619085D01*
X108693727Y-69598603D01*
X108697928Y-69596141D01*
X108723624Y-69581751D01*
X108727917Y-69579456D01*
X108966619Y-69457831D01*
X108970998Y-69455707D01*
X108997740Y-69443378D01*
X109002201Y-69441427D01*
X109038417Y-69426425D01*
X109042951Y-69424650D01*
X109070595Y-69414451D01*
X109075198Y-69412855D01*
X109330010Y-69330062D01*
X109334674Y-69328647D01*
X109350500Y-69324184D01*
X109350500Y-69282480D01*
X110348500Y-69282480D01*
X110475713Y-69302630D01*
X110480500Y-69303485D01*
X110509363Y-69309225D01*
X110514114Y-69310267D01*
X110552232Y-69319415D01*
X110556949Y-69320645D01*
X110585326Y-69328647D01*
X110589990Y-69330062D01*
X110844802Y-69412855D01*
X110849405Y-69414451D01*
X110877049Y-69424650D01*
X110881583Y-69426425D01*
X110917799Y-69441427D01*
X110922260Y-69443378D01*
X110949002Y-69455707D01*
X110953381Y-69457831D01*
X111192083Y-69579456D01*
X111196376Y-69581751D01*
X111222072Y-69596141D01*
X111226273Y-69598603D01*
X111230480Y-69601181D01*
X111233991Y-69599030D01*
X111238189Y-69596569D01*
X111263886Y-69582178D01*
X111268180Y-69579883D01*
X111506827Y-69458287D01*
X111511210Y-69456162D01*
X111537985Y-69443819D01*
X111542454Y-69441864D01*
X111578671Y-69426866D01*
X111583200Y-69425094D01*
X111610811Y-69414909D01*
X111615407Y-69413315D01*
X111850500Y-69336928D01*
X111850500Y-69276650D01*
X112848500Y-69276650D01*
X113015625Y-69303122D01*
X113020423Y-69303979D01*
X113049328Y-69309730D01*
X113054083Y-69310773D01*
X113092197Y-69319925D01*
X113096906Y-69321154D01*
X113125238Y-69329145D01*
X113129895Y-69330558D01*
X113384593Y-69413315D01*
X113389189Y-69414909D01*
X113392673Y-69416194D01*
X113398167Y-69413195D01*
X113406081Y-69409233D01*
X113454818Y-69386975D01*
X113462998Y-69383587D01*
X113660482Y-69309931D01*
X113667821Y-69307452D01*
X113712672Y-69293847D01*
X113720148Y-69291832D01*
X113780863Y-69277484D01*
X113788455Y-69275939D01*
X113834660Y-69268028D01*
X113842333Y-69266959D01*
X113946256Y-69255788D01*
X113949561Y-69255478D01*
X113969601Y-69253865D01*
X113972922Y-69253642D01*
X113999605Y-69252214D01*
X114002918Y-69252081D01*
X114022966Y-69251545D01*
X114026280Y-69251501D01*
X114350500Y-69251500D01*
X115348500Y-69251500D01*
X116053748Y-69251500D01*
X116057072Y-69251545D01*
X116077174Y-69252084D01*
X116080494Y-69252217D01*
X116107180Y-69253649D01*
X116110489Y-69253871D01*
X116130482Y-69255481D01*
X116133785Y-69255792D01*
X116237675Y-69266962D01*
X116245343Y-69268029D01*
X116291529Y-69275936D01*
X116299119Y-69277481D01*
X116359830Y-69291826D01*
X116367309Y-69293842D01*
X116412172Y-69307450D01*
X116419512Y-69309929D01*
X116617002Y-69383587D01*
X116625182Y-69386975D01*
X116673919Y-69409233D01*
X116681833Y-69413195D01*
X116744423Y-69447372D01*
X116752037Y-69451890D01*
X116797104Y-69480854D01*
X116804374Y-69485902D01*
X116850500Y-69520432D01*
X116850500Y-68137900D01*
X115348500Y-68137900D01*
X115348500Y-69251500D01*
X114350500Y-69251500D01*
X114350500Y-68137900D01*
X112848500Y-68137900D01*
X112848500Y-69276650D01*
X111850500Y-69276650D01*
X111850500Y-68137900D01*
X110348500Y-68137900D01*
X110348500Y-69282480D01*
X109350500Y-69282480D01*
X109350500Y-68137900D01*
X108598500Y-68137900D01*
X108598500Y-69639900D01*
X107600500Y-69639900D01*
X107600500Y-67139900D01*
X108598500Y-67139900D01*
X109350500Y-67139900D01*
X109350500Y-66919918D01*
X120348500Y-66919918D01*
X120348500Y-67139900D01*
X121850500Y-67139900D01*
X122848500Y-67139900D01*
X124350500Y-67139900D01*
X125348500Y-67139900D01*
X126850500Y-67139900D01*
X127848500Y-67139900D01*
X129350500Y-67139900D01*
X130348500Y-67139900D01*
X131850500Y-67139900D01*
X131850500Y-65637900D01*
X130348500Y-65637900D01*
X130348500Y-67139900D01*
X129350500Y-67139900D01*
X129350500Y-65637900D01*
X127848500Y-65637900D01*
X127848500Y-67139900D01*
X126850500Y-67139900D01*
X126850500Y-65637900D01*
X125348500Y-65637900D01*
X125348500Y-67139900D01*
X124350500Y-67139900D01*
X124350500Y-65637900D01*
X122848500Y-65637900D01*
X122848500Y-67139900D01*
X121850500Y-67139900D01*
X121850500Y-65637900D01*
X121290120Y-65637900D01*
X121228920Y-65826250D01*
X121227327Y-65830844D01*
X121217143Y-65858453D01*
X121215370Y-65862984D01*
X121200372Y-65899200D01*
X121198418Y-65903667D01*
X121186075Y-65930443D01*
X121183949Y-65934827D01*
X121073214Y-66152155D01*
X121070919Y-66156448D01*
X121056529Y-66182144D01*
X121054067Y-66186344D01*
X121033586Y-66219767D01*
X121030961Y-66223869D01*
X121014595Y-66248363D01*
X121011810Y-66252358D01*
X120868437Y-66449696D01*
X120865494Y-66453584D01*
X120847235Y-66476743D01*
X120844145Y-66480508D01*
X120818684Y-66510315D01*
X120815450Y-66513954D01*
X120795476Y-66535559D01*
X120792106Y-66539063D01*
X120619663Y-66711506D01*
X120616159Y-66714876D01*
X120594554Y-66734850D01*
X120590915Y-66738084D01*
X120561108Y-66763545D01*
X120557343Y-66766635D01*
X120534184Y-66784894D01*
X120530296Y-66787837D01*
X120348500Y-66919918D01*
X109350500Y-66919918D01*
X109350500Y-66736527D01*
X109332985Y-66716818D01*
X109264920Y-66595278D01*
X109143376Y-66527211D01*
X109103647Y-66491906D01*
X108929412Y-66252090D01*
X108926627Y-66248095D01*
X108910249Y-66223583D01*
X108907619Y-66219474D01*
X108887140Y-66186049D01*
X108884682Y-66181854D01*
X108870302Y-66156175D01*
X108868008Y-66151884D01*
X108757314Y-65934634D01*
X108755189Y-65930251D01*
X108742846Y-65903476D01*
X108740891Y-65899008D01*
X108725893Y-65862792D01*
X108724120Y-65858261D01*
X108713936Y-65830652D01*
X108712343Y-65826058D01*
X108651205Y-65637900D01*
X108598500Y-65637900D01*
X108598500Y-67139900D01*
X107600500Y-67139900D01*
X107600500Y-64897682D01*
X109560200Y-64897682D01*
X109560200Y-65102317D01*
X109592209Y-65304417D01*
X109655444Y-65499031D01*
X109748341Y-65681350D01*
X109748347Y-65681359D01*
X109780723Y-65725921D01*
X109780724Y-65725922D01*
X110460200Y-65046446D01*
X110460200Y-65052661D01*
X110487459Y-65154394D01*
X110540120Y-65245606D01*
X110614594Y-65320080D01*
X110705806Y-65372741D01*
X110807539Y-65400000D01*
X110813753Y-65400000D01*
X110134276Y-66079474D01*
X110178850Y-66111859D01*
X110361168Y-66204755D01*
X110555782Y-66267990D01*
X110757883Y-66300000D01*
X110962517Y-66300000D01*
X111164617Y-66267990D01*
X111359231Y-66204755D01*
X111541549Y-66111859D01*
X111586121Y-66079474D01*
X110906647Y-65400000D01*
X110912861Y-65400000D01*
X111014594Y-65372741D01*
X111105806Y-65320080D01*
X111180280Y-65245606D01*
X111232941Y-65154394D01*
X111260200Y-65052661D01*
X111260200Y-65046447D01*
X111939674Y-65725921D01*
X111972059Y-65681349D01*
X111999433Y-65627624D01*
X112047407Y-65576827D01*
X112115228Y-65560031D01*
X112181363Y-65582567D01*
X112220403Y-65627621D01*
X112247913Y-65681611D01*
X112368228Y-65847213D01*
X112512986Y-65991971D01*
X112633426Y-66079474D01*
X112678590Y-66112287D01*
X112764725Y-66156175D01*
X112860976Y-66205218D01*
X112860978Y-66205218D01*
X112860981Y-66205220D01*
X112918377Y-66223869D01*
X113055665Y-66268477D01*
X113156757Y-66284488D01*
X113257848Y-66300500D01*
X113257849Y-66300500D01*
X113462551Y-66300500D01*
X113462552Y-66300500D01*
X113664734Y-66268477D01*
X113859419Y-66205220D01*
X114041810Y-66112287D01*
X114134790Y-66044732D01*
X114207413Y-65991971D01*
X114207415Y-65991968D01*
X114207419Y-65991966D01*
X114352166Y-65847219D01*
X114352168Y-65847215D01*
X114352171Y-65847213D01*
X114404932Y-65774590D01*
X114472487Y-65681610D01*
X114565420Y-65499219D01*
X114628677Y-65304534D01*
X114660700Y-65102352D01*
X114660700Y-64897682D01*
X115280600Y-64897682D01*
X115280600Y-65102317D01*
X115312609Y-65304417D01*
X115375844Y-65499031D01*
X115468741Y-65681350D01*
X115468747Y-65681359D01*
X115501123Y-65725921D01*
X115501124Y-65725922D01*
X116180600Y-65046446D01*
X116180600Y-65052661D01*
X116207859Y-65154394D01*
X116260520Y-65245606D01*
X116334994Y-65320080D01*
X116426206Y-65372741D01*
X116527939Y-65400000D01*
X116534153Y-65400000D01*
X115854676Y-66079474D01*
X115899250Y-66111859D01*
X116081568Y-66204755D01*
X116276182Y-66267990D01*
X116478283Y-66300000D01*
X116682917Y-66300000D01*
X116885017Y-66267990D01*
X117079631Y-66204755D01*
X117261949Y-66111859D01*
X117306521Y-66079474D01*
X116627047Y-65400000D01*
X116633261Y-65400000D01*
X116734994Y-65372741D01*
X116826206Y-65320080D01*
X116900680Y-65245606D01*
X116953341Y-65154394D01*
X116980600Y-65052661D01*
X116980600Y-65046447D01*
X117660074Y-65725921D01*
X117692459Y-65681349D01*
X117719833Y-65627624D01*
X117767807Y-65576827D01*
X117835628Y-65560031D01*
X117901763Y-65582567D01*
X117940803Y-65627621D01*
X117968313Y-65681611D01*
X118088628Y-65847213D01*
X118233386Y-65991971D01*
X118353826Y-66079474D01*
X118398990Y-66112287D01*
X118485125Y-66156175D01*
X118581376Y-66205218D01*
X118581378Y-66205218D01*
X118581381Y-66205220D01*
X118638777Y-66223869D01*
X118776065Y-66268477D01*
X118877157Y-66284488D01*
X118978248Y-66300500D01*
X118978249Y-66300500D01*
X119182951Y-66300500D01*
X119182952Y-66300500D01*
X119385134Y-66268477D01*
X119579819Y-66205220D01*
X119762210Y-66112287D01*
X119855190Y-66044732D01*
X119927813Y-65991971D01*
X119927815Y-65991968D01*
X119927819Y-65991966D01*
X120072566Y-65847219D01*
X120072568Y-65847215D01*
X120072571Y-65847213D01*
X120125332Y-65774590D01*
X120192887Y-65681610D01*
X120285820Y-65499219D01*
X120349077Y-65304534D01*
X120381100Y-65102352D01*
X120381100Y-64897648D01*
X120372857Y-64845606D01*
X120349077Y-64695465D01*
X120314794Y-64589953D01*
X120285820Y-64500781D01*
X120285818Y-64500778D01*
X120285818Y-64500776D01*
X120237382Y-64405717D01*
X120192887Y-64318390D01*
X120160692Y-64274077D01*
X120072571Y-64152786D01*
X119927813Y-64008028D01*
X119762213Y-63887715D01*
X119762212Y-63887714D01*
X119762210Y-63887713D01*
X119705253Y-63858691D01*
X119579823Y-63794781D01*
X119385134Y-63731522D01*
X119210595Y-63703878D01*
X119182952Y-63699500D01*
X118978248Y-63699500D01*
X118953929Y-63703351D01*
X118776065Y-63731522D01*
X118581376Y-63794781D01*
X118398986Y-63887715D01*
X118233386Y-64008028D01*
X118088628Y-64152786D01*
X117968314Y-64318386D01*
X117940803Y-64372379D01*
X117892827Y-64423174D01*
X117825006Y-64439968D01*
X117758872Y-64417429D01*
X117719834Y-64372376D01*
X117692461Y-64318652D01*
X117660074Y-64274077D01*
X117660074Y-64274076D01*
X116980600Y-64953551D01*
X116980600Y-64947339D01*
X116953341Y-64845606D01*
X116900680Y-64754394D01*
X116826206Y-64679920D01*
X116734994Y-64627259D01*
X116633261Y-64600000D01*
X116627046Y-64600000D01*
X117306522Y-63920524D01*
X117306521Y-63920523D01*
X117261959Y-63888147D01*
X117261950Y-63888141D01*
X117079631Y-63795244D01*
X116885017Y-63732009D01*
X116682917Y-63700000D01*
X116478283Y-63700000D01*
X116276182Y-63732009D01*
X116081568Y-63795244D01*
X115899244Y-63888143D01*
X115854677Y-63920523D01*
X115854677Y-63920524D01*
X116534154Y-64600000D01*
X116527939Y-64600000D01*
X116426206Y-64627259D01*
X116334994Y-64679920D01*
X116260520Y-64754394D01*
X116207859Y-64845606D01*
X116180600Y-64947339D01*
X116180600Y-64953553D01*
X115501124Y-64274077D01*
X115501123Y-64274077D01*
X115468743Y-64318644D01*
X115375844Y-64500968D01*
X115312609Y-64695582D01*
X115280600Y-64897682D01*
X114660700Y-64897682D01*
X114660700Y-64897648D01*
X114652457Y-64845606D01*
X114628677Y-64695465D01*
X114594394Y-64589953D01*
X114565420Y-64500781D01*
X114565418Y-64500778D01*
X114565418Y-64500776D01*
X114516982Y-64405717D01*
X114472487Y-64318390D01*
X114440292Y-64274077D01*
X114352171Y-64152786D01*
X114207413Y-64008028D01*
X114041813Y-63887715D01*
X114041812Y-63887714D01*
X114041810Y-63887713D01*
X113984853Y-63858691D01*
X113859423Y-63794781D01*
X113664734Y-63731522D01*
X113490195Y-63703878D01*
X113462552Y-63699500D01*
X113257848Y-63699500D01*
X113233529Y-63703351D01*
X113055665Y-63731522D01*
X112860976Y-63794781D01*
X112678586Y-63887715D01*
X112512986Y-64008028D01*
X112368228Y-64152786D01*
X112247914Y-64318386D01*
X112220403Y-64372379D01*
X112172427Y-64423174D01*
X112104606Y-64439968D01*
X112038472Y-64417429D01*
X111999434Y-64372376D01*
X111972061Y-64318652D01*
X111939674Y-64274077D01*
X111939674Y-64274076D01*
X111260200Y-64953551D01*
X111260200Y-64947339D01*
X111232941Y-64845606D01*
X111180280Y-64754394D01*
X111105806Y-64679920D01*
X111014594Y-64627259D01*
X110912861Y-64600000D01*
X110906646Y-64600000D01*
X111586122Y-63920524D01*
X111586121Y-63920523D01*
X111541559Y-63888147D01*
X111541550Y-63888141D01*
X111359231Y-63795244D01*
X111164617Y-63732009D01*
X110962517Y-63700000D01*
X110757883Y-63700000D01*
X110555782Y-63732009D01*
X110361168Y-63795244D01*
X110178844Y-63888143D01*
X110134277Y-63920523D01*
X110134277Y-63920524D01*
X110813754Y-64600000D01*
X110807539Y-64600000D01*
X110705806Y-64627259D01*
X110614594Y-64679920D01*
X110540120Y-64754394D01*
X110487459Y-64845606D01*
X110460200Y-64947339D01*
X110460200Y-64953553D01*
X109780724Y-64274077D01*
X109780723Y-64274077D01*
X109748343Y-64318644D01*
X109655444Y-64500968D01*
X109592209Y-64695582D01*
X109560200Y-64897682D01*
X107600500Y-64897682D01*
X107600500Y-64589953D01*
X108598500Y-64589953D01*
X108609562Y-64520114D01*
X108610417Y-64515326D01*
X108616157Y-64486464D01*
X108617199Y-64481714D01*
X108626347Y-64443595D01*
X108627578Y-64438876D01*
X108635581Y-64410497D01*
X108636995Y-64405834D01*
X108712343Y-64173942D01*
X108713936Y-64169348D01*
X108724120Y-64141739D01*
X108725893Y-64137208D01*
X108740891Y-64100992D01*
X108742846Y-64096524D01*
X108755189Y-64069749D01*
X108757314Y-64065366D01*
X108868005Y-63848122D01*
X108870297Y-63843834D01*
X108884670Y-63818166D01*
X108887130Y-63813969D01*
X108907608Y-63780545D01*
X108910234Y-63776441D01*
X108926616Y-63751920D01*
X108929404Y-63747920D01*
X109103641Y-63508098D01*
X109143369Y-63472793D01*
X109264919Y-63404719D01*
X109332993Y-63283169D01*
X109350500Y-63263468D01*
X109350500Y-63137900D01*
X120428081Y-63137900D01*
X120530296Y-63212163D01*
X120534184Y-63215106D01*
X120557343Y-63233365D01*
X120561108Y-63236455D01*
X120590915Y-63261916D01*
X120594554Y-63265150D01*
X120616159Y-63285124D01*
X120619663Y-63288494D01*
X120792106Y-63460937D01*
X120795476Y-63464441D01*
X120815450Y-63486046D01*
X120818684Y-63489685D01*
X120844145Y-63519492D01*
X120847235Y-63523257D01*
X120865494Y-63546416D01*
X120868437Y-63550304D01*
X121011810Y-63747642D01*
X121014595Y-63751637D01*
X121030961Y-63776131D01*
X121033586Y-63780233D01*
X121054067Y-63813656D01*
X121056529Y-63817856D01*
X121070919Y-63843552D01*
X121073214Y-63847845D01*
X121183949Y-64065173D01*
X121186075Y-64069557D01*
X121198418Y-64096333D01*
X121200372Y-64100800D01*
X121215370Y-64137016D01*
X121217143Y-64141547D01*
X121227327Y-64169156D01*
X121228920Y-64173750D01*
X121304292Y-64405717D01*
X121305706Y-64410380D01*
X121313709Y-64438759D01*
X121314940Y-64443478D01*
X121324088Y-64481597D01*
X121325130Y-64486348D01*
X121330870Y-64515211D01*
X121331725Y-64519998D01*
X121350716Y-64639900D01*
X121850500Y-64639900D01*
X122848500Y-64639900D01*
X124350500Y-64639900D01*
X124350500Y-63401576D01*
X125348500Y-63401576D01*
X125348500Y-64639900D01*
X126850500Y-64639900D01*
X127848500Y-64639900D01*
X129350500Y-64639900D01*
X129350500Y-63402899D01*
X130348500Y-63402899D01*
X130348500Y-64639900D01*
X131850500Y-64639900D01*
X131850500Y-63383202D01*
X131848006Y-63383596D01*
X131841299Y-63384466D01*
X131698787Y-63399024D01*
X131695639Y-63399305D01*
X131676595Y-63400761D01*
X131673449Y-63400962D01*
X131648080Y-63402254D01*
X131644926Y-63402374D01*
X131625856Y-63402859D01*
X131622703Y-63402899D01*
X130348500Y-63402899D01*
X129350500Y-63402899D01*
X129350500Y-63401164D01*
X129346548Y-63400963D01*
X129343398Y-63400762D01*
X129324349Y-63399305D01*
X129321204Y-63399024D01*
X129178681Y-63384464D01*
X129171972Y-63383593D01*
X129131543Y-63377219D01*
X129124892Y-63375984D01*
X129071641Y-63364582D01*
X129065074Y-63362987D01*
X129025600Y-63352256D01*
X129019125Y-63350305D01*
X128799182Y-63277423D01*
X128792404Y-63274956D01*
X128751853Y-63258846D01*
X128745234Y-63255991D01*
X128692588Y-63231444D01*
X128686140Y-63228206D01*
X128647715Y-63207488D01*
X128641467Y-63203881D01*
X128534494Y-63137900D01*
X127848500Y-63137900D01*
X127848500Y-64639900D01*
X126850500Y-64639900D01*
X126850500Y-63137900D01*
X126705103Y-63137900D01*
X126704831Y-63138018D01*
X126456650Y-63240817D01*
X126452874Y-63242309D01*
X126429887Y-63250960D01*
X126426065Y-63252328D01*
X126395135Y-63262826D01*
X126391274Y-63264066D01*
X126367801Y-63271186D01*
X126363902Y-63272300D01*
X126104444Y-63341822D01*
X126100507Y-63342808D01*
X126076605Y-63348381D01*
X126072637Y-63349238D01*
X126040600Y-63355610D01*
X126036612Y-63356335D01*
X126012393Y-63360334D01*
X126008378Y-63360930D01*
X125742053Y-63395993D01*
X125738025Y-63396457D01*
X125713594Y-63398864D01*
X125709544Y-63399196D01*
X125676948Y-63401332D01*
X125672897Y-63401531D01*
X125648366Y-63402334D01*
X125644309Y-63402400D01*
X125375691Y-63402400D01*
X125371634Y-63402334D01*
X125348500Y-63401576D01*
X124350500Y-63401576D01*
X124350500Y-63152652D01*
X124315169Y-63138018D01*
X124314897Y-63137900D01*
X122848500Y-63137900D01*
X122848500Y-64639900D01*
X121850500Y-64639900D01*
X121850500Y-63137900D01*
X120428081Y-63137900D01*
X109350500Y-63137900D01*
X108598500Y-63137900D01*
X108598500Y-64589953D01*
X107600500Y-64589953D01*
X107600500Y-62139900D01*
X108598500Y-62139900D01*
X109350500Y-62139900D01*
X110348500Y-62139900D01*
X111850500Y-62139900D01*
X112848500Y-62139900D01*
X114350500Y-62139900D01*
X115348500Y-62139900D01*
X116850500Y-62139900D01*
X117848500Y-62139900D01*
X119350500Y-62139900D01*
X120348500Y-62139900D01*
X121850500Y-62139900D01*
X121850500Y-60637900D01*
X120348500Y-60637900D01*
X120348500Y-62139900D01*
X119350500Y-62139900D01*
X119350500Y-60637900D01*
X117848500Y-60637900D01*
X117848500Y-62139900D01*
X116850500Y-62139900D01*
X116850500Y-60637900D01*
X115348500Y-60637900D01*
X115348500Y-62139900D01*
X114350500Y-62139900D01*
X114350500Y-60637900D01*
X112848500Y-60637900D01*
X112848500Y-62139900D01*
X111850500Y-62139900D01*
X111850500Y-60637900D01*
X110348500Y-60637900D01*
X110348500Y-62139900D01*
X109350500Y-62139900D01*
X109350500Y-60637900D01*
X108598500Y-60637900D01*
X108598500Y-62139900D01*
X107600500Y-62139900D01*
X107600500Y-60486414D01*
X123710000Y-60486414D01*
X123710000Y-60722385D01*
X123740799Y-60956314D01*
X123801870Y-61184237D01*
X123892160Y-61402219D01*
X123892165Y-61402228D01*
X124010144Y-61606571D01*
X124010145Y-61606572D01*
X124072721Y-61688123D01*
X124908958Y-60851887D01*
X124933978Y-60912290D01*
X125005112Y-61018751D01*
X125095649Y-61109288D01*
X125202110Y-61180422D01*
X125262511Y-61205441D01*
X124426275Y-62041677D01*
X124507827Y-62104254D01*
X124507828Y-62104255D01*
X124712171Y-62222234D01*
X124712180Y-62222239D01*
X124930163Y-62312529D01*
X124930161Y-62312529D01*
X125158085Y-62373600D01*
X125392014Y-62404399D01*
X125392029Y-62404400D01*
X125627971Y-62404400D01*
X125627985Y-62404399D01*
X125861914Y-62373600D01*
X126089837Y-62312529D01*
X126307819Y-62222239D01*
X126307828Y-62222234D01*
X126512181Y-62104250D01*
X126593723Y-62041679D01*
X126593723Y-62041676D01*
X125757487Y-61205441D01*
X125817890Y-61180422D01*
X125924351Y-61109288D01*
X126014888Y-61018751D01*
X126086022Y-60912290D01*
X126111041Y-60851888D01*
X126947276Y-61688123D01*
X126947279Y-61688123D01*
X127009850Y-61606581D01*
X127127834Y-61402228D01*
X127127839Y-61402219D01*
X127218129Y-61184237D01*
X127279200Y-60956314D01*
X127309999Y-60722385D01*
X127310000Y-60722371D01*
X127310000Y-60486428D01*
X127309999Y-60486414D01*
X127279200Y-60252485D01*
X127218129Y-60024562D01*
X127127839Y-59806580D01*
X127127834Y-59806571D01*
X127009855Y-59602228D01*
X127009854Y-59602227D01*
X126947277Y-59520675D01*
X126111041Y-60356911D01*
X126086022Y-60296510D01*
X126014888Y-60190049D01*
X125924351Y-60099512D01*
X125817890Y-60028378D01*
X125757488Y-60003358D01*
X126256462Y-59504383D01*
X128709500Y-59504383D01*
X128709500Y-61704401D01*
X128709501Y-61704418D01*
X128720000Y-61807196D01*
X128720001Y-61807199D01*
X128751027Y-61900828D01*
X128775186Y-61973734D01*
X128867288Y-62123056D01*
X128991344Y-62247112D01*
X129140666Y-62339214D01*
X129307203Y-62394399D01*
X129409991Y-62404900D01*
X131610008Y-62404899D01*
X131712797Y-62394399D01*
X131879334Y-62339214D01*
X132028656Y-62247112D01*
X132152712Y-62123056D01*
X132244814Y-61973734D01*
X132299999Y-61807197D01*
X132310500Y-61704409D01*
X132310499Y-59504392D01*
X132307712Y-59477113D01*
X132299999Y-59401603D01*
X132299998Y-59401600D01*
X132291976Y-59377392D01*
X132244814Y-59235066D01*
X132152712Y-59085744D01*
X132028656Y-58961688D01*
X131899903Y-58882273D01*
X131879336Y-58869587D01*
X131879331Y-58869585D01*
X131877862Y-58869098D01*
X131712797Y-58814401D01*
X131712795Y-58814400D01*
X131610010Y-58803900D01*
X129409998Y-58803900D01*
X129409981Y-58803901D01*
X129307203Y-58814400D01*
X129307200Y-58814401D01*
X129140668Y-58869585D01*
X129140663Y-58869587D01*
X128991342Y-58961689D01*
X128867289Y-59085742D01*
X128775187Y-59235063D01*
X128775185Y-59235068D01*
X128757303Y-59289034D01*
X128720001Y-59401603D01*
X128720001Y-59401604D01*
X128720000Y-59401604D01*
X128709500Y-59504383D01*
X126256462Y-59504383D01*
X126593723Y-59167121D01*
X126512172Y-59104545D01*
X126512171Y-59104544D01*
X126307828Y-58986565D01*
X126307819Y-58986560D01*
X126089836Y-58896270D01*
X126089838Y-58896270D01*
X125861914Y-58835199D01*
X125627985Y-58804400D01*
X125392014Y-58804400D01*
X125158085Y-58835199D01*
X124930162Y-58896270D01*
X124712180Y-58986560D01*
X124712171Y-58986565D01*
X124507828Y-59104544D01*
X124507818Y-59104550D01*
X124426275Y-59167120D01*
X124426275Y-59167121D01*
X125262512Y-60003358D01*
X125202110Y-60028378D01*
X125095649Y-60099512D01*
X125005112Y-60190049D01*
X124933978Y-60296510D01*
X124908958Y-60356911D01*
X124072721Y-59520675D01*
X124072720Y-59520675D01*
X124010150Y-59602218D01*
X124010144Y-59602228D01*
X123892165Y-59806571D01*
X123892160Y-59806580D01*
X123801870Y-60024562D01*
X123740799Y-60252485D01*
X123710000Y-60486414D01*
X107600500Y-60486414D01*
X107600500Y-59639900D01*
X108598500Y-59639900D01*
X109350500Y-59639900D01*
X110348500Y-59639900D01*
X111850500Y-59639900D01*
X111850500Y-59425999D01*
X115348500Y-59425999D01*
X115348500Y-59639900D01*
X116850500Y-59639900D01*
X116850500Y-59424493D01*
X116849914Y-59424459D01*
X116810835Y-59421381D01*
X116805997Y-59420904D01*
X116776764Y-59417444D01*
X116771941Y-59416777D01*
X116523272Y-59377392D01*
X116518477Y-59376536D01*
X116489577Y-59370787D01*
X116484817Y-59369742D01*
X116446700Y-59360589D01*
X116441995Y-59359362D01*
X116413653Y-59351369D01*
X116408993Y-59349955D01*
X116181498Y-59276037D01*
X117848500Y-59276037D01*
X117848500Y-59639900D01*
X119350500Y-59639900D01*
X119350500Y-59421347D01*
X119345997Y-59420904D01*
X119316764Y-59417444D01*
X119311941Y-59416777D01*
X119063272Y-59377392D01*
X119058477Y-59376536D01*
X119029577Y-59370787D01*
X119024817Y-59369742D01*
X118986700Y-59360589D01*
X118981995Y-59359362D01*
X118953653Y-59351369D01*
X118948993Y-59349955D01*
X118761499Y-59289034D01*
X120348500Y-59289034D01*
X120348500Y-59639900D01*
X121850500Y-59639900D01*
X122848500Y-59639900D01*
X122880977Y-59639900D01*
X122976382Y-59409569D01*
X122977995Y-59405847D01*
X122988124Y-59383491D01*
X122989860Y-59379822D01*
X123004308Y-59350524D01*
X123006160Y-59346917D01*
X123017733Y-59325264D01*
X123019706Y-59321713D01*
X123154017Y-59089083D01*
X123156104Y-59085602D01*
X123169061Y-59064766D01*
X123171257Y-59061359D01*
X123189402Y-59034202D01*
X123191711Y-59030867D01*
X123206011Y-59010910D01*
X123208430Y-59007648D01*
X123413763Y-58740049D01*
X123453685Y-58706177D01*
X123556708Y-58651108D01*
X123611777Y-58548085D01*
X123645649Y-58508163D01*
X123825516Y-58370148D01*
X132848500Y-58370148D01*
X132878939Y-58400587D01*
X132883887Y-58405831D01*
X132912898Y-58438429D01*
X132917536Y-58443956D01*
X132953566Y-58489523D01*
X132957872Y-58495307D01*
X132982913Y-58531067D01*
X132986879Y-58537097D01*
X133109481Y-58735868D01*
X133113088Y-58742115D01*
X133133806Y-58780540D01*
X133137044Y-58786987D01*
X133161591Y-58839632D01*
X133164447Y-58846254D01*
X133180556Y-58886804D01*
X133183022Y-58893580D01*
X133255909Y-59113537D01*
X133257861Y-59120014D01*
X133268599Y-59159516D01*
X133270195Y-59166091D01*
X133281593Y-59219345D01*
X133282827Y-59225989D01*
X133289196Y-59266394D01*
X133290066Y-59273101D01*
X133304624Y-59415613D01*
X133304905Y-59418761D01*
X133306361Y-59437805D01*
X133306562Y-59440951D01*
X133307854Y-59466320D01*
X133307974Y-59469474D01*
X133308459Y-59488544D01*
X133308499Y-59491697D01*
X133308499Y-59639900D01*
X134350500Y-59639900D01*
X134350500Y-59477113D01*
X135704700Y-59477113D01*
X135704700Y-59689686D01*
X135737953Y-59899639D01*
X135803644Y-60101814D01*
X135900151Y-60291220D01*
X136025090Y-60463186D01*
X136175413Y-60613509D01*
X136347379Y-60738448D01*
X136347381Y-60738449D01*
X136347384Y-60738451D01*
X136536788Y-60834957D01*
X136738957Y-60900646D01*
X136948913Y-60933900D01*
X136948914Y-60933900D01*
X137161486Y-60933900D01*
X137161487Y-60933900D01*
X137371443Y-60900646D01*
X137573612Y-60834957D01*
X137763016Y-60738451D01*
X137820957Y-60696355D01*
X137934986Y-60613509D01*
X137934988Y-60613506D01*
X137934992Y-60613504D01*
X138085304Y-60463192D01*
X138085306Y-60463188D01*
X138085309Y-60463186D01*
X138210248Y-60291220D01*
X138210247Y-60291220D01*
X138210251Y-60291216D01*
X138306757Y-60101812D01*
X138372446Y-59899643D01*
X138405700Y-59689687D01*
X138405700Y-59477113D01*
X138372446Y-59267157D01*
X138306757Y-59064988D01*
X138210251Y-58875584D01*
X138210249Y-58875581D01*
X138210248Y-58875579D01*
X138085309Y-58703613D01*
X137971381Y-58589685D01*
X137937896Y-58528362D01*
X137942880Y-58458670D01*
X137984752Y-58402737D01*
X138015729Y-58385822D01*
X138147286Y-58336754D01*
X138147293Y-58336750D01*
X138262387Y-58250590D01*
X138262390Y-58250587D01*
X138348550Y-58135493D01*
X138348554Y-58135486D01*
X138398796Y-58000779D01*
X138398798Y-58000772D01*
X138405199Y-57941244D01*
X138405200Y-57941227D01*
X138405200Y-57293400D01*
X137488212Y-57293400D01*
X137521125Y-57236393D01*
X137555200Y-57109226D01*
X137555200Y-56977574D01*
X137521125Y-56850407D01*
X137488212Y-56793400D01*
X138405200Y-56793400D01*
X138405200Y-56145572D01*
X138405199Y-56145555D01*
X138398798Y-56086027D01*
X138398796Y-56086020D01*
X138348554Y-55951313D01*
X138348550Y-55951306D01*
X138262390Y-55836212D01*
X138262387Y-55836209D01*
X138147293Y-55750049D01*
X138147286Y-55750045D01*
X138012579Y-55699803D01*
X138012572Y-55699801D01*
X137953044Y-55693400D01*
X137305200Y-55693400D01*
X137305200Y-56610388D01*
X137248193Y-56577475D01*
X137121026Y-56543400D01*
X136989374Y-56543400D01*
X136862207Y-56577475D01*
X136805200Y-56610388D01*
X136805200Y-55693400D01*
X136157355Y-55693400D01*
X136097827Y-55699801D01*
X136097820Y-55699803D01*
X135963113Y-55750045D01*
X135963106Y-55750049D01*
X135848012Y-55836209D01*
X135848009Y-55836212D01*
X135761849Y-55951306D01*
X135761845Y-55951313D01*
X135711603Y-56086020D01*
X135711601Y-56086027D01*
X135705200Y-56145555D01*
X135705200Y-56793400D01*
X136622188Y-56793400D01*
X136589275Y-56850407D01*
X136555200Y-56977574D01*
X136555200Y-57109226D01*
X136589275Y-57236393D01*
X136622188Y-57293400D01*
X135705200Y-57293400D01*
X135705200Y-57941244D01*
X135711601Y-58000772D01*
X135711603Y-58000779D01*
X135761845Y-58135486D01*
X135761849Y-58135493D01*
X135848009Y-58250587D01*
X135848012Y-58250590D01*
X135963106Y-58336750D01*
X135963113Y-58336754D01*
X136094670Y-58385822D01*
X136150604Y-58427693D01*
X136175021Y-58493158D01*
X136160169Y-58561431D01*
X136139019Y-58589685D01*
X136025089Y-58703615D01*
X135900151Y-58875579D01*
X135803644Y-59064985D01*
X135737953Y-59267160D01*
X135704700Y-59477113D01*
X134350500Y-59477113D01*
X134350500Y-58137900D01*
X132848500Y-58137900D01*
X132848500Y-58370148D01*
X123825516Y-58370148D01*
X123913248Y-58302830D01*
X123916510Y-58300411D01*
X123936467Y-58286111D01*
X123939802Y-58283802D01*
X123966959Y-58265657D01*
X123970366Y-58263461D01*
X123991202Y-58250504D01*
X123994683Y-58248417D01*
X124186101Y-58137900D01*
X122848500Y-58137900D01*
X122848500Y-59639900D01*
X121850500Y-59639900D01*
X121850500Y-58137900D01*
X121650482Y-58137900D01*
X121590378Y-58255861D01*
X121588083Y-58260154D01*
X121573693Y-58285850D01*
X121571231Y-58290050D01*
X121550750Y-58323473D01*
X121548126Y-58327573D01*
X121531760Y-58352068D01*
X121528974Y-58356065D01*
X121380975Y-58559769D01*
X121378032Y-58563657D01*
X121359773Y-58586816D01*
X121356683Y-58590581D01*
X121331222Y-58620388D01*
X121327988Y-58624027D01*
X121308014Y-58645632D01*
X121304644Y-58649136D01*
X121126636Y-58827144D01*
X121123132Y-58830514D01*
X121101527Y-58850488D01*
X121097888Y-58853722D01*
X121068081Y-58879183D01*
X121064316Y-58882273D01*
X121041157Y-58900532D01*
X121037269Y-58903475D01*
X120833565Y-59051474D01*
X120829568Y-59054260D01*
X120805073Y-59070626D01*
X120800973Y-59073250D01*
X120767550Y-59093731D01*
X120763350Y-59096193D01*
X120737654Y-59110583D01*
X120733361Y-59112878D01*
X120509019Y-59227186D01*
X120504636Y-59229311D01*
X120477861Y-59241654D01*
X120473392Y-59243609D01*
X120437175Y-59258607D01*
X120432647Y-59260379D01*
X120405037Y-59270564D01*
X120400440Y-59272158D01*
X120348500Y-59289034D01*
X118761499Y-59289034D01*
X118709560Y-59272158D01*
X118704963Y-59270564D01*
X118677353Y-59260379D01*
X118672825Y-59258607D01*
X118636608Y-59243609D01*
X118632139Y-59241654D01*
X118605364Y-59229311D01*
X118600981Y-59227186D01*
X118376639Y-59112878D01*
X118372346Y-59110583D01*
X118346650Y-59096193D01*
X118342450Y-59093731D01*
X118309027Y-59073250D01*
X118304927Y-59070626D01*
X118285000Y-59057312D01*
X118265073Y-59070626D01*
X118260973Y-59073250D01*
X118227550Y-59093731D01*
X118223350Y-59096193D01*
X118197654Y-59110583D01*
X118193361Y-59112878D01*
X117969019Y-59227186D01*
X117964636Y-59229311D01*
X117937861Y-59241654D01*
X117933392Y-59243609D01*
X117897175Y-59258607D01*
X117892647Y-59260379D01*
X117865037Y-59270564D01*
X117860440Y-59272158D01*
X117848500Y-59276037D01*
X116181498Y-59276037D01*
X116169560Y-59272158D01*
X116164963Y-59270564D01*
X116137353Y-59260379D01*
X116132825Y-59258607D01*
X116096608Y-59243609D01*
X116092139Y-59241654D01*
X116072442Y-59232574D01*
X116014333Y-59264305D01*
X116006419Y-59268267D01*
X115957682Y-59290525D01*
X115949502Y-59293913D01*
X115752018Y-59367569D01*
X115744679Y-59370048D01*
X115699828Y-59383653D01*
X115692352Y-59385668D01*
X115631637Y-59400016D01*
X115624045Y-59401561D01*
X115577840Y-59409472D01*
X115570167Y-59410541D01*
X115466245Y-59421712D01*
X115462936Y-59422023D01*
X115442899Y-59423635D01*
X115439587Y-59423857D01*
X115412905Y-59425286D01*
X115409587Y-59425419D01*
X115389536Y-59425955D01*
X115386222Y-59425999D01*
X115348500Y-59425999D01*
X111850500Y-59425999D01*
X111850500Y-58137900D01*
X110348500Y-58137900D01*
X110348500Y-59639900D01*
X109350500Y-59639900D01*
X109350500Y-58137900D01*
X108598500Y-58137900D01*
X108598500Y-59639900D01*
X107600500Y-59639900D01*
X107600500Y-57139900D01*
X108598500Y-57139900D01*
X109350500Y-57139900D01*
X110348500Y-57139900D01*
X111850500Y-57139900D01*
X111850500Y-56387900D01*
X110348500Y-56387900D01*
X110348500Y-57139900D01*
X109350500Y-57139900D01*
X109350500Y-56387900D01*
X108598500Y-56387900D01*
X108598500Y-57139900D01*
X107600500Y-57139900D01*
X107600500Y-56195492D01*
X107601097Y-56183339D01*
X107601462Y-56179635D01*
X113124500Y-56179635D01*
X113124500Y-57975370D01*
X113124501Y-57975376D01*
X113130908Y-58034983D01*
X113181202Y-58169828D01*
X113181206Y-58169835D01*
X113267452Y-58285044D01*
X113267455Y-58285047D01*
X113382664Y-58371293D01*
X113382671Y-58371297D01*
X113517517Y-58421591D01*
X113517516Y-58421591D01*
X113524444Y-58422335D01*
X113577127Y-58428000D01*
X115372872Y-58427999D01*
X115432483Y-58421591D01*
X115567331Y-58371296D01*
X115682546Y-58285046D01*
X115768796Y-58169831D01*
X115817810Y-58038416D01*
X115859681Y-57982484D01*
X115925145Y-57958066D01*
X115993418Y-57972917D01*
X116021673Y-57994069D01*
X116135213Y-58107609D01*
X116307179Y-58232548D01*
X116307181Y-58232549D01*
X116307184Y-58232551D01*
X116496588Y-58329057D01*
X116698757Y-58394746D01*
X116908713Y-58428000D01*
X116908714Y-58428000D01*
X117121286Y-58428000D01*
X117121287Y-58428000D01*
X117331243Y-58394746D01*
X117533412Y-58329057D01*
X117722816Y-58232551D01*
X117809138Y-58169835D01*
X117894786Y-58107609D01*
X117894788Y-58107606D01*
X117894792Y-58107604D01*
X118045104Y-57957292D01*
X118045106Y-57957288D01*
X118045109Y-57957286D01*
X118170048Y-57785320D01*
X118170047Y-57785320D01*
X118170051Y-57785316D01*
X118174514Y-57776554D01*
X118222488Y-57725759D01*
X118290308Y-57708963D01*
X118356444Y-57731499D01*
X118395486Y-57776556D01*
X118399951Y-57785320D01*
X118524890Y-57957286D01*
X118675213Y-58107609D01*
X118847179Y-58232548D01*
X118847181Y-58232549D01*
X118847184Y-58232551D01*
X119036588Y-58329057D01*
X119238757Y-58394746D01*
X119448713Y-58428000D01*
X119448714Y-58428000D01*
X119661286Y-58428000D01*
X119661287Y-58428000D01*
X119871243Y-58394746D01*
X120073412Y-58329057D01*
X120262816Y-58232551D01*
X120349138Y-58169835D01*
X120434786Y-58107609D01*
X120434788Y-58107606D01*
X120434792Y-58107604D01*
X120585104Y-57957292D01*
X120585106Y-57957288D01*
X120585109Y-57957286D01*
X120710048Y-57785320D01*
X120710047Y-57785320D01*
X120710051Y-57785316D01*
X120806557Y-57595912D01*
X120872246Y-57393743D01*
X120905500Y-57183787D01*
X120905500Y-57139900D01*
X122848500Y-57139900D01*
X124350500Y-57139900D01*
X125348500Y-57139900D01*
X126850500Y-57139900D01*
X127848500Y-57139900D01*
X129350500Y-57139900D01*
X130348500Y-57139900D01*
X131850500Y-57139900D01*
X132848500Y-57139900D01*
X134350500Y-57139900D01*
X134350500Y-56387900D01*
X132848500Y-56387900D01*
X132848500Y-57139900D01*
X131850500Y-57139900D01*
X131850500Y-56387900D01*
X130348500Y-56387900D01*
X130348500Y-57139900D01*
X129350500Y-57139900D01*
X129350500Y-56387900D01*
X127848500Y-56387900D01*
X127848500Y-57139900D01*
X126850500Y-57139900D01*
X126850500Y-56387900D01*
X125348500Y-56387900D01*
X125348500Y-57139900D01*
X124350500Y-57139900D01*
X124350500Y-56387900D01*
X122848500Y-56387900D01*
X122848500Y-57139900D01*
X120905500Y-57139900D01*
X120905500Y-56971213D01*
X120872246Y-56761257D01*
X120806557Y-56559088D01*
X120710051Y-56369684D01*
X120710049Y-56369681D01*
X120710048Y-56369679D01*
X120585109Y-56197713D01*
X120434786Y-56047390D01*
X120262820Y-55922451D01*
X120073414Y-55825944D01*
X120073413Y-55825943D01*
X120073412Y-55825943D01*
X119871243Y-55760254D01*
X119871241Y-55760253D01*
X119871240Y-55760253D01*
X119709957Y-55734708D01*
X119661287Y-55727000D01*
X119448713Y-55727000D01*
X119400042Y-55734708D01*
X119238760Y-55760253D01*
X119036585Y-55825944D01*
X118847179Y-55922451D01*
X118675213Y-56047390D01*
X118524890Y-56197713D01*
X118399949Y-56369682D01*
X118395484Y-56378446D01*
X118347509Y-56429242D01*
X118279688Y-56446036D01*
X118213553Y-56423498D01*
X118174516Y-56378446D01*
X118170050Y-56369682D01*
X118045109Y-56197713D01*
X117894786Y-56047390D01*
X117722820Y-55922451D01*
X117533414Y-55825944D01*
X117533413Y-55825943D01*
X117533412Y-55825943D01*
X117331243Y-55760254D01*
X117331241Y-55760253D01*
X117331240Y-55760253D01*
X117169957Y-55734708D01*
X117121287Y-55727000D01*
X116908713Y-55727000D01*
X116860042Y-55734708D01*
X116698760Y-55760253D01*
X116496585Y-55825944D01*
X116307179Y-55922451D01*
X116135215Y-56047389D01*
X116021673Y-56160931D01*
X115960350Y-56194415D01*
X115890658Y-56189431D01*
X115834725Y-56147559D01*
X115817810Y-56116582D01*
X115768797Y-55985171D01*
X115768793Y-55985164D01*
X115682547Y-55869955D01*
X115682544Y-55869952D01*
X115567335Y-55783706D01*
X115567328Y-55783702D01*
X115432482Y-55733408D01*
X115432483Y-55733408D01*
X115372883Y-55727001D01*
X115372881Y-55727000D01*
X115372873Y-55727000D01*
X115372864Y-55727000D01*
X113577129Y-55727000D01*
X113577123Y-55727001D01*
X113517516Y-55733408D01*
X113382671Y-55783702D01*
X113382664Y-55783706D01*
X113267455Y-55869952D01*
X113267452Y-55869955D01*
X113181206Y-55985164D01*
X113181202Y-55985171D01*
X113130908Y-56120017D01*
X113124501Y-56179616D01*
X113124500Y-56179635D01*
X107601462Y-56179635D01*
X107604621Y-56147559D01*
X107614665Y-56045573D01*
X107619403Y-56021749D01*
X107657816Y-55895119D01*
X107667113Y-55872678D01*
X107729485Y-55755987D01*
X107742982Y-55735787D01*
X107826924Y-55633503D01*
X107844103Y-55616324D01*
X107946387Y-55532382D01*
X107966587Y-55518885D01*
X108083278Y-55456513D01*
X108105719Y-55447216D01*
X108232349Y-55408803D01*
X108256173Y-55404065D01*
X108385268Y-55391351D01*
X108393939Y-55390497D01*
X108406092Y-55389900D01*
X108465892Y-55389900D01*
X138064699Y-55389900D01*
X138064703Y-55389901D01*
G37*
%TD.AperFunction*%
%TD*%
M02*
