%TF.GenerationSoftware,KiCad,Pcbnew,9.0.7*%
%TF.CreationDate,2026-02-03T15:10:29+02:00*%
%TF.ProjectId,Breadboard_Power_Supply,42726561-6462-46f6-9172-645f506f7765,2*%
%TF.SameCoordinates,Original*%
%TF.FileFunction,Legend,Top*%
%TF.FilePolarity,Positive*%
%FSLAX46Y46*%
G04 Gerber Fmt 4.6, Leading zero omitted, Abs format (unit mm)*
G04 Created by KiCad (PCBNEW 9.0.7) date 2026-02-03 15:10:29*
%MOMM*%
%LPD*%
G01*
G04 APERTURE LIST*
%ADD10C,0.175000*%
%ADD11C,0.150000*%
%ADD12C,0.120000*%
G04 APERTURE END LIST*
D10*
X130282664Y-98044566D02*
X130215997Y-98011233D01*
X130215997Y-98011233D02*
X130115997Y-98011233D01*
X130115997Y-98011233D02*
X130015997Y-98044566D01*
X130015997Y-98044566D02*
X129949331Y-98111233D01*
X129949331Y-98111233D02*
X129915997Y-98177900D01*
X129915997Y-98177900D02*
X129882664Y-98311233D01*
X129882664Y-98311233D02*
X129882664Y-98411233D01*
X129882664Y-98411233D02*
X129915997Y-98544566D01*
X129915997Y-98544566D02*
X129949331Y-98611233D01*
X129949331Y-98611233D02*
X130015997Y-98677900D01*
X130015997Y-98677900D02*
X130115997Y-98711233D01*
X130115997Y-98711233D02*
X130182664Y-98711233D01*
X130182664Y-98711233D02*
X130282664Y-98677900D01*
X130282664Y-98677900D02*
X130315997Y-98644566D01*
X130315997Y-98644566D02*
X130315997Y-98411233D01*
X130315997Y-98411233D02*
X130182664Y-98411233D01*
X130615997Y-98711233D02*
X130615997Y-98011233D01*
X130615997Y-98011233D02*
X131015997Y-98711233D01*
X131015997Y-98711233D02*
X131015997Y-98011233D01*
X131349330Y-98711233D02*
X131349330Y-98011233D01*
X131349330Y-98011233D02*
X131515997Y-98011233D01*
X131515997Y-98011233D02*
X131615997Y-98044566D01*
X131615997Y-98044566D02*
X131682664Y-98111233D01*
X131682664Y-98111233D02*
X131715997Y-98177900D01*
X131715997Y-98177900D02*
X131749330Y-98311233D01*
X131749330Y-98311233D02*
X131749330Y-98411233D01*
X131749330Y-98411233D02*
X131715997Y-98544566D01*
X131715997Y-98544566D02*
X131682664Y-98611233D01*
X131682664Y-98611233D02*
X131615997Y-98677900D01*
X131615997Y-98677900D02*
X131515997Y-98711233D01*
X131515997Y-98711233D02*
X131349330Y-98711233D01*
X124875131Y-71849233D02*
X125008464Y-71849233D01*
X125008464Y-71849233D02*
X125075131Y-71882566D01*
X125075131Y-71882566D02*
X125141797Y-71949233D01*
X125141797Y-71949233D02*
X125175131Y-72082566D01*
X125175131Y-72082566D02*
X125175131Y-72315900D01*
X125175131Y-72315900D02*
X125141797Y-72449233D01*
X125141797Y-72449233D02*
X125075131Y-72515900D01*
X125075131Y-72515900D02*
X125008464Y-72549233D01*
X125008464Y-72549233D02*
X124875131Y-72549233D01*
X124875131Y-72549233D02*
X124808464Y-72515900D01*
X124808464Y-72515900D02*
X124741797Y-72449233D01*
X124741797Y-72449233D02*
X124708464Y-72315900D01*
X124708464Y-72315900D02*
X124708464Y-72082566D01*
X124708464Y-72082566D02*
X124741797Y-71949233D01*
X124741797Y-71949233D02*
X124808464Y-71882566D01*
X124808464Y-71882566D02*
X124875131Y-71849233D01*
X125708464Y-72182566D02*
X125475130Y-72182566D01*
X125475130Y-72549233D02*
X125475130Y-71849233D01*
X125475130Y-71849233D02*
X125808464Y-71849233D01*
X126308464Y-72182566D02*
X126075130Y-72182566D01*
X126075130Y-72549233D02*
X126075130Y-71849233D01*
X126075130Y-71849233D02*
X126408464Y-71849233D01*
X134261766Y-57415935D02*
X134228433Y-57482602D01*
X134228433Y-57482602D02*
X134228433Y-57582602D01*
X134228433Y-57582602D02*
X134261766Y-57682602D01*
X134261766Y-57682602D02*
X134328433Y-57749269D01*
X134328433Y-57749269D02*
X134395100Y-57782602D01*
X134395100Y-57782602D02*
X134528433Y-57815935D01*
X134528433Y-57815935D02*
X134628433Y-57815935D01*
X134628433Y-57815935D02*
X134761766Y-57782602D01*
X134761766Y-57782602D02*
X134828433Y-57749269D01*
X134828433Y-57749269D02*
X134895100Y-57682602D01*
X134895100Y-57682602D02*
X134928433Y-57582602D01*
X134928433Y-57582602D02*
X134928433Y-57515935D01*
X134928433Y-57515935D02*
X134895100Y-57415935D01*
X134895100Y-57415935D02*
X134861766Y-57382602D01*
X134861766Y-57382602D02*
X134628433Y-57382602D01*
X134628433Y-57382602D02*
X134628433Y-57515935D01*
X134928433Y-57082602D02*
X134228433Y-57082602D01*
X134228433Y-57082602D02*
X134928433Y-56682602D01*
X134928433Y-56682602D02*
X134228433Y-56682602D01*
X134928433Y-56349269D02*
X134228433Y-56349269D01*
X134228433Y-56349269D02*
X134228433Y-56182602D01*
X134228433Y-56182602D02*
X134261766Y-56082602D01*
X134261766Y-56082602D02*
X134328433Y-56015936D01*
X134328433Y-56015936D02*
X134395100Y-55982602D01*
X134395100Y-55982602D02*
X134528433Y-55949269D01*
X134528433Y-55949269D02*
X134628433Y-55949269D01*
X134628433Y-55949269D02*
X134761766Y-55982602D01*
X134761766Y-55982602D02*
X134828433Y-56015936D01*
X134828433Y-56015936D02*
X134895100Y-56082602D01*
X134895100Y-56082602D02*
X134928433Y-56182602D01*
X134928433Y-56182602D02*
X134928433Y-56349269D01*
X129828131Y-71849233D02*
X129961464Y-71849233D01*
X129961464Y-71849233D02*
X130028131Y-71882566D01*
X130028131Y-71882566D02*
X130094797Y-71949233D01*
X130094797Y-71949233D02*
X130128131Y-72082566D01*
X130128131Y-72082566D02*
X130128131Y-72315900D01*
X130128131Y-72315900D02*
X130094797Y-72449233D01*
X130094797Y-72449233D02*
X130028131Y-72515900D01*
X130028131Y-72515900D02*
X129961464Y-72549233D01*
X129961464Y-72549233D02*
X129828131Y-72549233D01*
X129828131Y-72549233D02*
X129761464Y-72515900D01*
X129761464Y-72515900D02*
X129694797Y-72449233D01*
X129694797Y-72449233D02*
X129661464Y-72315900D01*
X129661464Y-72315900D02*
X129661464Y-72082566D01*
X129661464Y-72082566D02*
X129694797Y-71949233D01*
X129694797Y-71949233D02*
X129761464Y-71882566D01*
X129761464Y-71882566D02*
X129828131Y-71849233D01*
X130428130Y-72549233D02*
X130428130Y-71849233D01*
X130428130Y-71849233D02*
X130828130Y-72549233D01*
X130828130Y-72549233D02*
X130828130Y-71849233D01*
X130270766Y-87322802D02*
X130270766Y-86789469D01*
X113600731Y-105478833D02*
X114034064Y-105478833D01*
X114034064Y-105478833D02*
X113800731Y-105745500D01*
X113800731Y-105745500D02*
X113900731Y-105745500D01*
X113900731Y-105745500D02*
X113967397Y-105778833D01*
X113967397Y-105778833D02*
X114000731Y-105812166D01*
X114000731Y-105812166D02*
X114034064Y-105878833D01*
X114034064Y-105878833D02*
X114034064Y-106045500D01*
X114034064Y-106045500D02*
X114000731Y-106112166D01*
X114000731Y-106112166D02*
X113967397Y-106145500D01*
X113967397Y-106145500D02*
X113900731Y-106178833D01*
X113900731Y-106178833D02*
X113700731Y-106178833D01*
X113700731Y-106178833D02*
X113634064Y-106145500D01*
X113634064Y-106145500D02*
X113600731Y-106112166D01*
X114334064Y-106112166D02*
X114367398Y-106145500D01*
X114367398Y-106145500D02*
X114334064Y-106178833D01*
X114334064Y-106178833D02*
X114300731Y-106145500D01*
X114300731Y-106145500D02*
X114334064Y-106112166D01*
X114334064Y-106112166D02*
X114334064Y-106178833D01*
X114600731Y-105478833D02*
X115034064Y-105478833D01*
X115034064Y-105478833D02*
X114800731Y-105745500D01*
X114800731Y-105745500D02*
X114900731Y-105745500D01*
X114900731Y-105745500D02*
X114967397Y-105778833D01*
X114967397Y-105778833D02*
X115000731Y-105812166D01*
X115000731Y-105812166D02*
X115034064Y-105878833D01*
X115034064Y-105878833D02*
X115034064Y-106045500D01*
X115034064Y-106045500D02*
X115000731Y-106112166D01*
X115000731Y-106112166D02*
X114967397Y-106145500D01*
X114967397Y-106145500D02*
X114900731Y-106178833D01*
X114900731Y-106178833D02*
X114700731Y-106178833D01*
X114700731Y-106178833D02*
X114634064Y-106145500D01*
X114634064Y-106145500D02*
X114600731Y-106112166D01*
X115234064Y-105478833D02*
X115467398Y-106178833D01*
X115467398Y-106178833D02*
X115700731Y-105478833D01*
X124847064Y-66243766D02*
X124780397Y-66210433D01*
X124780397Y-66210433D02*
X124680397Y-66210433D01*
X124680397Y-66210433D02*
X124580397Y-66243766D01*
X124580397Y-66243766D02*
X124513731Y-66310433D01*
X124513731Y-66310433D02*
X124480397Y-66377100D01*
X124480397Y-66377100D02*
X124447064Y-66510433D01*
X124447064Y-66510433D02*
X124447064Y-66610433D01*
X124447064Y-66610433D02*
X124480397Y-66743766D01*
X124480397Y-66743766D02*
X124513731Y-66810433D01*
X124513731Y-66810433D02*
X124580397Y-66877100D01*
X124580397Y-66877100D02*
X124680397Y-66910433D01*
X124680397Y-66910433D02*
X124747064Y-66910433D01*
X124747064Y-66910433D02*
X124847064Y-66877100D01*
X124847064Y-66877100D02*
X124880397Y-66843766D01*
X124880397Y-66843766D02*
X124880397Y-66610433D01*
X124880397Y-66610433D02*
X124747064Y-66610433D01*
X125180397Y-66910433D02*
X125180397Y-66210433D01*
X125180397Y-66210433D02*
X125580397Y-66910433D01*
X125580397Y-66910433D02*
X125580397Y-66210433D01*
X125913730Y-66910433D02*
X125913730Y-66210433D01*
X125913730Y-66210433D02*
X126080397Y-66210433D01*
X126080397Y-66210433D02*
X126180397Y-66243766D01*
X126180397Y-66243766D02*
X126247064Y-66310433D01*
X126247064Y-66310433D02*
X126280397Y-66377100D01*
X126280397Y-66377100D02*
X126313730Y-66510433D01*
X126313730Y-66510433D02*
X126313730Y-66610433D01*
X126313730Y-66610433D02*
X126280397Y-66743766D01*
X126280397Y-66743766D02*
X126247064Y-66810433D01*
X126247064Y-66810433D02*
X126180397Y-66877100D01*
X126180397Y-66877100D02*
X126080397Y-66910433D01*
X126080397Y-66910433D02*
X125913730Y-66910433D01*
X113549931Y-59073033D02*
X113983264Y-59073033D01*
X113983264Y-59073033D02*
X113749931Y-59339700D01*
X113749931Y-59339700D02*
X113849931Y-59339700D01*
X113849931Y-59339700D02*
X113916597Y-59373033D01*
X113916597Y-59373033D02*
X113949931Y-59406366D01*
X113949931Y-59406366D02*
X113983264Y-59473033D01*
X113983264Y-59473033D02*
X113983264Y-59639700D01*
X113983264Y-59639700D02*
X113949931Y-59706366D01*
X113949931Y-59706366D02*
X113916597Y-59739700D01*
X113916597Y-59739700D02*
X113849931Y-59773033D01*
X113849931Y-59773033D02*
X113649931Y-59773033D01*
X113649931Y-59773033D02*
X113583264Y-59739700D01*
X113583264Y-59739700D02*
X113549931Y-59706366D01*
X114283264Y-59706366D02*
X114316598Y-59739700D01*
X114316598Y-59739700D02*
X114283264Y-59773033D01*
X114283264Y-59773033D02*
X114249931Y-59739700D01*
X114249931Y-59739700D02*
X114283264Y-59706366D01*
X114283264Y-59706366D02*
X114283264Y-59773033D01*
X114549931Y-59073033D02*
X114983264Y-59073033D01*
X114983264Y-59073033D02*
X114749931Y-59339700D01*
X114749931Y-59339700D02*
X114849931Y-59339700D01*
X114849931Y-59339700D02*
X114916597Y-59373033D01*
X114916597Y-59373033D02*
X114949931Y-59406366D01*
X114949931Y-59406366D02*
X114983264Y-59473033D01*
X114983264Y-59473033D02*
X114983264Y-59639700D01*
X114983264Y-59639700D02*
X114949931Y-59706366D01*
X114949931Y-59706366D02*
X114916597Y-59739700D01*
X114916597Y-59739700D02*
X114849931Y-59773033D01*
X114849931Y-59773033D02*
X114649931Y-59773033D01*
X114649931Y-59773033D02*
X114583264Y-59739700D01*
X114583264Y-59739700D02*
X114549931Y-59706366D01*
X115183264Y-59073033D02*
X115416598Y-59773033D01*
X115416598Y-59773033D02*
X115649931Y-59073033D01*
X130372366Y-81811002D02*
X130372366Y-81277669D01*
X130639033Y-81544335D02*
X130105700Y-81544335D01*
X119512531Y-105478833D02*
X119179197Y-105478833D01*
X119179197Y-105478833D02*
X119145864Y-105812166D01*
X119145864Y-105812166D02*
X119179197Y-105778833D01*
X119179197Y-105778833D02*
X119245864Y-105745500D01*
X119245864Y-105745500D02*
X119412531Y-105745500D01*
X119412531Y-105745500D02*
X119479197Y-105778833D01*
X119479197Y-105778833D02*
X119512531Y-105812166D01*
X119512531Y-105812166D02*
X119545864Y-105878833D01*
X119545864Y-105878833D02*
X119545864Y-106045500D01*
X119545864Y-106045500D02*
X119512531Y-106112166D01*
X119512531Y-106112166D02*
X119479197Y-106145500D01*
X119479197Y-106145500D02*
X119412531Y-106178833D01*
X119412531Y-106178833D02*
X119245864Y-106178833D01*
X119245864Y-106178833D02*
X119179197Y-106145500D01*
X119179197Y-106145500D02*
X119145864Y-106112166D01*
X119745864Y-105478833D02*
X119979198Y-106178833D01*
X119979198Y-106178833D02*
X120212531Y-105478833D01*
X119487131Y-59073033D02*
X119153797Y-59073033D01*
X119153797Y-59073033D02*
X119120464Y-59406366D01*
X119120464Y-59406366D02*
X119153797Y-59373033D01*
X119153797Y-59373033D02*
X119220464Y-59339700D01*
X119220464Y-59339700D02*
X119387131Y-59339700D01*
X119387131Y-59339700D02*
X119453797Y-59373033D01*
X119453797Y-59373033D02*
X119487131Y-59406366D01*
X119487131Y-59406366D02*
X119520464Y-59473033D01*
X119520464Y-59473033D02*
X119520464Y-59639700D01*
X119520464Y-59639700D02*
X119487131Y-59706366D01*
X119487131Y-59706366D02*
X119453797Y-59739700D01*
X119453797Y-59739700D02*
X119387131Y-59773033D01*
X119387131Y-59773033D02*
X119220464Y-59773033D01*
X119220464Y-59773033D02*
X119153797Y-59739700D01*
X119153797Y-59739700D02*
X119120464Y-59706366D01*
X119720464Y-59073033D02*
X119953798Y-59773033D01*
X119953798Y-59773033D02*
X120187131Y-59073033D01*
X134261766Y-106463335D02*
X134228433Y-106530002D01*
X134228433Y-106530002D02*
X134228433Y-106630002D01*
X134228433Y-106630002D02*
X134261766Y-106730002D01*
X134261766Y-106730002D02*
X134328433Y-106796669D01*
X134328433Y-106796669D02*
X134395100Y-106830002D01*
X134395100Y-106830002D02*
X134528433Y-106863335D01*
X134528433Y-106863335D02*
X134628433Y-106863335D01*
X134628433Y-106863335D02*
X134761766Y-106830002D01*
X134761766Y-106830002D02*
X134828433Y-106796669D01*
X134828433Y-106796669D02*
X134895100Y-106730002D01*
X134895100Y-106730002D02*
X134928433Y-106630002D01*
X134928433Y-106630002D02*
X134928433Y-106563335D01*
X134928433Y-106563335D02*
X134895100Y-106463335D01*
X134895100Y-106463335D02*
X134861766Y-106430002D01*
X134861766Y-106430002D02*
X134628433Y-106430002D01*
X134628433Y-106430002D02*
X134628433Y-106563335D01*
X134928433Y-106130002D02*
X134228433Y-106130002D01*
X134228433Y-106130002D02*
X134928433Y-105730002D01*
X134928433Y-105730002D02*
X134228433Y-105730002D01*
X134928433Y-105396669D02*
X134228433Y-105396669D01*
X134228433Y-105396669D02*
X134228433Y-105230002D01*
X134228433Y-105230002D02*
X134261766Y-105130002D01*
X134261766Y-105130002D02*
X134328433Y-105063336D01*
X134328433Y-105063336D02*
X134395100Y-105030002D01*
X134395100Y-105030002D02*
X134528433Y-104996669D01*
X134528433Y-104996669D02*
X134628433Y-104996669D01*
X134628433Y-104996669D02*
X134761766Y-105030002D01*
X134761766Y-105030002D02*
X134828433Y-105063336D01*
X134828433Y-105063336D02*
X134895100Y-105130002D01*
X134895100Y-105130002D02*
X134928433Y-105230002D01*
X134928433Y-105230002D02*
X134928433Y-105396669D01*
D11*
X127533333Y-93784819D02*
X127200000Y-93308628D01*
X126961905Y-93784819D02*
X126961905Y-92784819D01*
X126961905Y-92784819D02*
X127342857Y-92784819D01*
X127342857Y-92784819D02*
X127438095Y-92832438D01*
X127438095Y-92832438D02*
X127485714Y-92880057D01*
X127485714Y-92880057D02*
X127533333Y-92975295D01*
X127533333Y-92975295D02*
X127533333Y-93118152D01*
X127533333Y-93118152D02*
X127485714Y-93213390D01*
X127485714Y-93213390D02*
X127438095Y-93261009D01*
X127438095Y-93261009D02*
X127342857Y-93308628D01*
X127342857Y-93308628D02*
X126961905Y-93308628D01*
X127866667Y-92784819D02*
X128485714Y-92784819D01*
X128485714Y-92784819D02*
X128152381Y-93165771D01*
X128152381Y-93165771D02*
X128295238Y-93165771D01*
X128295238Y-93165771D02*
X128390476Y-93213390D01*
X128390476Y-93213390D02*
X128438095Y-93261009D01*
X128438095Y-93261009D02*
X128485714Y-93356247D01*
X128485714Y-93356247D02*
X128485714Y-93594342D01*
X128485714Y-93594342D02*
X128438095Y-93689580D01*
X128438095Y-93689580D02*
X128390476Y-93737200D01*
X128390476Y-93737200D02*
X128295238Y-93784819D01*
X128295238Y-93784819D02*
X128009524Y-93784819D01*
X128009524Y-93784819D02*
X127914286Y-93737200D01*
X127914286Y-93737200D02*
X127866667Y-93689580D01*
X123477400Y-96491633D02*
X123144066Y-96491633D01*
X123144066Y-96491633D02*
X123110733Y-96824966D01*
X123110733Y-96824966D02*
X123144066Y-96791633D01*
X123144066Y-96791633D02*
X123210733Y-96758300D01*
X123210733Y-96758300D02*
X123377400Y-96758300D01*
X123377400Y-96758300D02*
X123444066Y-96791633D01*
X123444066Y-96791633D02*
X123477400Y-96824966D01*
X123477400Y-96824966D02*
X123510733Y-96891633D01*
X123510733Y-96891633D02*
X123510733Y-97058300D01*
X123510733Y-97058300D02*
X123477400Y-97124966D01*
X123477400Y-97124966D02*
X123444066Y-97158300D01*
X123444066Y-97158300D02*
X123377400Y-97191633D01*
X123377400Y-97191633D02*
X123210733Y-97191633D01*
X123210733Y-97191633D02*
X123144066Y-97158300D01*
X123144066Y-97158300D02*
X123110733Y-97124966D01*
X124110733Y-96491633D02*
X123977400Y-96491633D01*
X123977400Y-96491633D02*
X123910733Y-96524966D01*
X123910733Y-96524966D02*
X123877400Y-96558300D01*
X123877400Y-96558300D02*
X123810733Y-96658300D01*
X123810733Y-96658300D02*
X123777400Y-96791633D01*
X123777400Y-96791633D02*
X123777400Y-97058300D01*
X123777400Y-97058300D02*
X123810733Y-97124966D01*
X123810733Y-97124966D02*
X123844067Y-97158300D01*
X123844067Y-97158300D02*
X123910733Y-97191633D01*
X123910733Y-97191633D02*
X124044067Y-97191633D01*
X124044067Y-97191633D02*
X124110733Y-97158300D01*
X124110733Y-97158300D02*
X124144067Y-97124966D01*
X124144067Y-97124966D02*
X124177400Y-97058300D01*
X124177400Y-97058300D02*
X124177400Y-96891633D01*
X124177400Y-96891633D02*
X124144067Y-96824966D01*
X124144067Y-96824966D02*
X124110733Y-96791633D01*
X124110733Y-96791633D02*
X124044067Y-96758300D01*
X124044067Y-96758300D02*
X123910733Y-96758300D01*
X123910733Y-96758300D02*
X123844067Y-96791633D01*
X123844067Y-96791633D02*
X123810733Y-96824966D01*
X123810733Y-96824966D02*
X123777400Y-96891633D01*
X124610734Y-96491633D02*
X124677400Y-96491633D01*
X124677400Y-96491633D02*
X124744067Y-96524966D01*
X124744067Y-96524966D02*
X124777400Y-96558300D01*
X124777400Y-96558300D02*
X124810734Y-96624966D01*
X124810734Y-96624966D02*
X124844067Y-96758300D01*
X124844067Y-96758300D02*
X124844067Y-96924966D01*
X124844067Y-96924966D02*
X124810734Y-97058300D01*
X124810734Y-97058300D02*
X124777400Y-97124966D01*
X124777400Y-97124966D02*
X124744067Y-97158300D01*
X124744067Y-97158300D02*
X124677400Y-97191633D01*
X124677400Y-97191633D02*
X124610734Y-97191633D01*
X124610734Y-97191633D02*
X124544067Y-97158300D01*
X124544067Y-97158300D02*
X124510734Y-97124966D01*
X124510734Y-97124966D02*
X124477400Y-97058300D01*
X124477400Y-97058300D02*
X124444067Y-96924966D01*
X124444067Y-96924966D02*
X124444067Y-96758300D01*
X124444067Y-96758300D02*
X124477400Y-96624966D01*
X124477400Y-96624966D02*
X124510734Y-96558300D01*
X124510734Y-96558300D02*
X124544067Y-96524966D01*
X124544067Y-96524966D02*
X124610734Y-96491633D01*
X121207305Y-72516419D02*
X121207305Y-71516419D01*
X121207305Y-71516419D02*
X121445400Y-71516419D01*
X121445400Y-71516419D02*
X121588257Y-71564038D01*
X121588257Y-71564038D02*
X121683495Y-71659276D01*
X121683495Y-71659276D02*
X121731114Y-71754514D01*
X121731114Y-71754514D02*
X121778733Y-71944990D01*
X121778733Y-71944990D02*
X121778733Y-72087847D01*
X121778733Y-72087847D02*
X121731114Y-72278323D01*
X121731114Y-72278323D02*
X121683495Y-72373561D01*
X121683495Y-72373561D02*
X121588257Y-72468800D01*
X121588257Y-72468800D02*
X121445400Y-72516419D01*
X121445400Y-72516419D02*
X121207305Y-72516419D01*
X122731114Y-72516419D02*
X122159686Y-72516419D01*
X122445400Y-72516419D02*
X122445400Y-71516419D01*
X122445400Y-71516419D02*
X122350162Y-71659276D01*
X122350162Y-71659276D02*
X122254924Y-71754514D01*
X122254924Y-71754514D02*
X122159686Y-71802133D01*
X125597466Y-78040033D02*
X125597466Y-77340033D01*
X125597466Y-77340033D02*
X125764133Y-77340033D01*
X125764133Y-77340033D02*
X125864133Y-77373366D01*
X125864133Y-77373366D02*
X125930800Y-77440033D01*
X125930800Y-77440033D02*
X125964133Y-77506700D01*
X125964133Y-77506700D02*
X125997466Y-77640033D01*
X125997466Y-77640033D02*
X125997466Y-77740033D01*
X125997466Y-77740033D02*
X125964133Y-77873366D01*
X125964133Y-77873366D02*
X125930800Y-77940033D01*
X125930800Y-77940033D02*
X125864133Y-78006700D01*
X125864133Y-78006700D02*
X125764133Y-78040033D01*
X125764133Y-78040033D02*
X125597466Y-78040033D01*
X119168895Y-73086419D02*
X119168895Y-72086419D01*
X119740323Y-73086419D02*
X119311752Y-72514990D01*
X119740323Y-72086419D02*
X119168895Y-72657847D01*
X111943533Y-67859580D02*
X111895914Y-67907200D01*
X111895914Y-67907200D02*
X111753057Y-67954819D01*
X111753057Y-67954819D02*
X111657819Y-67954819D01*
X111657819Y-67954819D02*
X111514962Y-67907200D01*
X111514962Y-67907200D02*
X111419724Y-67811961D01*
X111419724Y-67811961D02*
X111372105Y-67716723D01*
X111372105Y-67716723D02*
X111324486Y-67526247D01*
X111324486Y-67526247D02*
X111324486Y-67383390D01*
X111324486Y-67383390D02*
X111372105Y-67192914D01*
X111372105Y-67192914D02*
X111419724Y-67097676D01*
X111419724Y-67097676D02*
X111514962Y-67002438D01*
X111514962Y-67002438D02*
X111657819Y-66954819D01*
X111657819Y-66954819D02*
X111753057Y-66954819D01*
X111753057Y-66954819D02*
X111895914Y-67002438D01*
X111895914Y-67002438D02*
X111943533Y-67050057D01*
X112324486Y-67050057D02*
X112372105Y-67002438D01*
X112372105Y-67002438D02*
X112467343Y-66954819D01*
X112467343Y-66954819D02*
X112705438Y-66954819D01*
X112705438Y-66954819D02*
X112800676Y-67002438D01*
X112800676Y-67002438D02*
X112848295Y-67050057D01*
X112848295Y-67050057D02*
X112895914Y-67145295D01*
X112895914Y-67145295D02*
X112895914Y-67240533D01*
X112895914Y-67240533D02*
X112848295Y-67383390D01*
X112848295Y-67383390D02*
X112276867Y-67954819D01*
X112276867Y-67954819D02*
X112895914Y-67954819D01*
X109568600Y-62658833D02*
X109635266Y-62658833D01*
X109635266Y-62658833D02*
X109701933Y-62692166D01*
X109701933Y-62692166D02*
X109735266Y-62725500D01*
X109735266Y-62725500D02*
X109768600Y-62792166D01*
X109768600Y-62792166D02*
X109801933Y-62925500D01*
X109801933Y-62925500D02*
X109801933Y-63092166D01*
X109801933Y-63092166D02*
X109768600Y-63225500D01*
X109768600Y-63225500D02*
X109735266Y-63292166D01*
X109735266Y-63292166D02*
X109701933Y-63325500D01*
X109701933Y-63325500D02*
X109635266Y-63358833D01*
X109635266Y-63358833D02*
X109568600Y-63358833D01*
X109568600Y-63358833D02*
X109501933Y-63325500D01*
X109501933Y-63325500D02*
X109468600Y-63292166D01*
X109468600Y-63292166D02*
X109435266Y-63225500D01*
X109435266Y-63225500D02*
X109401933Y-63092166D01*
X109401933Y-63092166D02*
X109401933Y-62925500D01*
X109401933Y-62925500D02*
X109435266Y-62792166D01*
X109435266Y-62792166D02*
X109468600Y-62725500D01*
X109468600Y-62725500D02*
X109501933Y-62692166D01*
X109501933Y-62692166D02*
X109568600Y-62658833D01*
X110101933Y-63292166D02*
X110135267Y-63325500D01*
X110135267Y-63325500D02*
X110101933Y-63358833D01*
X110101933Y-63358833D02*
X110068600Y-63325500D01*
X110068600Y-63325500D02*
X110101933Y-63292166D01*
X110101933Y-63292166D02*
X110101933Y-63358833D01*
X110801933Y-63358833D02*
X110401933Y-63358833D01*
X110601933Y-63358833D02*
X110601933Y-62658833D01*
X110601933Y-62658833D02*
X110535266Y-62758833D01*
X110535266Y-62758833D02*
X110468600Y-62825500D01*
X110468600Y-62825500D02*
X110401933Y-62858833D01*
X111401933Y-62892166D02*
X111401933Y-63358833D01*
X111101933Y-62892166D02*
X111101933Y-63258833D01*
X111101933Y-63258833D02*
X111135267Y-63325500D01*
X111135267Y-63325500D02*
X111201933Y-63358833D01*
X111201933Y-63358833D02*
X111301933Y-63358833D01*
X111301933Y-63358833D02*
X111368600Y-63325500D01*
X111368600Y-63325500D02*
X111401933Y-63292166D01*
X111968600Y-62992166D02*
X111735266Y-62992166D01*
X111735266Y-63358833D02*
X111735266Y-62658833D01*
X111735266Y-62658833D02*
X112068600Y-62658833D01*
X109833333Y-103859580D02*
X109785714Y-103907200D01*
X109785714Y-103907200D02*
X109642857Y-103954819D01*
X109642857Y-103954819D02*
X109547619Y-103954819D01*
X109547619Y-103954819D02*
X109404762Y-103907200D01*
X109404762Y-103907200D02*
X109309524Y-103811961D01*
X109309524Y-103811961D02*
X109261905Y-103716723D01*
X109261905Y-103716723D02*
X109214286Y-103526247D01*
X109214286Y-103526247D02*
X109214286Y-103383390D01*
X109214286Y-103383390D02*
X109261905Y-103192914D01*
X109261905Y-103192914D02*
X109309524Y-103097676D01*
X109309524Y-103097676D02*
X109404762Y-103002438D01*
X109404762Y-103002438D02*
X109547619Y-102954819D01*
X109547619Y-102954819D02*
X109642857Y-102954819D01*
X109642857Y-102954819D02*
X109785714Y-103002438D01*
X109785714Y-103002438D02*
X109833333Y-103050057D01*
X110166667Y-102954819D02*
X110785714Y-102954819D01*
X110785714Y-102954819D02*
X110452381Y-103335771D01*
X110452381Y-103335771D02*
X110595238Y-103335771D01*
X110595238Y-103335771D02*
X110690476Y-103383390D01*
X110690476Y-103383390D02*
X110738095Y-103431009D01*
X110738095Y-103431009D02*
X110785714Y-103526247D01*
X110785714Y-103526247D02*
X110785714Y-103764342D01*
X110785714Y-103764342D02*
X110738095Y-103859580D01*
X110738095Y-103859580D02*
X110690476Y-103907200D01*
X110690476Y-103907200D02*
X110595238Y-103954819D01*
X110595238Y-103954819D02*
X110309524Y-103954819D01*
X110309524Y-103954819D02*
X110214286Y-103907200D01*
X110214286Y-103907200D02*
X110166667Y-103859580D01*
X107888933Y-99249033D02*
X107488933Y-99249033D01*
X107688933Y-99249033D02*
X107688933Y-98549033D01*
X107688933Y-98549033D02*
X107622266Y-98649033D01*
X107622266Y-98649033D02*
X107555600Y-98715700D01*
X107555600Y-98715700D02*
X107488933Y-98749033D01*
X108488933Y-98782366D02*
X108488933Y-99249033D01*
X108188933Y-98782366D02*
X108188933Y-99149033D01*
X108188933Y-99149033D02*
X108222267Y-99215700D01*
X108222267Y-99215700D02*
X108288933Y-99249033D01*
X108288933Y-99249033D02*
X108388933Y-99249033D01*
X108388933Y-99249033D02*
X108455600Y-99215700D01*
X108455600Y-99215700D02*
X108488933Y-99182366D01*
X109055600Y-98882366D02*
X108822266Y-98882366D01*
X108822266Y-99249033D02*
X108822266Y-98549033D01*
X108822266Y-98549033D02*
X109155600Y-98549033D01*
X111599819Y-108533963D02*
X112314104Y-108533963D01*
X112314104Y-108533963D02*
X112456961Y-108581582D01*
X112456961Y-108581582D02*
X112552200Y-108676820D01*
X112552200Y-108676820D02*
X112599819Y-108819677D01*
X112599819Y-108819677D02*
X112599819Y-108914915D01*
X111599819Y-108153010D02*
X111599819Y-107486344D01*
X111599819Y-107486344D02*
X112599819Y-107914915D01*
X134131066Y-59195619D02*
X134131066Y-59909904D01*
X134131066Y-59909904D02*
X134083447Y-60052761D01*
X134083447Y-60052761D02*
X133988209Y-60148000D01*
X133988209Y-60148000D02*
X133845352Y-60195619D01*
X133845352Y-60195619D02*
X133750114Y-60195619D01*
X134512019Y-59195619D02*
X135131066Y-59195619D01*
X135131066Y-59195619D02*
X134797733Y-59576571D01*
X134797733Y-59576571D02*
X134940590Y-59576571D01*
X134940590Y-59576571D02*
X135035828Y-59624190D01*
X135035828Y-59624190D02*
X135083447Y-59671809D01*
X135083447Y-59671809D02*
X135131066Y-59767047D01*
X135131066Y-59767047D02*
X135131066Y-60005142D01*
X135131066Y-60005142D02*
X135083447Y-60100380D01*
X135083447Y-60100380D02*
X135035828Y-60148000D01*
X135035828Y-60148000D02*
X134940590Y-60195619D01*
X134940590Y-60195619D02*
X134654876Y-60195619D01*
X134654876Y-60195619D02*
X134559638Y-60148000D01*
X134559638Y-60148000D02*
X134512019Y-60100380D01*
X115833333Y-98859580D02*
X115785714Y-98907200D01*
X115785714Y-98907200D02*
X115642857Y-98954819D01*
X115642857Y-98954819D02*
X115547619Y-98954819D01*
X115547619Y-98954819D02*
X115404762Y-98907200D01*
X115404762Y-98907200D02*
X115309524Y-98811961D01*
X115309524Y-98811961D02*
X115261905Y-98716723D01*
X115261905Y-98716723D02*
X115214286Y-98526247D01*
X115214286Y-98526247D02*
X115214286Y-98383390D01*
X115214286Y-98383390D02*
X115261905Y-98192914D01*
X115261905Y-98192914D02*
X115309524Y-98097676D01*
X115309524Y-98097676D02*
X115404762Y-98002438D01*
X115404762Y-98002438D02*
X115547619Y-97954819D01*
X115547619Y-97954819D02*
X115642857Y-97954819D01*
X115642857Y-97954819D02*
X115785714Y-98002438D01*
X115785714Y-98002438D02*
X115833333Y-98050057D01*
X116690476Y-98288152D02*
X116690476Y-98954819D01*
X116452381Y-97907200D02*
X116214286Y-98621485D01*
X116214286Y-98621485D02*
X116833333Y-98621485D01*
X116775800Y-103338433D02*
X116375800Y-103338433D01*
X116575800Y-103338433D02*
X116575800Y-102638433D01*
X116575800Y-102638433D02*
X116509133Y-102738433D01*
X116509133Y-102738433D02*
X116442467Y-102805100D01*
X116442467Y-102805100D02*
X116375800Y-102838433D01*
X117209134Y-102638433D02*
X117275800Y-102638433D01*
X117275800Y-102638433D02*
X117342467Y-102671766D01*
X117342467Y-102671766D02*
X117375800Y-102705100D01*
X117375800Y-102705100D02*
X117409134Y-102771766D01*
X117409134Y-102771766D02*
X117442467Y-102905100D01*
X117442467Y-102905100D02*
X117442467Y-103071766D01*
X117442467Y-103071766D02*
X117409134Y-103205100D01*
X117409134Y-103205100D02*
X117375800Y-103271766D01*
X117375800Y-103271766D02*
X117342467Y-103305100D01*
X117342467Y-103305100D02*
X117275800Y-103338433D01*
X117275800Y-103338433D02*
X117209134Y-103338433D01*
X117209134Y-103338433D02*
X117142467Y-103305100D01*
X117142467Y-103305100D02*
X117109134Y-103271766D01*
X117109134Y-103271766D02*
X117075800Y-103205100D01*
X117075800Y-103205100D02*
X117042467Y-103071766D01*
X117042467Y-103071766D02*
X117042467Y-102905100D01*
X117042467Y-102905100D02*
X117075800Y-102771766D01*
X117075800Y-102771766D02*
X117109134Y-102705100D01*
X117109134Y-102705100D02*
X117142467Y-102671766D01*
X117142467Y-102671766D02*
X117209134Y-102638433D01*
X118042467Y-102871766D02*
X118042467Y-103338433D01*
X117742467Y-102871766D02*
X117742467Y-103238433D01*
X117742467Y-103238433D02*
X117775801Y-103305100D01*
X117775801Y-103305100D02*
X117842467Y-103338433D01*
X117842467Y-103338433D02*
X117942467Y-103338433D01*
X117942467Y-103338433D02*
X118009134Y-103305100D01*
X118009134Y-103305100D02*
X118042467Y-103271766D01*
X118609134Y-102971766D02*
X118375800Y-102971766D01*
X118375800Y-103338433D02*
X118375800Y-102638433D01*
X118375800Y-102638433D02*
X118709134Y-102638433D01*
X130975267Y-67412400D02*
X131118124Y-67460019D01*
X131118124Y-67460019D02*
X131356219Y-67460019D01*
X131356219Y-67460019D02*
X131451457Y-67412400D01*
X131451457Y-67412400D02*
X131499076Y-67364780D01*
X131499076Y-67364780D02*
X131546695Y-67269542D01*
X131546695Y-67269542D02*
X131546695Y-67174304D01*
X131546695Y-67174304D02*
X131499076Y-67079066D01*
X131499076Y-67079066D02*
X131451457Y-67031447D01*
X131451457Y-67031447D02*
X131356219Y-66983828D01*
X131356219Y-66983828D02*
X131165743Y-66936209D01*
X131165743Y-66936209D02*
X131070505Y-66888590D01*
X131070505Y-66888590D02*
X131022886Y-66840971D01*
X131022886Y-66840971D02*
X130975267Y-66745733D01*
X130975267Y-66745733D02*
X130975267Y-66650495D01*
X130975267Y-66650495D02*
X131022886Y-66555257D01*
X131022886Y-66555257D02*
X131070505Y-66507638D01*
X131070505Y-66507638D02*
X131165743Y-66460019D01*
X131165743Y-66460019D02*
X131403838Y-66460019D01*
X131403838Y-66460019D02*
X131546695Y-66507638D01*
X131880029Y-66460019D02*
X132118124Y-67460019D01*
X132118124Y-67460019D02*
X132308600Y-66745733D01*
X132308600Y-66745733D02*
X132499076Y-67460019D01*
X132499076Y-67460019D02*
X132737172Y-66460019D01*
X133641933Y-67460019D02*
X133070505Y-67460019D01*
X133356219Y-67460019D02*
X133356219Y-66460019D01*
X133356219Y-66460019D02*
X133260981Y-66602876D01*
X133260981Y-66602876D02*
X133165743Y-66698114D01*
X133165743Y-66698114D02*
X133070505Y-66745733D01*
X111738095Y-75474819D02*
X111738095Y-76284342D01*
X111738095Y-76284342D02*
X111785714Y-76379580D01*
X111785714Y-76379580D02*
X111833333Y-76427200D01*
X111833333Y-76427200D02*
X111928571Y-76474819D01*
X111928571Y-76474819D02*
X112119047Y-76474819D01*
X112119047Y-76474819D02*
X112214285Y-76427200D01*
X112214285Y-76427200D02*
X112261904Y-76379580D01*
X112261904Y-76379580D02*
X112309523Y-76284342D01*
X112309523Y-76284342D02*
X112309523Y-75474819D01*
X113309523Y-76474819D02*
X112738095Y-76474819D01*
X113023809Y-76474819D02*
X113023809Y-75474819D01*
X113023809Y-75474819D02*
X112928571Y-75617676D01*
X112928571Y-75617676D02*
X112833333Y-75712914D01*
X112833333Y-75712914D02*
X112738095Y-75760533D01*
X109083333Y-69566033D02*
X108749999Y-69566033D01*
X108749999Y-69566033D02*
X108749999Y-68866033D01*
X109316666Y-69566033D02*
X109316666Y-68866033D01*
X109316666Y-68866033D02*
X109550000Y-69366033D01*
X109550000Y-69366033D02*
X109783333Y-68866033D01*
X109783333Y-68866033D02*
X109783333Y-69566033D01*
X110050000Y-68866033D02*
X110516666Y-68866033D01*
X110516666Y-68866033D02*
X110216666Y-69566033D01*
X110883333Y-69166033D02*
X110816667Y-69132700D01*
X110816667Y-69132700D02*
X110783333Y-69099366D01*
X110783333Y-69099366D02*
X110750000Y-69032700D01*
X110750000Y-69032700D02*
X110750000Y-68999366D01*
X110750000Y-68999366D02*
X110783333Y-68932700D01*
X110783333Y-68932700D02*
X110816667Y-68899366D01*
X110816667Y-68899366D02*
X110883333Y-68866033D01*
X110883333Y-68866033D02*
X111016667Y-68866033D01*
X111016667Y-68866033D02*
X111083333Y-68899366D01*
X111083333Y-68899366D02*
X111116667Y-68932700D01*
X111116667Y-68932700D02*
X111150000Y-68999366D01*
X111150000Y-68999366D02*
X111150000Y-69032700D01*
X111150000Y-69032700D02*
X111116667Y-69099366D01*
X111116667Y-69099366D02*
X111083333Y-69132700D01*
X111083333Y-69132700D02*
X111016667Y-69166033D01*
X111016667Y-69166033D02*
X110883333Y-69166033D01*
X110883333Y-69166033D02*
X110816667Y-69199366D01*
X110816667Y-69199366D02*
X110783333Y-69232700D01*
X110783333Y-69232700D02*
X110750000Y-69299366D01*
X110750000Y-69299366D02*
X110750000Y-69432700D01*
X110750000Y-69432700D02*
X110783333Y-69499366D01*
X110783333Y-69499366D02*
X110816667Y-69532700D01*
X110816667Y-69532700D02*
X110883333Y-69566033D01*
X110883333Y-69566033D02*
X111016667Y-69566033D01*
X111016667Y-69566033D02*
X111083333Y-69532700D01*
X111083333Y-69532700D02*
X111116667Y-69499366D01*
X111116667Y-69499366D02*
X111150000Y-69432700D01*
X111150000Y-69432700D02*
X111150000Y-69299366D01*
X111150000Y-69299366D02*
X111116667Y-69232700D01*
X111116667Y-69232700D02*
X111083333Y-69199366D01*
X111083333Y-69199366D02*
X111016667Y-69166033D01*
X111583334Y-68866033D02*
X111650000Y-68866033D01*
X111650000Y-68866033D02*
X111716667Y-68899366D01*
X111716667Y-68899366D02*
X111750000Y-68932700D01*
X111750000Y-68932700D02*
X111783334Y-68999366D01*
X111783334Y-68999366D02*
X111816667Y-69132700D01*
X111816667Y-69132700D02*
X111816667Y-69299366D01*
X111816667Y-69299366D02*
X111783334Y-69432700D01*
X111783334Y-69432700D02*
X111750000Y-69499366D01*
X111750000Y-69499366D02*
X111716667Y-69532700D01*
X111716667Y-69532700D02*
X111650000Y-69566033D01*
X111650000Y-69566033D02*
X111583334Y-69566033D01*
X111583334Y-69566033D02*
X111516667Y-69532700D01*
X111516667Y-69532700D02*
X111483334Y-69499366D01*
X111483334Y-69499366D02*
X111450000Y-69432700D01*
X111450000Y-69432700D02*
X111416667Y-69299366D01*
X111416667Y-69299366D02*
X111416667Y-69132700D01*
X111416667Y-69132700D02*
X111450000Y-68999366D01*
X111450000Y-68999366D02*
X111483334Y-68932700D01*
X111483334Y-68932700D02*
X111516667Y-68899366D01*
X111516667Y-68899366D02*
X111583334Y-68866033D01*
X112450001Y-68866033D02*
X112116667Y-68866033D01*
X112116667Y-68866033D02*
X112083334Y-69199366D01*
X112083334Y-69199366D02*
X112116667Y-69166033D01*
X112116667Y-69166033D02*
X112183334Y-69132700D01*
X112183334Y-69132700D02*
X112350001Y-69132700D01*
X112350001Y-69132700D02*
X112416667Y-69166033D01*
X112416667Y-69166033D02*
X112450001Y-69199366D01*
X112450001Y-69199366D02*
X112483334Y-69266033D01*
X112483334Y-69266033D02*
X112483334Y-69432700D01*
X112483334Y-69432700D02*
X112450001Y-69499366D01*
X112450001Y-69499366D02*
X112416667Y-69532700D01*
X112416667Y-69532700D02*
X112350001Y-69566033D01*
X112350001Y-69566033D02*
X112183334Y-69566033D01*
X112183334Y-69566033D02*
X112116667Y-69532700D01*
X112116667Y-69532700D02*
X112083334Y-69499366D01*
X112616668Y-69632700D02*
X113150001Y-69632700D01*
X113216667Y-68866033D02*
X113616667Y-68866033D01*
X113416667Y-69566033D02*
X113416667Y-68866033D01*
X113983334Y-68866033D02*
X114116667Y-68866033D01*
X114116667Y-68866033D02*
X114183334Y-68899366D01*
X114183334Y-68899366D02*
X114250000Y-68966033D01*
X114250000Y-68966033D02*
X114283334Y-69099366D01*
X114283334Y-69099366D02*
X114283334Y-69332700D01*
X114283334Y-69332700D02*
X114250000Y-69466033D01*
X114250000Y-69466033D02*
X114183334Y-69532700D01*
X114183334Y-69532700D02*
X114116667Y-69566033D01*
X114116667Y-69566033D02*
X113983334Y-69566033D01*
X113983334Y-69566033D02*
X113916667Y-69532700D01*
X113916667Y-69532700D02*
X113850000Y-69466033D01*
X113850000Y-69466033D02*
X113816667Y-69332700D01*
X113816667Y-69332700D02*
X113816667Y-69099366D01*
X113816667Y-69099366D02*
X113850000Y-68966033D01*
X113850000Y-68966033D02*
X113916667Y-68899366D01*
X113916667Y-68899366D02*
X113983334Y-68866033D01*
X114550000Y-68932700D02*
X114583333Y-68899366D01*
X114583333Y-68899366D02*
X114650000Y-68866033D01*
X114650000Y-68866033D02*
X114816667Y-68866033D01*
X114816667Y-68866033D02*
X114883333Y-68899366D01*
X114883333Y-68899366D02*
X114916667Y-68932700D01*
X114916667Y-68932700D02*
X114950000Y-68999366D01*
X114950000Y-68999366D02*
X114950000Y-69066033D01*
X114950000Y-69066033D02*
X114916667Y-69166033D01*
X114916667Y-69166033D02*
X114516667Y-69566033D01*
X114516667Y-69566033D02*
X114950000Y-69566033D01*
X115216667Y-68932700D02*
X115250000Y-68899366D01*
X115250000Y-68899366D02*
X115316667Y-68866033D01*
X115316667Y-68866033D02*
X115483334Y-68866033D01*
X115483334Y-68866033D02*
X115550000Y-68899366D01*
X115550000Y-68899366D02*
X115583334Y-68932700D01*
X115583334Y-68932700D02*
X115616667Y-68999366D01*
X115616667Y-68999366D02*
X115616667Y-69066033D01*
X115616667Y-69066033D02*
X115583334Y-69166033D01*
X115583334Y-69166033D02*
X115183334Y-69566033D01*
X115183334Y-69566033D02*
X115616667Y-69566033D01*
X116050001Y-68866033D02*
X116116667Y-68866033D01*
X116116667Y-68866033D02*
X116183334Y-68899366D01*
X116183334Y-68899366D02*
X116216667Y-68932700D01*
X116216667Y-68932700D02*
X116250001Y-68999366D01*
X116250001Y-68999366D02*
X116283334Y-69132700D01*
X116283334Y-69132700D02*
X116283334Y-69299366D01*
X116283334Y-69299366D02*
X116250001Y-69432700D01*
X116250001Y-69432700D02*
X116216667Y-69499366D01*
X116216667Y-69499366D02*
X116183334Y-69532700D01*
X116183334Y-69532700D02*
X116116667Y-69566033D01*
X116116667Y-69566033D02*
X116050001Y-69566033D01*
X116050001Y-69566033D02*
X115983334Y-69532700D01*
X115983334Y-69532700D02*
X115950001Y-69499366D01*
X115950001Y-69499366D02*
X115916667Y-69432700D01*
X115916667Y-69432700D02*
X115883334Y-69299366D01*
X115883334Y-69299366D02*
X115883334Y-69132700D01*
X115883334Y-69132700D02*
X115916667Y-68999366D01*
X115916667Y-68999366D02*
X115950001Y-68932700D01*
X115950001Y-68932700D02*
X115983334Y-68899366D01*
X115983334Y-68899366D02*
X116050001Y-68866033D01*
X112466666Y-88997319D02*
X112466666Y-89711604D01*
X112466666Y-89711604D02*
X112419047Y-89854461D01*
X112419047Y-89854461D02*
X112323809Y-89949700D01*
X112323809Y-89949700D02*
X112180952Y-89997319D01*
X112180952Y-89997319D02*
X112085714Y-89997319D01*
X113466666Y-89997319D02*
X112895238Y-89997319D01*
X113180952Y-89997319D02*
X113180952Y-88997319D01*
X113180952Y-88997319D02*
X113085714Y-89140176D01*
X113085714Y-89140176D02*
X112990476Y-89235414D01*
X112990476Y-89235414D02*
X112895238Y-89283033D01*
X110190535Y-78241866D02*
X110290535Y-78275200D01*
X110290535Y-78275200D02*
X110323868Y-78308533D01*
X110323868Y-78308533D02*
X110357201Y-78375200D01*
X110357201Y-78375200D02*
X110357201Y-78475200D01*
X110357201Y-78475200D02*
X110323868Y-78541866D01*
X110323868Y-78541866D02*
X110290535Y-78575200D01*
X110290535Y-78575200D02*
X110223868Y-78608533D01*
X110223868Y-78608533D02*
X109957201Y-78608533D01*
X109957201Y-78608533D02*
X109957201Y-77908533D01*
X109957201Y-77908533D02*
X110190535Y-77908533D01*
X110190535Y-77908533D02*
X110257201Y-77941866D01*
X110257201Y-77941866D02*
X110290535Y-77975200D01*
X110290535Y-77975200D02*
X110323868Y-78041866D01*
X110323868Y-78041866D02*
X110323868Y-78108533D01*
X110323868Y-78108533D02*
X110290535Y-78175200D01*
X110290535Y-78175200D02*
X110257201Y-78208533D01*
X110257201Y-78208533D02*
X110190535Y-78241866D01*
X110190535Y-78241866D02*
X109957201Y-78241866D01*
X110957201Y-78608533D02*
X110957201Y-78241866D01*
X110957201Y-78241866D02*
X110923868Y-78175200D01*
X110923868Y-78175200D02*
X110857201Y-78141866D01*
X110857201Y-78141866D02*
X110723868Y-78141866D01*
X110723868Y-78141866D02*
X110657201Y-78175200D01*
X110957201Y-78575200D02*
X110890535Y-78608533D01*
X110890535Y-78608533D02*
X110723868Y-78608533D01*
X110723868Y-78608533D02*
X110657201Y-78575200D01*
X110657201Y-78575200D02*
X110623868Y-78508533D01*
X110623868Y-78508533D02*
X110623868Y-78441866D01*
X110623868Y-78441866D02*
X110657201Y-78375200D01*
X110657201Y-78375200D02*
X110723868Y-78341866D01*
X110723868Y-78341866D02*
X110890535Y-78341866D01*
X110890535Y-78341866D02*
X110957201Y-78308533D01*
X111290534Y-78608533D02*
X111290534Y-78141866D01*
X111290534Y-78275200D02*
X111323868Y-78208533D01*
X111323868Y-78208533D02*
X111357201Y-78175200D01*
X111357201Y-78175200D02*
X111423868Y-78141866D01*
X111423868Y-78141866D02*
X111490534Y-78141866D01*
X111723867Y-78608533D02*
X111723867Y-78141866D01*
X111723867Y-78275200D02*
X111757201Y-78208533D01*
X111757201Y-78208533D02*
X111790534Y-78175200D01*
X111790534Y-78175200D02*
X111857201Y-78141866D01*
X111857201Y-78141866D02*
X111923867Y-78141866D01*
X112423867Y-78575200D02*
X112357200Y-78608533D01*
X112357200Y-78608533D02*
X112223867Y-78608533D01*
X112223867Y-78608533D02*
X112157200Y-78575200D01*
X112157200Y-78575200D02*
X112123867Y-78508533D01*
X112123867Y-78508533D02*
X112123867Y-78241866D01*
X112123867Y-78241866D02*
X112157200Y-78175200D01*
X112157200Y-78175200D02*
X112223867Y-78141866D01*
X112223867Y-78141866D02*
X112357200Y-78141866D01*
X112357200Y-78141866D02*
X112423867Y-78175200D01*
X112423867Y-78175200D02*
X112457200Y-78241866D01*
X112457200Y-78241866D02*
X112457200Y-78308533D01*
X112457200Y-78308533D02*
X112123867Y-78375200D01*
X112857200Y-78608533D02*
X112790534Y-78575200D01*
X112790534Y-78575200D02*
X112757200Y-78508533D01*
X112757200Y-78508533D02*
X112757200Y-77908533D01*
X112957201Y-78675200D02*
X113490534Y-78675200D01*
X113857200Y-77908533D02*
X113857200Y-78408533D01*
X113857200Y-78408533D02*
X113823867Y-78508533D01*
X113823867Y-78508533D02*
X113757200Y-78575200D01*
X113757200Y-78575200D02*
X113657200Y-78608533D01*
X113657200Y-78608533D02*
X113590534Y-78608533D01*
X114490533Y-78608533D02*
X114490533Y-78241866D01*
X114490533Y-78241866D02*
X114457200Y-78175200D01*
X114457200Y-78175200D02*
X114390533Y-78141866D01*
X114390533Y-78141866D02*
X114257200Y-78141866D01*
X114257200Y-78141866D02*
X114190533Y-78175200D01*
X114490533Y-78575200D02*
X114423867Y-78608533D01*
X114423867Y-78608533D02*
X114257200Y-78608533D01*
X114257200Y-78608533D02*
X114190533Y-78575200D01*
X114190533Y-78575200D02*
X114157200Y-78508533D01*
X114157200Y-78508533D02*
X114157200Y-78441866D01*
X114157200Y-78441866D02*
X114190533Y-78375200D01*
X114190533Y-78375200D02*
X114257200Y-78341866D01*
X114257200Y-78341866D02*
X114423867Y-78341866D01*
X114423867Y-78341866D02*
X114490533Y-78308533D01*
X115123866Y-78575200D02*
X115057200Y-78608533D01*
X115057200Y-78608533D02*
X114923866Y-78608533D01*
X114923866Y-78608533D02*
X114857200Y-78575200D01*
X114857200Y-78575200D02*
X114823866Y-78541866D01*
X114823866Y-78541866D02*
X114790533Y-78475200D01*
X114790533Y-78475200D02*
X114790533Y-78275200D01*
X114790533Y-78275200D02*
X114823866Y-78208533D01*
X114823866Y-78208533D02*
X114857200Y-78175200D01*
X114857200Y-78175200D02*
X114923866Y-78141866D01*
X114923866Y-78141866D02*
X115057200Y-78141866D01*
X115057200Y-78141866D02*
X115123866Y-78175200D01*
X115423866Y-78608533D02*
X115423866Y-77908533D01*
X115490533Y-78341866D02*
X115690533Y-78608533D01*
X115690533Y-78141866D02*
X115423866Y-78408533D01*
X115823867Y-78675200D02*
X116357200Y-78675200D01*
X116490533Y-78575200D02*
X116590533Y-78608533D01*
X116590533Y-78608533D02*
X116757200Y-78608533D01*
X116757200Y-78608533D02*
X116823866Y-78575200D01*
X116823866Y-78575200D02*
X116857200Y-78541866D01*
X116857200Y-78541866D02*
X116890533Y-78475200D01*
X116890533Y-78475200D02*
X116890533Y-78408533D01*
X116890533Y-78408533D02*
X116857200Y-78341866D01*
X116857200Y-78341866D02*
X116823866Y-78308533D01*
X116823866Y-78308533D02*
X116757200Y-78275200D01*
X116757200Y-78275200D02*
X116623866Y-78241866D01*
X116623866Y-78241866D02*
X116557200Y-78208533D01*
X116557200Y-78208533D02*
X116523866Y-78175200D01*
X116523866Y-78175200D02*
X116490533Y-78108533D01*
X116490533Y-78108533D02*
X116490533Y-78041866D01*
X116490533Y-78041866D02*
X116523866Y-77975200D01*
X116523866Y-77975200D02*
X116557200Y-77941866D01*
X116557200Y-77941866D02*
X116623866Y-77908533D01*
X116623866Y-77908533D02*
X116790533Y-77908533D01*
X116790533Y-77908533D02*
X116890533Y-77941866D01*
X117123867Y-78141866D02*
X117257200Y-78608533D01*
X117257200Y-78608533D02*
X117390533Y-78275200D01*
X117390533Y-78275200D02*
X117523867Y-78608533D01*
X117523867Y-78608533D02*
X117657200Y-78141866D01*
X117923866Y-78608533D02*
X117923866Y-78141866D01*
X117923866Y-77908533D02*
X117890533Y-77941866D01*
X117890533Y-77941866D02*
X117923866Y-77975200D01*
X117923866Y-77975200D02*
X117957200Y-77941866D01*
X117957200Y-77941866D02*
X117923866Y-77908533D01*
X117923866Y-77908533D02*
X117923866Y-77975200D01*
X118157199Y-78141866D02*
X118423866Y-78141866D01*
X118257199Y-77908533D02*
X118257199Y-78508533D01*
X118257199Y-78508533D02*
X118290533Y-78575200D01*
X118290533Y-78575200D02*
X118357199Y-78608533D01*
X118357199Y-78608533D02*
X118423866Y-78608533D01*
X118957199Y-78575200D02*
X118890533Y-78608533D01*
X118890533Y-78608533D02*
X118757199Y-78608533D01*
X118757199Y-78608533D02*
X118690533Y-78575200D01*
X118690533Y-78575200D02*
X118657199Y-78541866D01*
X118657199Y-78541866D02*
X118623866Y-78475200D01*
X118623866Y-78475200D02*
X118623866Y-78275200D01*
X118623866Y-78275200D02*
X118657199Y-78208533D01*
X118657199Y-78208533D02*
X118690533Y-78175200D01*
X118690533Y-78175200D02*
X118757199Y-78141866D01*
X118757199Y-78141866D02*
X118890533Y-78141866D01*
X118890533Y-78141866D02*
X118957199Y-78175200D01*
X119257199Y-78608533D02*
X119257199Y-77908533D01*
X119557199Y-78608533D02*
X119557199Y-78241866D01*
X119557199Y-78241866D02*
X119523866Y-78175200D01*
X119523866Y-78175200D02*
X119457199Y-78141866D01*
X119457199Y-78141866D02*
X119357199Y-78141866D01*
X119357199Y-78141866D02*
X119290533Y-78175200D01*
X119290533Y-78175200D02*
X119257199Y-78208533D01*
X117663933Y-67859580D02*
X117616314Y-67907200D01*
X117616314Y-67907200D02*
X117473457Y-67954819D01*
X117473457Y-67954819D02*
X117378219Y-67954819D01*
X117378219Y-67954819D02*
X117235362Y-67907200D01*
X117235362Y-67907200D02*
X117140124Y-67811961D01*
X117140124Y-67811961D02*
X117092505Y-67716723D01*
X117092505Y-67716723D02*
X117044886Y-67526247D01*
X117044886Y-67526247D02*
X117044886Y-67383390D01*
X117044886Y-67383390D02*
X117092505Y-67192914D01*
X117092505Y-67192914D02*
X117140124Y-67097676D01*
X117140124Y-67097676D02*
X117235362Y-67002438D01*
X117235362Y-67002438D02*
X117378219Y-66954819D01*
X117378219Y-66954819D02*
X117473457Y-66954819D01*
X117473457Y-66954819D02*
X117616314Y-67002438D01*
X117616314Y-67002438D02*
X117663933Y-67050057D01*
X118616314Y-67954819D02*
X118044886Y-67954819D01*
X118330600Y-67954819D02*
X118330600Y-66954819D01*
X118330600Y-66954819D02*
X118235362Y-67097676D01*
X118235362Y-67097676D02*
X118140124Y-67192914D01*
X118140124Y-67192914D02*
X118044886Y-67240533D01*
X115505800Y-63358833D02*
X115105800Y-63358833D01*
X115305800Y-63358833D02*
X115305800Y-62658833D01*
X115305800Y-62658833D02*
X115239133Y-62758833D01*
X115239133Y-62758833D02*
X115172467Y-62825500D01*
X115172467Y-62825500D02*
X115105800Y-62858833D01*
X115939134Y-62658833D02*
X116005800Y-62658833D01*
X116005800Y-62658833D02*
X116072467Y-62692166D01*
X116072467Y-62692166D02*
X116105800Y-62725500D01*
X116105800Y-62725500D02*
X116139134Y-62792166D01*
X116139134Y-62792166D02*
X116172467Y-62925500D01*
X116172467Y-62925500D02*
X116172467Y-63092166D01*
X116172467Y-63092166D02*
X116139134Y-63225500D01*
X116139134Y-63225500D02*
X116105800Y-63292166D01*
X116105800Y-63292166D02*
X116072467Y-63325500D01*
X116072467Y-63325500D02*
X116005800Y-63358833D01*
X116005800Y-63358833D02*
X115939134Y-63358833D01*
X115939134Y-63358833D02*
X115872467Y-63325500D01*
X115872467Y-63325500D02*
X115839134Y-63292166D01*
X115839134Y-63292166D02*
X115805800Y-63225500D01*
X115805800Y-63225500D02*
X115772467Y-63092166D01*
X115772467Y-63092166D02*
X115772467Y-62925500D01*
X115772467Y-62925500D02*
X115805800Y-62792166D01*
X115805800Y-62792166D02*
X115839134Y-62725500D01*
X115839134Y-62725500D02*
X115872467Y-62692166D01*
X115872467Y-62692166D02*
X115939134Y-62658833D01*
X116772467Y-62892166D02*
X116772467Y-63358833D01*
X116472467Y-62892166D02*
X116472467Y-63258833D01*
X116472467Y-63258833D02*
X116505801Y-63325500D01*
X116505801Y-63325500D02*
X116572467Y-63358833D01*
X116572467Y-63358833D02*
X116672467Y-63358833D01*
X116672467Y-63358833D02*
X116739134Y-63325500D01*
X116739134Y-63325500D02*
X116772467Y-63292166D01*
X117339134Y-62992166D02*
X117105800Y-62992166D01*
X117105800Y-63358833D02*
X117105800Y-62658833D01*
X117105800Y-62658833D02*
X117439134Y-62658833D01*
X127533333Y-89534819D02*
X127200000Y-89058628D01*
X126961905Y-89534819D02*
X126961905Y-88534819D01*
X126961905Y-88534819D02*
X127342857Y-88534819D01*
X127342857Y-88534819D02*
X127438095Y-88582438D01*
X127438095Y-88582438D02*
X127485714Y-88630057D01*
X127485714Y-88630057D02*
X127533333Y-88725295D01*
X127533333Y-88725295D02*
X127533333Y-88868152D01*
X127533333Y-88868152D02*
X127485714Y-88963390D01*
X127485714Y-88963390D02*
X127438095Y-89011009D01*
X127438095Y-89011009D02*
X127342857Y-89058628D01*
X127342857Y-89058628D02*
X126961905Y-89058628D01*
X127914286Y-88630057D02*
X127961905Y-88582438D01*
X127961905Y-88582438D02*
X128057143Y-88534819D01*
X128057143Y-88534819D02*
X128295238Y-88534819D01*
X128295238Y-88534819D02*
X128390476Y-88582438D01*
X128390476Y-88582438D02*
X128438095Y-88630057D01*
X128438095Y-88630057D02*
X128485714Y-88725295D01*
X128485714Y-88725295D02*
X128485714Y-88820533D01*
X128485714Y-88820533D02*
X128438095Y-88963390D01*
X128438095Y-88963390D02*
X127866667Y-89534819D01*
X127866667Y-89534819D02*
X128485714Y-89534819D01*
X122950400Y-92376833D02*
X123383733Y-92376833D01*
X123383733Y-92376833D02*
X123150400Y-92643500D01*
X123150400Y-92643500D02*
X123250400Y-92643500D01*
X123250400Y-92643500D02*
X123317066Y-92676833D01*
X123317066Y-92676833D02*
X123350400Y-92710166D01*
X123350400Y-92710166D02*
X123383733Y-92776833D01*
X123383733Y-92776833D02*
X123383733Y-92943500D01*
X123383733Y-92943500D02*
X123350400Y-93010166D01*
X123350400Y-93010166D02*
X123317066Y-93043500D01*
X123317066Y-93043500D02*
X123250400Y-93076833D01*
X123250400Y-93076833D02*
X123050400Y-93076833D01*
X123050400Y-93076833D02*
X122983733Y-93043500D01*
X122983733Y-93043500D02*
X122950400Y-93010166D01*
X123617067Y-92376833D02*
X124050400Y-92376833D01*
X124050400Y-92376833D02*
X123817067Y-92643500D01*
X123817067Y-92643500D02*
X123917067Y-92643500D01*
X123917067Y-92643500D02*
X123983733Y-92676833D01*
X123983733Y-92676833D02*
X124017067Y-92710166D01*
X124017067Y-92710166D02*
X124050400Y-92776833D01*
X124050400Y-92776833D02*
X124050400Y-92943500D01*
X124050400Y-92943500D02*
X124017067Y-93010166D01*
X124017067Y-93010166D02*
X123983733Y-93043500D01*
X123983733Y-93043500D02*
X123917067Y-93076833D01*
X123917067Y-93076833D02*
X123717067Y-93076833D01*
X123717067Y-93076833D02*
X123650400Y-93043500D01*
X123650400Y-93043500D02*
X123617067Y-93010166D01*
X124483734Y-92376833D02*
X124550400Y-92376833D01*
X124550400Y-92376833D02*
X124617067Y-92410166D01*
X124617067Y-92410166D02*
X124650400Y-92443500D01*
X124650400Y-92443500D02*
X124683734Y-92510166D01*
X124683734Y-92510166D02*
X124717067Y-92643500D01*
X124717067Y-92643500D02*
X124717067Y-92810166D01*
X124717067Y-92810166D02*
X124683734Y-92943500D01*
X124683734Y-92943500D02*
X124650400Y-93010166D01*
X124650400Y-93010166D02*
X124617067Y-93043500D01*
X124617067Y-93043500D02*
X124550400Y-93076833D01*
X124550400Y-93076833D02*
X124483734Y-93076833D01*
X124483734Y-93076833D02*
X124417067Y-93043500D01*
X124417067Y-93043500D02*
X124383734Y-93010166D01*
X124383734Y-93010166D02*
X124350400Y-92943500D01*
X124350400Y-92943500D02*
X124317067Y-92810166D01*
X124317067Y-92810166D02*
X124317067Y-92643500D01*
X124317067Y-92643500D02*
X124350400Y-92510166D01*
X124350400Y-92510166D02*
X124383734Y-92443500D01*
X124383734Y-92443500D02*
X124417067Y-92410166D01*
X124417067Y-92410166D02*
X124483734Y-92376833D01*
X127676666Y-97701319D02*
X127676666Y-98415604D01*
X127676666Y-98415604D02*
X127629047Y-98558461D01*
X127629047Y-98558461D02*
X127533809Y-98653700D01*
X127533809Y-98653700D02*
X127390952Y-98701319D01*
X127390952Y-98701319D02*
X127295714Y-98701319D01*
X128295714Y-98129890D02*
X128200476Y-98082271D01*
X128200476Y-98082271D02*
X128152857Y-98034652D01*
X128152857Y-98034652D02*
X128105238Y-97939414D01*
X128105238Y-97939414D02*
X128105238Y-97891795D01*
X128105238Y-97891795D02*
X128152857Y-97796557D01*
X128152857Y-97796557D02*
X128200476Y-97748938D01*
X128200476Y-97748938D02*
X128295714Y-97701319D01*
X128295714Y-97701319D02*
X128486190Y-97701319D01*
X128486190Y-97701319D02*
X128581428Y-97748938D01*
X128581428Y-97748938D02*
X128629047Y-97796557D01*
X128629047Y-97796557D02*
X128676666Y-97891795D01*
X128676666Y-97891795D02*
X128676666Y-97939414D01*
X128676666Y-97939414D02*
X128629047Y-98034652D01*
X128629047Y-98034652D02*
X128581428Y-98082271D01*
X128581428Y-98082271D02*
X128486190Y-98129890D01*
X128486190Y-98129890D02*
X128295714Y-98129890D01*
X128295714Y-98129890D02*
X128200476Y-98177509D01*
X128200476Y-98177509D02*
X128152857Y-98225128D01*
X128152857Y-98225128D02*
X128105238Y-98320366D01*
X128105238Y-98320366D02*
X128105238Y-98510842D01*
X128105238Y-98510842D02*
X128152857Y-98606080D01*
X128152857Y-98606080D02*
X128200476Y-98653700D01*
X128200476Y-98653700D02*
X128295714Y-98701319D01*
X128295714Y-98701319D02*
X128486190Y-98701319D01*
X128486190Y-98701319D02*
X128581428Y-98653700D01*
X128581428Y-98653700D02*
X128629047Y-98606080D01*
X128629047Y-98606080D02*
X128676666Y-98510842D01*
X128676666Y-98510842D02*
X128676666Y-98320366D01*
X128676666Y-98320366D02*
X128629047Y-98225128D01*
X128629047Y-98225128D02*
X128581428Y-98177509D01*
X128581428Y-98177509D02*
X128486190Y-98129890D01*
X134207266Y-109055819D02*
X134207266Y-109770104D01*
X134207266Y-109770104D02*
X134159647Y-109912961D01*
X134159647Y-109912961D02*
X134064409Y-110008200D01*
X134064409Y-110008200D02*
X133921552Y-110055819D01*
X133921552Y-110055819D02*
X133826314Y-110055819D01*
X135112028Y-109389152D02*
X135112028Y-110055819D01*
X134873933Y-109008200D02*
X134635838Y-109722485D01*
X134635838Y-109722485D02*
X135254885Y-109722485D01*
X111599819Y-57410833D02*
X112314104Y-57410833D01*
X112314104Y-57410833D02*
X112456961Y-57458452D01*
X112456961Y-57458452D02*
X112552200Y-57553690D01*
X112552200Y-57553690D02*
X112599819Y-57696547D01*
X112599819Y-57696547D02*
X112599819Y-57791785D01*
X111599819Y-56458452D02*
X111599819Y-56934642D01*
X111599819Y-56934642D02*
X112076009Y-56982261D01*
X112076009Y-56982261D02*
X112028390Y-56934642D01*
X112028390Y-56934642D02*
X111980771Y-56839404D01*
X111980771Y-56839404D02*
X111980771Y-56601309D01*
X111980771Y-56601309D02*
X112028390Y-56506071D01*
X112028390Y-56506071D02*
X112076009Y-56458452D01*
X112076009Y-56458452D02*
X112171247Y-56410833D01*
X112171247Y-56410833D02*
X112409342Y-56410833D01*
X112409342Y-56410833D02*
X112504580Y-56458452D01*
X112504580Y-56458452D02*
X112552200Y-56506071D01*
X112552200Y-56506071D02*
X112599819Y-56601309D01*
X112599819Y-56601309D02*
X112599819Y-56839404D01*
X112599819Y-56839404D02*
X112552200Y-56934642D01*
X112552200Y-56934642D02*
X112504580Y-56982261D01*
X116128895Y-91555219D02*
X116128895Y-92364742D01*
X116128895Y-92364742D02*
X116176514Y-92459980D01*
X116176514Y-92459980D02*
X116224133Y-92507600D01*
X116224133Y-92507600D02*
X116319371Y-92555219D01*
X116319371Y-92555219D02*
X116509847Y-92555219D01*
X116509847Y-92555219D02*
X116605085Y-92507600D01*
X116605085Y-92507600D02*
X116652704Y-92459980D01*
X116652704Y-92459980D02*
X116700323Y-92364742D01*
X116700323Y-92364742D02*
X116700323Y-91555219D01*
X117128895Y-91650457D02*
X117176514Y-91602838D01*
X117176514Y-91602838D02*
X117271752Y-91555219D01*
X117271752Y-91555219D02*
X117509847Y-91555219D01*
X117509847Y-91555219D02*
X117605085Y-91602838D01*
X117605085Y-91602838D02*
X117652704Y-91650457D01*
X117652704Y-91650457D02*
X117700323Y-91745695D01*
X117700323Y-91745695D02*
X117700323Y-91840933D01*
X117700323Y-91840933D02*
X117652704Y-91983790D01*
X117652704Y-91983790D02*
X117081276Y-92555219D01*
X117081276Y-92555219D02*
X117700323Y-92555219D01*
X107836933Y-92568833D02*
X107503599Y-92568833D01*
X107503599Y-92568833D02*
X107503599Y-91868833D01*
X108070266Y-92568833D02*
X108070266Y-91868833D01*
X108070266Y-91868833D02*
X108303600Y-92368833D01*
X108303600Y-92368833D02*
X108536933Y-91868833D01*
X108536933Y-91868833D02*
X108536933Y-92568833D01*
X108803600Y-91868833D02*
X109236933Y-91868833D01*
X109236933Y-91868833D02*
X109003600Y-92135500D01*
X109003600Y-92135500D02*
X109103600Y-92135500D01*
X109103600Y-92135500D02*
X109170266Y-92168833D01*
X109170266Y-92168833D02*
X109203600Y-92202166D01*
X109203600Y-92202166D02*
X109236933Y-92268833D01*
X109236933Y-92268833D02*
X109236933Y-92435500D01*
X109236933Y-92435500D02*
X109203600Y-92502166D01*
X109203600Y-92502166D02*
X109170266Y-92535500D01*
X109170266Y-92535500D02*
X109103600Y-92568833D01*
X109103600Y-92568833D02*
X108903600Y-92568833D01*
X108903600Y-92568833D02*
X108836933Y-92535500D01*
X108836933Y-92535500D02*
X108803600Y-92502166D01*
X109903600Y-92568833D02*
X109503600Y-92568833D01*
X109703600Y-92568833D02*
X109703600Y-91868833D01*
X109703600Y-91868833D02*
X109636933Y-91968833D01*
X109636933Y-91968833D02*
X109570267Y-92035500D01*
X109570267Y-92035500D02*
X109503600Y-92068833D01*
X110136934Y-91868833D02*
X110603600Y-91868833D01*
X110603600Y-91868833D02*
X110303600Y-92568833D01*
X110703601Y-92635500D02*
X111236934Y-92635500D01*
X111303600Y-91868833D02*
X111703600Y-91868833D01*
X111503600Y-92568833D02*
X111503600Y-91868833D01*
X112070267Y-91868833D02*
X112203600Y-91868833D01*
X112203600Y-91868833D02*
X112270267Y-91902166D01*
X112270267Y-91902166D02*
X112336933Y-91968833D01*
X112336933Y-91968833D02*
X112370267Y-92102166D01*
X112370267Y-92102166D02*
X112370267Y-92335500D01*
X112370267Y-92335500D02*
X112336933Y-92468833D01*
X112336933Y-92468833D02*
X112270267Y-92535500D01*
X112270267Y-92535500D02*
X112203600Y-92568833D01*
X112203600Y-92568833D02*
X112070267Y-92568833D01*
X112070267Y-92568833D02*
X112003600Y-92535500D01*
X112003600Y-92535500D02*
X111936933Y-92468833D01*
X111936933Y-92468833D02*
X111903600Y-92335500D01*
X111903600Y-92335500D02*
X111903600Y-92102166D01*
X111903600Y-92102166D02*
X111936933Y-91968833D01*
X111936933Y-91968833D02*
X112003600Y-91902166D01*
X112003600Y-91902166D02*
X112070267Y-91868833D01*
X112670266Y-92302166D02*
X113203600Y-92302166D01*
X113503600Y-91935500D02*
X113536933Y-91902166D01*
X113536933Y-91902166D02*
X113603600Y-91868833D01*
X113603600Y-91868833D02*
X113770267Y-91868833D01*
X113770267Y-91868833D02*
X113836933Y-91902166D01*
X113836933Y-91902166D02*
X113870267Y-91935500D01*
X113870267Y-91935500D02*
X113903600Y-92002166D01*
X113903600Y-92002166D02*
X113903600Y-92068833D01*
X113903600Y-92068833D02*
X113870267Y-92168833D01*
X113870267Y-92168833D02*
X113470267Y-92568833D01*
X113470267Y-92568833D02*
X113903600Y-92568833D01*
X114170267Y-91935500D02*
X114203600Y-91902166D01*
X114203600Y-91902166D02*
X114270267Y-91868833D01*
X114270267Y-91868833D02*
X114436934Y-91868833D01*
X114436934Y-91868833D02*
X114503600Y-91902166D01*
X114503600Y-91902166D02*
X114536934Y-91935500D01*
X114536934Y-91935500D02*
X114570267Y-92002166D01*
X114570267Y-92002166D02*
X114570267Y-92068833D01*
X114570267Y-92068833D02*
X114536934Y-92168833D01*
X114536934Y-92168833D02*
X114136934Y-92568833D01*
X114136934Y-92568833D02*
X114570267Y-92568833D01*
X115003601Y-91868833D02*
X115070267Y-91868833D01*
X115070267Y-91868833D02*
X115136934Y-91902166D01*
X115136934Y-91902166D02*
X115170267Y-91935500D01*
X115170267Y-91935500D02*
X115203601Y-92002166D01*
X115203601Y-92002166D02*
X115236934Y-92135500D01*
X115236934Y-92135500D02*
X115236934Y-92302166D01*
X115236934Y-92302166D02*
X115203601Y-92435500D01*
X115203601Y-92435500D02*
X115170267Y-92502166D01*
X115170267Y-92502166D02*
X115136934Y-92535500D01*
X115136934Y-92535500D02*
X115070267Y-92568833D01*
X115070267Y-92568833D02*
X115003601Y-92568833D01*
X115003601Y-92568833D02*
X114936934Y-92535500D01*
X114936934Y-92535500D02*
X114903601Y-92502166D01*
X114903601Y-92502166D02*
X114870267Y-92435500D01*
X114870267Y-92435500D02*
X114836934Y-92302166D01*
X114836934Y-92302166D02*
X114836934Y-92135500D01*
X114836934Y-92135500D02*
X114870267Y-92002166D01*
X114870267Y-92002166D02*
X114903601Y-91935500D01*
X114903601Y-91935500D02*
X114936934Y-91902166D01*
X114936934Y-91902166D02*
X115003601Y-91868833D01*
X127744819Y-84988094D02*
X126744819Y-84988094D01*
X126744819Y-84988094D02*
X126744819Y-84749999D01*
X126744819Y-84749999D02*
X126792438Y-84607142D01*
X126792438Y-84607142D02*
X126887676Y-84511904D01*
X126887676Y-84511904D02*
X126982914Y-84464285D01*
X126982914Y-84464285D02*
X127173390Y-84416666D01*
X127173390Y-84416666D02*
X127316247Y-84416666D01*
X127316247Y-84416666D02*
X127506723Y-84464285D01*
X127506723Y-84464285D02*
X127601961Y-84511904D01*
X127601961Y-84511904D02*
X127697200Y-84607142D01*
X127697200Y-84607142D02*
X127744819Y-84749999D01*
X127744819Y-84749999D02*
X127744819Y-84988094D01*
X126840057Y-84035713D02*
X126792438Y-83988094D01*
X126792438Y-83988094D02*
X126744819Y-83892856D01*
X126744819Y-83892856D02*
X126744819Y-83654761D01*
X126744819Y-83654761D02*
X126792438Y-83559523D01*
X126792438Y-83559523D02*
X126840057Y-83511904D01*
X126840057Y-83511904D02*
X126935295Y-83464285D01*
X126935295Y-83464285D02*
X127030533Y-83464285D01*
X127030533Y-83464285D02*
X127173390Y-83511904D01*
X127173390Y-83511904D02*
X127744819Y-84083332D01*
X127744819Y-84083332D02*
X127744819Y-83464285D01*
X133526033Y-84700000D02*
X133526033Y-85033333D01*
X133526033Y-85033333D02*
X132826033Y-85033333D01*
X133159366Y-84466666D02*
X133159366Y-84233333D01*
X133526033Y-84133333D02*
X133526033Y-84466666D01*
X133526033Y-84466666D02*
X132826033Y-84466666D01*
X132826033Y-84466666D02*
X132826033Y-84133333D01*
X133526033Y-83833333D02*
X132826033Y-83833333D01*
X132826033Y-83833333D02*
X132826033Y-83666666D01*
X132826033Y-83666666D02*
X132859366Y-83566666D01*
X132859366Y-83566666D02*
X132926033Y-83500000D01*
X132926033Y-83500000D02*
X132992700Y-83466666D01*
X132992700Y-83466666D02*
X133126033Y-83433333D01*
X133126033Y-83433333D02*
X133226033Y-83433333D01*
X133226033Y-83433333D02*
X133359366Y-83466666D01*
X133359366Y-83466666D02*
X133426033Y-83500000D01*
X133426033Y-83500000D02*
X133492700Y-83566666D01*
X133492700Y-83566666D02*
X133526033Y-83666666D01*
X133526033Y-83666666D02*
X133526033Y-83833333D01*
X127533333Y-81404619D02*
X127200000Y-80928428D01*
X126961905Y-81404619D02*
X126961905Y-80404619D01*
X126961905Y-80404619D02*
X127342857Y-80404619D01*
X127342857Y-80404619D02*
X127438095Y-80452238D01*
X127438095Y-80452238D02*
X127485714Y-80499857D01*
X127485714Y-80499857D02*
X127533333Y-80595095D01*
X127533333Y-80595095D02*
X127533333Y-80737952D01*
X127533333Y-80737952D02*
X127485714Y-80833190D01*
X127485714Y-80833190D02*
X127438095Y-80880809D01*
X127438095Y-80880809D02*
X127342857Y-80928428D01*
X127342857Y-80928428D02*
X126961905Y-80928428D01*
X128485714Y-81404619D02*
X127914286Y-81404619D01*
X128200000Y-81404619D02*
X128200000Y-80404619D01*
X128200000Y-80404619D02*
X128104762Y-80547476D01*
X128104762Y-80547476D02*
X128009524Y-80642714D01*
X128009524Y-80642714D02*
X127914286Y-80690333D01*
X122950400Y-80464233D02*
X123383733Y-80464233D01*
X123383733Y-80464233D02*
X123150400Y-80730900D01*
X123150400Y-80730900D02*
X123250400Y-80730900D01*
X123250400Y-80730900D02*
X123317066Y-80764233D01*
X123317066Y-80764233D02*
X123350400Y-80797566D01*
X123350400Y-80797566D02*
X123383733Y-80864233D01*
X123383733Y-80864233D02*
X123383733Y-81030900D01*
X123383733Y-81030900D02*
X123350400Y-81097566D01*
X123350400Y-81097566D02*
X123317066Y-81130900D01*
X123317066Y-81130900D02*
X123250400Y-81164233D01*
X123250400Y-81164233D02*
X123050400Y-81164233D01*
X123050400Y-81164233D02*
X122983733Y-81130900D01*
X122983733Y-81130900D02*
X122950400Y-81097566D01*
X123617067Y-80464233D02*
X124050400Y-80464233D01*
X124050400Y-80464233D02*
X123817067Y-80730900D01*
X123817067Y-80730900D02*
X123917067Y-80730900D01*
X123917067Y-80730900D02*
X123983733Y-80764233D01*
X123983733Y-80764233D02*
X124017067Y-80797566D01*
X124017067Y-80797566D02*
X124050400Y-80864233D01*
X124050400Y-80864233D02*
X124050400Y-81030900D01*
X124050400Y-81030900D02*
X124017067Y-81097566D01*
X124017067Y-81097566D02*
X123983733Y-81130900D01*
X123983733Y-81130900D02*
X123917067Y-81164233D01*
X123917067Y-81164233D02*
X123717067Y-81164233D01*
X123717067Y-81164233D02*
X123650400Y-81130900D01*
X123650400Y-81130900D02*
X123617067Y-81097566D01*
X124483734Y-80464233D02*
X124550400Y-80464233D01*
X124550400Y-80464233D02*
X124617067Y-80497566D01*
X124617067Y-80497566D02*
X124650400Y-80530900D01*
X124650400Y-80530900D02*
X124683734Y-80597566D01*
X124683734Y-80597566D02*
X124717067Y-80730900D01*
X124717067Y-80730900D02*
X124717067Y-80897566D01*
X124717067Y-80897566D02*
X124683734Y-81030900D01*
X124683734Y-81030900D02*
X124650400Y-81097566D01*
X124650400Y-81097566D02*
X124617067Y-81130900D01*
X124617067Y-81130900D02*
X124550400Y-81164233D01*
X124550400Y-81164233D02*
X124483734Y-81164233D01*
X124483734Y-81164233D02*
X124417067Y-81130900D01*
X124417067Y-81130900D02*
X124383734Y-81097566D01*
X124383734Y-81097566D02*
X124350400Y-81030900D01*
X124350400Y-81030900D02*
X124317067Y-80897566D01*
X124317067Y-80897566D02*
X124317067Y-80730900D01*
X124317067Y-80730900D02*
X124350400Y-80597566D01*
X124350400Y-80597566D02*
X124383734Y-80530900D01*
X124383734Y-80530900D02*
X124417067Y-80497566D01*
X124417067Y-80497566D02*
X124483734Y-80464233D01*
X127676666Y-66129819D02*
X127676666Y-66844104D01*
X127676666Y-66844104D02*
X127629047Y-66986961D01*
X127629047Y-66986961D02*
X127533809Y-67082200D01*
X127533809Y-67082200D02*
X127390952Y-67129819D01*
X127390952Y-67129819D02*
X127295714Y-67129819D01*
X128581428Y-66129819D02*
X128390952Y-66129819D01*
X128390952Y-66129819D02*
X128295714Y-66177438D01*
X128295714Y-66177438D02*
X128248095Y-66225057D01*
X128248095Y-66225057D02*
X128152857Y-66367914D01*
X128152857Y-66367914D02*
X128105238Y-66558390D01*
X128105238Y-66558390D02*
X128105238Y-66939342D01*
X128105238Y-66939342D02*
X128152857Y-67034580D01*
X128152857Y-67034580D02*
X128200476Y-67082200D01*
X128200476Y-67082200D02*
X128295714Y-67129819D01*
X128295714Y-67129819D02*
X128486190Y-67129819D01*
X128486190Y-67129819D02*
X128581428Y-67082200D01*
X128581428Y-67082200D02*
X128629047Y-67034580D01*
X128629047Y-67034580D02*
X128676666Y-66939342D01*
X128676666Y-66939342D02*
X128676666Y-66701247D01*
X128676666Y-66701247D02*
X128629047Y-66606009D01*
X128629047Y-66606009D02*
X128581428Y-66558390D01*
X128581428Y-66558390D02*
X128486190Y-66510771D01*
X128486190Y-66510771D02*
X128295714Y-66510771D01*
X128295714Y-66510771D02*
X128200476Y-66558390D01*
X128200476Y-66558390D02*
X128152857Y-66606009D01*
X128152857Y-66606009D02*
X128105238Y-66701247D01*
D12*
%TO.C,R3*%
X124830000Y-95250000D02*
X125780000Y-95250000D01*
X130570000Y-95250000D02*
X129620000Y-95250000D01*
X125780000Y-94330000D02*
X129620000Y-94330000D01*
X129620000Y-96170000D01*
X125780000Y-96170000D01*
X125780000Y-94330000D01*
%TO.C,D1*%
X121070800Y-75031600D02*
X121210800Y-75031600D01*
X122545800Y-73061600D02*
X122545800Y-77001600D01*
X122665800Y-73061600D02*
X122665800Y-77001600D01*
X122785800Y-73061600D02*
X122785800Y-77001600D01*
X130490800Y-75031600D02*
X130350800Y-75031600D01*
X121210800Y-73061600D02*
X130350800Y-73061600D01*
X130350800Y-77001600D01*
X121210800Y-77001600D01*
X121210800Y-73061600D01*
%TO.C,C2*%
X109490200Y-63630000D02*
X114730200Y-63630000D01*
X109490200Y-66370000D02*
X109490200Y-63630000D01*
X114730200Y-63630000D02*
X114730200Y-66370000D01*
X114730200Y-66370000D02*
X109490200Y-66370000D01*
%TO.C,C3*%
X107380000Y-99630000D02*
X112620000Y-99630000D01*
X107380000Y-102370000D02*
X107380000Y-99630000D01*
X112620000Y-99630000D02*
X112620000Y-102370000D01*
X112620000Y-102370000D02*
X107380000Y-102370000D01*
%TO.C,J7*%
X113095000Y-109580630D02*
X113095000Y-108200630D01*
X114475000Y-109580630D02*
X113095000Y-109580630D01*
X115745000Y-106820630D02*
X120935000Y-106820630D01*
X115745000Y-109580630D02*
X115745000Y-106820630D01*
X115745000Y-109580630D02*
X120935000Y-109580630D01*
X120935000Y-109580630D02*
X120935000Y-106820630D01*
%TO.C,J3*%
X135675200Y-55663400D02*
X137055200Y-55663400D01*
X135675200Y-57043400D02*
X135675200Y-55663400D01*
X135675200Y-58313400D02*
X135675200Y-60963400D01*
X135675200Y-58313400D02*
X138435200Y-58313400D01*
X135675200Y-60963400D02*
X138435200Y-60963400D01*
X138435200Y-58313400D02*
X138435200Y-60963400D01*
%TO.C,C4*%
X113380000Y-99630000D02*
X118620000Y-99630000D01*
X113380000Y-102370000D02*
X113380000Y-99630000D01*
X118620000Y-99630000D02*
X118620000Y-102370000D01*
X118620000Y-102370000D02*
X113380000Y-102370000D01*
%TO.C,SW1*%
X123140000Y-68363000D02*
X133360000Y-68363000D01*
X133360000Y-71083000D01*
X123140000Y-71083000D01*
X123140000Y-68363000D01*
%TO.C,U1*%
X107390000Y-70390000D02*
X117610000Y-70390000D01*
X107390000Y-75010000D02*
X107390000Y-70390000D01*
X110650000Y-75010000D02*
X110650000Y-73630000D01*
X114350000Y-75010000D02*
X114350000Y-73630000D01*
X117610000Y-70390000D02*
X117610000Y-75010000D01*
X117610000Y-73630000D02*
X107390000Y-73630000D01*
X117610000Y-75010000D02*
X107390000Y-75010000D01*
%TO.C,J1*%
X107450000Y-79192500D02*
X122150000Y-79192500D01*
X107450000Y-88392500D02*
X107450000Y-79192500D01*
X116250000Y-88392500D02*
X107450000Y-88392500D01*
X121300000Y-78992500D02*
X122350000Y-78992500D01*
X122150000Y-79192500D02*
X122150000Y-81792500D01*
X122150000Y-85692500D02*
X122150000Y-88392500D01*
X122150000Y-88392500D02*
X120250000Y-88392500D01*
X122350000Y-80042500D02*
X122350000Y-78992500D01*
%TO.C,C1*%
X115210600Y-63630000D02*
X120450600Y-63630000D01*
X115210600Y-66370000D02*
X115210600Y-63630000D01*
X120450600Y-63630000D02*
X120450600Y-66370000D01*
X120450600Y-66370000D02*
X115210600Y-66370000D01*
%TO.C,R2*%
X124830000Y-91000000D02*
X125780000Y-91000000D01*
X130570000Y-91000000D02*
X129620000Y-91000000D01*
X125780000Y-90080000D02*
X129620000Y-90080000D01*
X129620000Y-91920000D01*
X125780000Y-91920000D01*
X125780000Y-90080000D01*
%TO.C,J8*%
X122890000Y-99246500D02*
X133130000Y-99246500D01*
X122890000Y-102266500D02*
X133130000Y-102266500D01*
X122890000Y-107166500D02*
X133130000Y-107166500D01*
X122890000Y-108666500D02*
X133130000Y-108666500D01*
X122890000Y-109286500D02*
X122890000Y-99246500D01*
X125210000Y-109286500D02*
X122890000Y-109286500D01*
X133130000Y-99246500D02*
X133130000Y-109286500D01*
X133130000Y-109286500D02*
X125810000Y-109286500D01*
X125950000Y-109896500D02*
X125070000Y-109896500D01*
X125510000Y-109286500D01*
X125950000Y-109896500D01*
G36*
X125950000Y-109896500D02*
G01*
X125070000Y-109896500D01*
X125510000Y-109286500D01*
X125950000Y-109896500D01*
G37*
%TO.C,J4*%
X135703800Y-104583800D02*
X137083800Y-104583800D01*
X135703800Y-105963800D02*
X135703800Y-104583800D01*
X135703800Y-107233800D02*
X135703800Y-109883800D01*
X135703800Y-107233800D02*
X138463800Y-107233800D01*
X135703800Y-109883800D02*
X138463800Y-109883800D01*
X138463800Y-107233800D02*
X138463800Y-109883800D01*
%TO.C,J5*%
X113095000Y-58457500D02*
X113095000Y-57077500D01*
X114475000Y-58457500D02*
X113095000Y-58457500D01*
X115745000Y-55697500D02*
X120935000Y-55697500D01*
X115745000Y-58457500D02*
X115745000Y-55697500D01*
X115745000Y-58457500D02*
X120935000Y-58457500D01*
X120935000Y-58457500D02*
X120935000Y-55697500D01*
%TO.C,U2*%
X107390000Y-92935000D02*
X117610000Y-92935000D01*
X107390000Y-94315000D02*
X117610000Y-94315000D01*
X107390000Y-97555000D02*
X107390000Y-92935000D01*
X110650000Y-92935000D02*
X110650000Y-94315000D01*
X114350000Y-92935000D02*
X114350000Y-94315000D01*
X117610000Y-92935000D02*
X117610000Y-97555000D01*
X117610000Y-97555000D02*
X107390000Y-97555000D01*
%TO.C,D2*%
X129014000Y-85810000D02*
X129170000Y-85810000D01*
X131330000Y-85810000D02*
X131486000Y-85810000D01*
X129014484Y-85810000D02*
G75*
G02*
X129170000Y-82578563I1235516J1560000D01*
G01*
X129170000Y-85290961D02*
G75*
G02*
X129170000Y-83209039I1080000J1040961D01*
G01*
X131330000Y-82578563D02*
G75*
G02*
X131485516Y-85810000I-1080000J-1671437D01*
G01*
X131330000Y-83209039D02*
G75*
G02*
X131330000Y-85290961I-1080000J-1040961D01*
G01*
%TO.C,R1*%
X124830000Y-79250000D02*
X125780000Y-79250000D01*
X130570000Y-79250000D02*
X129620000Y-79250000D01*
X125780000Y-78330000D02*
X129620000Y-78330000D01*
X129620000Y-80170000D01*
X125780000Y-80170000D01*
X125780000Y-78330000D01*
%TO.C,J6*%
X122890000Y-55884400D02*
X130210000Y-55884400D01*
X122890000Y-65924400D02*
X122890000Y-55884400D01*
X130810000Y-55884400D02*
X133130000Y-55884400D01*
X133130000Y-55884400D02*
X133130000Y-65924400D01*
X133130000Y-56504400D02*
X122890000Y-56504400D01*
X133130000Y-58004400D02*
X122890000Y-58004400D01*
X133130000Y-62904400D02*
X122890000Y-62904400D01*
X133130000Y-65924400D02*
X122890000Y-65924400D01*
X130510000Y-55884400D02*
X130070000Y-55274400D01*
X130950000Y-55274400D01*
X130510000Y-55884400D01*
G36*
X130510000Y-55884400D02*
G01*
X130070000Y-55274400D01*
X130950000Y-55274400D01*
X130510000Y-55884400D01*
G37*
%TD*%
M02*
