%TF.GenerationSoftware,KiCad,Pcbnew,9.0.7*%
%TF.CreationDate,2026-02-03T13:24:39+02:00*%
%TF.ProjectId,Breadboard_Power_Supply,42726561-6462-46f6-9172-645f506f7765,rev?*%
%TF.SameCoordinates,Original*%
%TF.FileFunction,Soldermask,Bot*%
%TF.FilePolarity,Negative*%
%FSLAX46Y46*%
G04 Gerber Fmt 4.6, Leading zero omitted, Abs format (unit mm)*
G04 Created by KiCad (PCBNEW 9.0.7) date 2026-02-03 13:24:39*
%MOMM*%
%LPD*%
G01*
G04 APERTURE LIST*
G04 Aperture macros list*
%AMRoundRect*
0 Rectangle with rounded corners*
0 $1 Rounding radius*
0 $2 $3 $4 $5 $6 $7 $8 $9 X,Y pos of 4 corners*
0 Add a 4 corners polygon primitive as box body*
4,1,4,$2,$3,$4,$5,$6,$7,$8,$9,$2,$3,0*
0 Add four circle primitives for the rounded corners*
1,1,$1+$1,$2,$3*
1,1,$1+$1,$4,$5*
1,1,$1+$1,$6,$7*
1,1,$1+$1,$8,$9*
0 Add four rect primitives between the rounded corners*
20,1,$1+$1,$2,$3,$4,$5,0*
20,1,$1+$1,$4,$5,$6,$7,0*
20,1,$1+$1,$6,$7,$8,$9,0*
20,1,$1+$1,$8,$9,$2,$3,0*%
G04 Aperture macros list end*
%ADD10C,1.400000*%
%ADD11RoundRect,0.250001X-1.149999X-1.149999X1.149999X-1.149999X1.149999X1.149999X-1.149999X1.149999X0*%
%ADD12C,2.800000*%
%ADD13C,1.600000*%
%ADD14R,1.700000X1.700000*%
%ADD15C,1.700000*%
%ADD16R,1.500000X1.500000*%
%ADD17R,1.905000X2.000000*%
%ADD18O,1.905000X2.000000*%
%ADD19R,3.500000X3.500000*%
%ADD20RoundRect,0.750000X-0.750000X-1.000000X0.750000X-1.000000X0.750000X1.000000X-0.750000X1.000000X0*%
%ADD21RoundRect,0.875000X-0.875000X-0.875000X0.875000X-0.875000X0.875000X0.875000X-0.875000X0.875000X0*%
%ADD22RoundRect,0.250000X-1.050000X-1.050000X1.050000X-1.050000X1.050000X1.050000X-1.050000X1.050000X0*%
%ADD23C,2.600000*%
%ADD24R,1.800000X1.800000*%
%ADD25C,1.800000*%
%ADD26RoundRect,0.250000X1.050000X1.050000X-1.050000X1.050000X-1.050000X-1.050000X1.050000X-1.050000X0*%
G04 APERTURE END LIST*
D10*
%TO.C,R3*%
X123890000Y-95250000D03*
X131510000Y-95250000D03*
%TD*%
D11*
%TO.C,D1*%
X119430800Y-75031600D03*
D12*
X132130800Y-75031600D03*
%TD*%
D13*
%TO.C,C2*%
X113360200Y-65000000D03*
X110860200Y-65000000D03*
%TD*%
%TO.C,C3*%
X111250000Y-101000000D03*
X108750000Y-101000000D03*
%TD*%
D14*
%TO.C,J7*%
X114475000Y-108200630D03*
D15*
X117015000Y-108200630D03*
X119555000Y-108200630D03*
%TD*%
D14*
%TO.C,J3*%
X137055200Y-57043400D03*
D15*
X137055200Y-59583400D03*
%TD*%
D13*
%TO.C,C4*%
X114750000Y-101000000D03*
X117250000Y-101000000D03*
%TD*%
D16*
%TO.C,SW1*%
X128250000Y-69723000D03*
D13*
X125710000Y-69723000D03*
X130790000Y-69723000D03*
%TD*%
D17*
%TO.C,U1*%
X115040000Y-71750000D03*
D18*
X112500000Y-71750000D03*
X109960000Y-71750000D03*
%TD*%
D19*
%TO.C,J1*%
X121250000Y-83792500D03*
D20*
X115250000Y-83792500D03*
D21*
X118250000Y-88492500D03*
%TD*%
D13*
%TO.C,C1*%
X119080600Y-65000000D03*
X116580600Y-65000000D03*
%TD*%
D10*
%TO.C,R2*%
X123890000Y-91000000D03*
X131510000Y-91000000D03*
%TD*%
D22*
%TO.C,J8*%
X125510000Y-104566500D03*
D23*
X130510000Y-104566500D03*
%TD*%
D14*
%TO.C,J4*%
X137083800Y-105963800D03*
D15*
X137083800Y-108503800D03*
%TD*%
D14*
%TO.C,J5*%
X114475000Y-57077500D03*
D15*
X117015000Y-57077500D03*
X119555000Y-57077500D03*
%TD*%
D17*
%TO.C,U2*%
X109960000Y-96195000D03*
D18*
X112500000Y-96195000D03*
X115040000Y-96195000D03*
%TD*%
D24*
%TO.C,D2*%
X130250000Y-85520000D03*
D25*
X130250000Y-82980000D03*
%TD*%
D10*
%TO.C,R1*%
X123890000Y-79250000D03*
X131510000Y-79250000D03*
%TD*%
D26*
%TO.C,J6*%
X130510000Y-60604400D03*
D23*
X125510000Y-60604400D03*
%TD*%
M02*
